<svg width="18" height="18" viewBox="0 0 18 18" fill="currentColor" xmlns="http://www.w3.org/2000/svg">
<g transform="scale(-1, 1) translate(-18, 0)">
<path fill-rule="evenodd" clip-rule="evenodd" d="M11.2052 3.18713C11.008 3.38038 11.0047 3.69695 11.198 3.8942L15.2027 7.98191L1.51055 7.84155C1.23442 7.83872 1.00828 8.06027 1.00545 8.3364C1.00262 8.61253 1.22417 8.83867 1.5003 8.8415L15.2925 8.98289L11.1037 13.0866C10.9065 13.2799 10.9032 13.5964 11.0965 13.7937C11.2897 13.9909 11.6063 13.9942 11.8036 13.8009L16.4505 9.24832C16.8498 8.85713 16.8561 8.24058 16.4649 7.84129L11.9123 3.19438C11.719 2.99713 11.4025 2.99388 11.2052 3.18713Z"/>
</g>
</svg>
