<svg width="16" height="16" viewBox="0 0 16 16" fill="none" xmlns="http://www.w3.org/2000/svg">
<path fill-rule="evenodd" clip-rule="evenodd" d="M4.34099 3.5C5.25886 2.85974 6.34919 2.5 7.5 2.5C10.5477 2.5 13 4.95228 13 8C13 11.0477 10.5477 13.5 7.5 13.5C5.79771 13.5 4.25432 12.7171 3.18087 11.3753C2.83586 10.944 2.20657 10.8741 1.7753 11.2191C1.34404 11.5641 1.27412 12.1934 1.61913 12.6247C3.06275 14.4292 5.17372 15.5 7.5 15.5C11.6523 15.5 15 12.1523 15 8C15 3.84772 11.6523 0.5 7.5 0.5C5.84359 0.5 4.28318 1.04496 3 2.00147V1C3 0.447715 2.55229 0 2 0C1.44771 0 1 0.447715 1 1V4C1 4.85228 1.64772 5.5 2.5 5.5H5.5C6.05229 5.5 6.5 5.05228 6.5 4.5C6.5 3.94772 6.05229 3.5 5.5 3.5H4.34099Z" fill="currentColor"/>
<path d="M5.5 7.63073V7.07008H6.67566V11H6.02566V7.63073H5.5Z" fill="currentColor"/>
<path d="M7.56085 8.98383C7.56085 8.36208 7.67013 7.87691 7.88868 7.5283C8.111 7.1761 8.49158 7 9.03042 7C9.56927 7 9.94797 7.1761 10.1665 7.5283C10.3888 7.87691 10.5 8.36208 10.5 8.98383C10.5 9.61276 10.3888 10.1051 10.1665 10.4609C9.94797 10.8131 9.56927 10.9892 9.03042 10.9892C8.49158 10.9892 8.111 10.8131 7.88868 10.4609C7.67013 10.1051 7.56085 9.61276 7.56085 8.98383ZM9.86695 8.98383C9.86695 8.69272 9.84623 8.44654 9.80478 8.24528C9.7671 8.04403 9.68797 7.8805 9.56738 7.75472C9.4468 7.62534 9.26782 7.56065 9.03042 7.56065C8.79303 7.56065 8.61405 7.62534 8.49346 7.75472C8.37288 7.8805 8.29187 8.04403 8.25042 8.24528C8.21274 8.44654 8.1939 8.69272 8.1939 8.98383C8.1939 9.28571 8.21274 9.53908 8.25042 9.74394C8.2881 9.94879 8.36723 10.1141 8.48781 10.2399C8.61216 10.3657 8.79303 10.4286 9.03042 10.4286C9.26782 10.4286 9.4468 10.3657 9.56738 10.2399C9.69173 10.1141 9.77275 9.94879 9.81043 9.74394C9.84811 9.53908 9.86695 9.28571 9.86695 8.98383Z" fill="currentColor"/>
</svg>
