<svg width="24" height="24" viewBox="0 0 24 24" fill="none" xmlns="http://www.w3.org/2000/svg">
    <path d="M0 12C0 5.37258 5.37258 0 12 0C18.6274 0 24 5.37258 24 12C24 18.6274 18.6274 24 12 24C5.37258 24 0 18.6274 0 12Z" fill="#F8F9F9" />
    <path d="M11.2266 13.0313H14.997M11.2266 9.26075V13.0313V9.26075ZM11.2266 13.0313L20.121 5.03906L11.2266 13.0313Z" stroke="#1371D6" stroke-width="1.5" stroke-linecap="round" stroke-linejoin="round" />
    <path d="M15.4918 4.52344C14.4312 4.02722 13.2477 3.75 11.9995 3.75C7.4431 3.75 3.74945 7.44365 3.74945 12C3.74945 16.5563 7.4431 20.25 11.9995 20.25C16.5558 20.25 20.2495 16.5563 20.2495 12C20.2495 11.2878 20.1592 10.5968 19.9896 9.9375" stroke="#3091EC" stroke-width="1.5" stroke-linecap="round" stroke-linejoin="round" />
</svg>
    