<svg width="25" height="24" viewBox="0 0 25 24" fill="none" xmlns="http://www.w3.org/2000/svg">
<g opacity="0.3">
<path d="M12.1641 24C18.7915 24 24.1641 18.6274 24.1641 12C24.1641 5.37258 18.7915 0 12.1641 0C5.53665 0 0.164062 5.37258 0.164062 12C0.164062 18.6274 5.53665 24 12.1641 24Z" fill="#D3ECDB"/>
</g>
<path opacity="0.8" d="M12.653 3.1964C8.84605 3.1964 5.76496 6.27748 5.76496 10.0844C5.76496 10.2596 5.76496 10.4347 5.7904 10.5854C5.46458 11.1861 4.98908 12.0129 4.41279 12.5138C3.98719 12.8896 4.08697 13.2907 4.13687 13.4404C4.26211 13.7662 4.61237 14.0411 5.18866 14.2417C5.38924 14.3171 5.61427 14.367 5.81485 14.4169L5.84028 16.8463C5.84028 17.7983 6.6416 18.625 7.61905 18.625L9.09645 18.1495L9.24713 19.0262C9.34693 19.6025 9.84787 20.0281 10.4496 20.0281C10.5249 20.0281 10.6003 20.0281 10.6746 20.0026L15.3084 19.1769C15.9845 19.0516 16.4101 18.4254 16.3103 17.7494L15.9845 16.1213C18.1634 14.9188 19.541 12.5891 19.541 10.0843C19.541 6.30267 16.4356 3.19629 12.6529 3.19629L12.653 3.1964Z" fill="#70C38A"/>
<path fill-rule="evenodd" clip-rule="evenodd" d="M6.55859 10.7679V10.1211H8.23278V10.7679H6.55859Z" fill="#D3ECDB"/>
<path fill-rule="evenodd" clip-rule="evenodd" d="M7.46563 13.6061L7.15234 13.0469L8.60113 12.1841L8.91441 12.7432L7.46563 13.6061Z" fill="#D3ECDB"/>
<path fill-rule="evenodd" clip-rule="evenodd" d="M8.60113 8.70375L7.15234 7.84237L7.46563 7.2832L8.91441 8.14458L8.60113 8.70375Z" fill="#D3ECDB"/>
<path fill-rule="evenodd" clip-rule="evenodd" d="M16.8472 7.2832L17.1605 7.84237L15.7117 8.70375L15.3984 8.14458L16.8472 7.2832Z" fill="#D3ECDB"/>
<path fill-rule="evenodd" clip-rule="evenodd" d="M11.8438 4.68018H12.4718V6.40439H11.8438V4.68018Z" fill="#D3ECDB"/>
<path fill-rule="evenodd" clip-rule="evenodd" d="M9.62746 5.29053L10.4653 6.78261L9.92232 7.10526L9.08594 5.61318L9.62746 5.29053Z" fill="#D3ECDB"/>
<path fill-rule="evenodd" clip-rule="evenodd" d="M13.4669 12.9974V14.6224H12.8956L12.8971 15.2502H11.4129L11.4114 14.6224H10.843V12.9974C9.96978 12.5054 9.41406 11.5521 9.41406 10.5242C9.41406 8.96938 10.6445 7.70215 12.1543 7.70215C13.6669 7.70215 14.8973 8.96938 14.8973 10.5242C14.8959 11.5506 14.3388 12.504 13.467 12.9974H13.4669Z" fill="#D3ECDB"/>
<path fill-rule="evenodd" clip-rule="evenodd" d="M14.3906 7.10672L13.8477 6.78407L14.684 5.29199L15.227 5.61464L14.3906 7.10672Z" fill="#D3ECDB"/>
<path fill-rule="evenodd" clip-rule="evenodd" d="M16.8472 13.6066L15.3984 12.7437L15.7117 12.1846L17.1605 13.0474L16.8472 13.6066Z" fill="#D3ECDB"/>
<path fill-rule="evenodd" clip-rule="evenodd" d="M17.7523 10.7684H16.0781V10.1216H17.7523V10.7684Z" fill="#D3ECDB"/>
</svg>
