<svg width="24" height="24" viewBox="0 0 24 24" fill="none" xmlns="http://www.w3.org/2000/svg">
    <path d="M0 12C0 5.37258 5.37258 0 12 0C18.6274 0 24 5.37258 24 12C24 18.6274 18.6274 24 12 24C5.37258 24 0 18.6274 0 12Z" fill="#F8F9F9" />
    <path d="M20.6953 5.73905C21.0148 5.41953 21.0148 4.90149 20.6953 4.58197C20.3758 4.26245 19.8577 4.26245 19.5382 4.58197L11.88 12.2402L10.0849 9.95981C9.80539 9.60476 9.29098 9.54352 8.93593 9.82303C8.58088 10.1025 8.51963 10.6169 8.79914 10.972L11.1642 13.9763C11.3089 14.16 11.5252 14.2731 11.7586 14.2869C11.9921 14.3008 12.2203 14.2141 12.3856 14.0487L20.6953 5.73905Z" fill="#27DD70" />
    <path d="M3 12C3 7.02944 7.02944 3 12 3C13.3602 3 14.6521 3.3023 15.8102 3.84415C16.2195 4.03565 16.396 4.52268 16.2045 4.93196C16.013 5.34125 15.526 5.5178 15.1167 5.3263C14.1712 4.88391 13.1156 4.63636 12 4.63636C7.93318 4.63636 4.63636 7.93318 4.63636 12C4.63636 16.0668 7.93318 19.3636 12 19.3636C16.0668 19.3636 19.3636 16.0668 19.3636 12C19.3636 11.3631 19.283 10.7462 19.1317 10.1585C19.0191 9.72084 19.2826 9.27479 19.7202 9.16218C20.1578 9.04957 20.6038 9.31303 20.7165 9.75064C20.9017 10.4705 21 11.2243 21 12C21 16.9705 16.9705 21 12 21C7.02944 21 3 16.9705 3 12Z" fill="#27DD70" />
    <path d="M20.6953 5.73905C21.0148 5.41953 21.0148 4.90149 20.6953 4.58197C20.3758 4.26245 19.8577 4.26245 19.5382 4.58197L11.88 12.2402L10.0849 9.95981C9.80539 9.60476 9.29098 9.54352 8.93593 9.82303C8.58088 10.1025 8.51963 10.6169 8.79914 10.972L11.1642 13.9763C11.3089 14.16 11.5252 14.2731 11.7586 14.2869C11.9921 14.3008 12.2203 14.2141 12.3856 14.0487L20.6953 5.73905Z" fill="#158944" />
</svg>