<svg width="24" height="24" viewBox="0 0 24 24" fill="none" xmlns="http://www.w3.org/2000/svg">
<g opacity="0.3">
<path opacity="0.3" d="M12 24C18.6274 24 24 18.6274 24 12C24 5.37258 18.6274 0 12 0C5.37258 0 0 5.37258 0 12C0 18.6274 5.37258 24 12 24Z" fill="#50BF95"/>
</g>
<path d="M12.487 3.19652C8.68003 3.19652 5.59895 6.27761 5.59895 10.0846C5.59895 10.2597 5.59895 10.4348 5.62438 10.5855C5.29857 11.1863 4.82307 12.013 4.24678 12.514C3.82117 12.8897 3.92096 13.2908 3.97085 13.4405C4.09609 13.7663 4.44635 14.0413 5.02265 14.2418C5.22322 14.3172 5.44825 14.3671 5.64883 14.417L5.67427 16.8464C5.67427 17.7984 6.47559 18.6251 7.45304 18.6251L8.93044 18.1496L9.08111 19.0263C9.18091 19.6026 9.68185 20.0282 10.2836 20.0282C10.3589 20.0282 10.4343 20.0282 10.5086 20.0028L15.1424 19.177C15.8185 19.0517 16.2441 18.4256 16.1443 17.7495L15.8185 16.1214C17.9974 14.9189 19.375 12.5892 19.375 10.0845C19.375 6.30279 16.2696 3.19641 12.4869 3.19641L12.487 3.19652Z" fill="#2B8473" stroke="#2B8473"/>
<path fill-rule="evenodd" clip-rule="evenodd" d="M6.39343 10.7683V10.1215H8.06761V10.7683H6.39343Z" fill="#ECF4F2"/>
<path fill-rule="evenodd" clip-rule="evenodd" d="M7.29937 13.6065L6.98608 13.0473L8.43487 12.1845L8.74815 12.7437L7.29937 13.6065Z" fill="#ECF4F2"/>
<path fill-rule="evenodd" clip-rule="evenodd" d="M8.43609 8.70399L6.9873 7.84261L7.30059 7.28345L8.74937 8.14483L8.43609 8.70399Z" fill="#ECF4F2"/>
<path fill-rule="evenodd" clip-rule="evenodd" d="M16.6807 7.28345L16.994 7.84261L15.5452 8.70399L15.2319 8.14483L16.6807 7.28345Z" fill="#ECF4F2"/>
<path fill-rule="evenodd" clip-rule="evenodd" d="M11.677 4.68039H12.305V6.4046H11.677V4.68039Z" fill="#ECF4F2"/>
<path fill-rule="evenodd" clip-rule="evenodd" d="M9.46389 5.29071L10.3017 6.78279L9.75875 7.10544L8.92236 5.61336L9.46389 5.29071Z" fill="#ECF4F2"/>
<path fill-rule="evenodd" clip-rule="evenodd" d="M13.3026 12.9977V14.6227H12.7313L12.7328 15.2505H11.2486L11.2471 14.6227H10.6787V12.9977C9.80547 12.5057 9.24976 11.5524 9.24976 10.5246C9.24976 8.96969 10.4802 7.70245 11.99 7.70245C13.5025 7.70245 14.733 8.96969 14.733 10.5246C14.7316 11.5509 14.1745 12.5043 13.3027 12.9977H13.3026Z" fill="#ECF4F2"/>
<path fill-rule="evenodd" clip-rule="evenodd" d="M14.2243 7.10672L13.6814 6.78407L14.5178 5.29199L15.0607 5.61464L14.2243 7.10672Z" fill="#ECF4F2"/>
<path fill-rule="evenodd" clip-rule="evenodd" d="M16.6807 13.6065L15.2319 12.7437L15.5452 12.1845L16.994 13.0474L16.6807 13.6065Z" fill="#ECF4F2"/>
<path fill-rule="evenodd" clip-rule="evenodd" d="M17.5865 10.7684H15.9124V10.1216H17.5865V10.7684Z" fill="#ECF4F2"/>
</svg>
