<svg width="24" height="24" viewBox="0 0 24 24" fill="none" xmlns="http://www.w3.org/2000/svg">
    <path d="M0 12C0 5.37258 5.37258 0 12 0C18.6274 0 24 5.37258 24 12C24 18.6274 18.6274 24 12 24C5.37258 24 0 18.6274 0 12Z" fill="#F8F9F9" />
    <path d="M13.059 16.7647C13.059 16.1799 12.585 15.7059 12.0002 15.7059C11.4154 15.7059 10.9414 16.1799 10.9414 16.7647V19.9412C10.9414 20.5259 11.4154 21 12.0002 21C12.585 21 13.059 20.5259 13.059 19.9412V16.7647Z" fill="#D1820A" />
    <path d="M16.1149 14.6183C15.7014 14.2048 15.031 14.2048 14.6175 14.6183C14.204 15.0318 14.204 15.7022 14.6175 16.1157L16.8649 18.3631C17.2783 18.7766 17.9488 18.7766 18.3623 18.3631C18.7757 17.9496 18.7757 17.2792 18.3623 16.8657L16.1149 14.6183Z" fill="#D1820A" />
    <path d="M16.7649 10.9412C16.1802 10.9412 15.7061 11.4152 15.7061 12C15.7061 12.5848 16.1802 13.0588 16.7649 13.0588H19.9414C20.5262 13.0588 21.0002 12.5848 21.0002 12C21.0002 11.4152 20.5262 10.9412 19.9414 10.9412H16.7649Z" fill="#D1820A" />
    <path d="M9.38105 14.6183C9.79455 15.0318 9.79455 15.7022 9.38105 16.1157L7.1337 18.3631C6.7202 18.7766 6.04979 18.7766 5.63629 18.3631C5.2228 17.9496 5.2228 17.2792 5.63629 16.8657L7.88365 14.6183C8.29714 14.2048 8.96756 14.2048 9.38105 14.6183Z" fill="#D1820A" />
    <path d="M16.1149 14.6183C15.7014 14.2048 15.031 14.2048 14.6175 14.6183C14.204 15.0318 14.204 15.7022 14.6175 16.1157L16.8649 18.3631C17.2783 18.7766 17.9488 18.7766 18.3623 18.3631C18.7757 17.9496 18.7757 17.2792 18.3623 16.8657L16.1149 14.6183Z" fill="#FBE1AC" />
    <path d="M16.7649 10.9412C16.1802 10.9412 15.7061 11.4152 15.7061 12C15.7061 12.5848 16.1802 13.0588 16.7649 13.0588H19.9414C20.5262 13.0588 21.0002 12.5848 21.0002 12C21.0002 11.4152 20.5262 10.9412 19.9414 10.9412H16.7649Z" fill="#FBE1AC" />
    <path d="M12 3C12.5848 3 13.0588 3.47405 13.0588 4.05882V7.23529C13.0588 7.82007 12.5848 8.29412 12 8.29412C11.4152 8.29412 10.9412 7.82007 10.9412 7.23529V4.05882C10.9412 3.47405 11.4152 3 12 3Z" fill="#F7BF50" />
    <path d="M5.63607 5.63685C6.04957 5.22335 6.71998 5.22335 7.13348 5.63685L9.38083 7.8842C9.79433 8.2977 9.79433 8.96811 9.38083 9.3816C8.96734 9.7951 8.29693 9.7951 7.88343 9.38161L5.63608 7.13425C5.22258 6.72076 5.22258 6.05035 5.63607 5.63685Z" fill="#F7BF50" />
    <path d="M3 12C3 11.4152 3.47405 10.9412 4.05882 10.9412H7.23529C7.82007 10.9412 8.29412 11.4152 8.29412 12C8.29412 12.5848 7.82007 13.0588 7.23529 13.0588H4.05882C3.47405 13.0588 3 12.5848 3 12Z" fill="#F7BF50" />
    <path d="M18.362 7.13425C18.7755 6.72076 18.7755 6.05035 18.362 5.63685C17.9485 5.22335 17.2781 5.22335 16.8646 5.63685L14.6173 7.8842C14.2038 8.2977 14.2038 8.96811 14.6173 9.3816C15.0308 9.7951 15.7012 9.7951 16.1147 9.38161L18.362 7.13425Z" fill="#F7BF50" />
</svg>
    