<svg width="32" height="32" viewBox="0 0 32 32" fill="none" xmlns="http://www.w3.org/2000/svg">
<circle cx="16" cy="16" r="16" fill="#F8F9F9"/>
<path d="M24.6953 9.73905C25.0148 9.41953 25.0148 8.90149 24.6953 8.58197C24.3758 8.26245 23.8577 8.26245 23.5382 8.58197L15.88 16.2402L14.0849 13.9598C13.8054 13.6048 13.291 13.5435 12.9359 13.823C12.5809 14.1025 12.5196 14.6169 12.7991 14.972L15.1642 17.9763C15.3089 18.16 15.5252 18.2731 15.7586 18.2869C15.9921 18.3008 16.2203 18.2141 16.3856 18.0487L24.6953 9.73905Z" fill="#27DD70"/>
<path d="M7 16C7 11.0294 11.0294 7 16 7C17.3602 7 18.6521 7.3023 19.8102 7.84415C20.2195 8.03565 20.396 8.52268 20.2045 8.93196C20.013 9.34125 19.526 9.5178 19.1167 9.3263C18.1712 8.88391 17.1156 8.63636 16 8.63636C11.9332 8.63636 8.63636 11.9332 8.63636 16C8.63636 20.0668 11.9332 23.3636 16 23.3636C20.0668 23.3636 23.3636 20.0668 23.3636 16C23.3636 15.3631 23.283 14.7462 23.1317 14.1585C23.0191 13.7208 23.2826 13.2748 23.7202 13.1622C24.1578 13.0496 24.6038 13.313 24.7165 13.7506C24.9017 14.4705 25 15.2243 25 16C25 20.9705 20.9705 25 16 25C11.0294 25 7 20.9705 7 16Z" fill="#27DD70"/>
<path d="M24.6953 9.73905C25.0148 9.41953 25.0148 8.90149 24.6953 8.58197C24.3758 8.26245 23.8577 8.26245 23.5382 8.58197L15.88 16.2402L14.0849 13.9598C13.8054 13.6048 13.291 13.5435 12.9359 13.823C12.5809 14.1025 12.5196 14.6169 12.7991 14.972L15.1642 17.9763C15.3089 18.16 15.5252 18.2731 15.7586 18.2869C15.9921 18.3008 16.2203 18.2141 16.3856 18.0487L24.6953 9.73905Z" fill="#158944"/>
</svg>
