<svg width="12" height="16" viewBox="0 0 12 16" fill="none" xmlns="http://www.w3.org/2000/svg">
<path fill-rule="evenodd" clip-rule="evenodd" d="M2.625 10C2.83211 10 3 10.2239 3 10.5C3 10.7761 2.83211 11 2.625 11H0.75C0.335786 11 0 10.5523 0 10V1C0 0.447715 0.335786 0 0.75 0H7.5C7.91421 0 8.25 0.447715 8.25 1V3.5C8.25 3.77614 8.08211 4 7.875 4C7.66789 4 7.5 3.77614 7.5 3.5V1H0.75V10H2.625ZM4.5 6V15H11.25V6H4.5ZM4.5 5H11.25C11.6642 5 12 5.44772 12 6V15C12 15.5523 11.6642 16 11.25 16H4.5C4.08579 16 3.75 15.5523 3.75 15V6C3.75 5.44772 4.08579 5 4.5 5Z" fill="#003A57"/>
</svg>
