<svg width="16" height="16" viewBox="0 0 16 16" fill="none" xmlns="http://www.w3.org/2000/svg">
<path fill-rule="evenodd" clip-rule="evenodd" d="M3.5 10C3.77614 10 4 10.2239 4 10.5C4 10.7761 3.77614 11 3.5 11H1C0.447715 11 0 10.5523 0 10V1C0 0.447715 0.447715 0 1 0H10C10.5523 0 11 0.447715 11 1V3.5C11 3.77614 10.7761 4 10.5 4C10.2239 4 10 3.77614 10 3.5V1H1V10H3.5ZM6 6V15H15V6H6ZM6 5H15C15.5523 5 16 5.44772 16 6V15C16 15.5523 15.5523 16 15 16H6C5.44772 16 5 15.5523 5 15V6C5 5.44772 5.44772 5 6 5Z" fill="#68737D"/>
</svg>
