<svg width="12" height="13" viewBox="0 0 12 13" fill="#68737D" xmlns="http://www.w3.org/2000/svg">
<path fill-rule="evenodd" clip-rule="evenodd" d="M2.5 12.9992C2.37 12.9992 2.25 12.9492 2.15 12.8592L0.15 10.9292C0.0580183 10.8314 0.0047128 10.7034 0 10.5692V3.42923C0 3.29923 0.06 3.16923 0.15 3.06923L2.15 1.13923C2.3 0.999232 2.51 0.959232 2.7 1.03923C2.88 1.11923 3 1.29923 3 1.49923V2.99923H6C6.55614 2.99923 7 3.44309 7 3.99923V4.99923C7 5.27537 6.77614 5.49923 6.5 5.49923C6.22386 5.49923 6 5.27537 6 4.99923V3.99923H3V9.99923H6V8.99923C6 8.72309 6.22386 8.49923 6.5 8.49923C6.77614 8.49923 7 8.72309 7 8.99923V9.99923C7 10.5554 6.55614 10.9992 6 10.9992H3V12.4992C3 12.6992 2.88 12.8792 2.7 12.9592C2.63 12.9892 2.57 12.9992 2.5 12.9992ZM9.5 9.49923C9.44 9.49923 9.37 9.48923 9.31 9.45923C9.12311 9.38275 9.00074 9.20117 9 8.99923L8.99631 7.49923H5C4.72386 7.49923 4.5 7.27537 4.5 6.99923C4.5 6.72309 4.72386 6.49923 5 6.49923H8.99384L8.99 4.93923C8.99 4.73923 9.11 4.54923 9.3 4.47923C9.49 4.39923 9.7 4.44923 9.84 4.58923L11.51 6.28923C11.89 6.67923 11.89 7.30923 11.5 7.69923L9.85 9.34923C9.75972 9.44637 9.6326 9.50085 9.5 9.49923Z"/>
</svg>
