<svg viewBox="0 0 42 42" fill="none" xmlns="http://www.w3.org/2000/svg">
    <g opacity="0.3">
        <path opacity="0.3" d="M21 41C32.3218 41 41.5 31.8218 41.5 20.5C41.5 9.17816 32.3218 0 21 0C9.67816 0 0.5 9.17816 0.5 20.5C0.5 31.8218 9.67816 41 21 41Z" fill="#A81897" />
    </g>
    <path fill-rule="evenodd" clip-rule="evenodd" d="M29.8297 7.72461C28.978 7.78818 27.6207 7.98872 26.814 8.17018C25.28 8.5153 24.1422 8.91163 22.791 9.57151C19.6254 11.1175 16.4841 14.1723 14.6035 17.5336L14.3399 18.0047L18.9192 22.5841L23.4986 27.1634L24.0843 26.8357C27.3467 25.0102 30.4001 21.8525 31.9358 18.7158C32.6458 17.2657 33.0756 15.9822 33.4157 14.2961C33.7085 12.8443 33.8023 11.8648 33.8077 10.1991L33.8125 8.7463L33.6722 8.46055C33.5151 8.14067 33.3194 7.9528 32.9859 7.80171C32.7827 7.70963 32.6468 7.69851 31.6082 7.68874C30.9745 7.68278 30.1742 7.69891 29.8297 7.72461ZM26.6736 12.1107C28.0132 12.4396 29.0832 13.5181 29.4127 14.8718C29.5371 15.3828 29.5248 16.2131 29.3855 16.709C29.03 17.9743 28.0831 18.9574 26.8489 19.3428C26.3081 19.5117 25.4654 19.5359 24.9207 19.3982C24.1684 19.208 23.5117 18.8358 23.033 18.3284C21.3295 16.523 21.8215 13.5718 24.0156 12.4335C24.8582 11.9964 25.7613 11.8868 26.6736 12.1107ZM25.2595 13.5584C24.4417 13.7567 23.8054 14.3654 23.5921 15.1538C23.2213 16.5233 24.1916 17.8892 25.5976 17.977C26.7888 18.0513 27.7753 17.2701 27.9837 16.0874C28.1862 14.9377 27.3341 13.751 26.1509 13.5348C25.7785 13.4668 25.6201 13.471 25.2595 13.5584ZM13.4784 14.685C12.3187 14.7798 12.0527 14.8262 11.7327 14.9894C11.3169 15.2016 11.089 15.4919 9.75416 17.5097C9.02644 18.6098 8.38238 19.6018 8.32296 19.714C8.24045 19.8698 8.2146 20.007 8.2137 20.2938C8.21275 20.6174 8.23309 20.7066 8.36029 20.9363C8.53132 21.245 8.79273 21.4701 9.09918 21.5725C9.27207 21.6303 11.1619 21.9471 11.3336 21.9471C11.3582 21.9471 11.4523 21.6371 11.5426 21.2582C12.0379 19.1817 12.929 17.2114 14.2613 15.247C14.7369 14.5457 14.7163 14.5816 14.6401 14.5891C14.6043 14.5926 14.0816 14.6357 13.4784 14.685ZM13.4825 19.9866C13.0963 21.0618 12.7652 22.4862 12.8097 22.8809C12.8599 23.3269 12.9576 23.4388 15.563 26.0376C18.0151 28.4835 18.0895 28.5524 18.3718 28.6399C18.6309 28.7202 18.7077 28.7231 19.0936 28.6673C19.6744 28.5834 20.7105 28.313 21.4091 28.0632C21.7237 27.9507 21.9932 27.8465 22.0081 27.8315C22.0362 27.8034 13.7479 19.4923 13.6918 19.4923C13.6744 19.4923 13.5802 19.7147 13.4825 19.9866ZM11.1182 24.9102C11.0631 24.9402 10.4032 25.5763 9.65181 26.324C8.16721 27.801 8.12843 27.8539 8.23635 28.2548C8.30047 28.4928 8.56894 28.7428 8.80871 28.7878C9.19191 28.8596 9.2357 28.8272 10.6605 27.4145C11.402 26.6793 12.0375 26.0077 12.0757 25.9189C12.2394 25.5392 12.0962 25.1177 11.7434 24.9405C11.5475 24.842 11.2686 24.8285 11.1182 24.9102ZM26.3477 27.1902C24.3094 28.5806 22.2299 29.5124 20.0481 30.0132C19.7795 30.0749 19.5597 30.1462 19.5597 30.1716C19.5597 30.3444 19.8762 32.2337 19.9343 32.4076C20.0366 32.714 20.2618 32.9754 20.5705 33.1465C20.8002 33.2737 20.8893 33.294 21.2129 33.293C21.5009 33.2921 21.6368 33.2664 21.795 33.1826C21.9085 33.1226 22.9005 32.4788 23.9993 31.7519C26.3109 30.2231 26.4828 30.0701 26.6702 29.3742C26.7152 29.2069 26.9315 26.8577 26.9051 26.823C26.9015 26.8183 26.6507 26.9835 26.3477 27.1902ZM13.3225 27.1848C13.1054 27.2961 8.39966 32.0062 8.28434 32.2276C8.23109 32.3299 8.1875 32.4829 8.1875 32.5678C8.1875 32.8164 8.3647 33.105 8.58698 33.2184C8.83506 33.345 9.04117 33.3463 9.27913 33.2228C9.38133 33.1698 10.5623 32.0257 11.9035 30.6804C14.5336 28.0421 14.4615 28.1292 14.3788 27.6883C14.2927 27.2294 13.7448 26.9683 13.3225 27.1848ZM15.5268 29.4561C15.4442 29.5079 14.7867 30.1447 14.0659 30.8712C12.9553 31.9904 12.75 32.2202 12.7209 32.376C12.6167 32.935 13.1066 33.4151 13.6356 33.2725C13.9047 33.1999 16.5763 30.5216 16.6287 30.2719C16.7011 29.927 16.5489 29.5895 16.2513 29.4357C16.0522 29.3327 15.7082 29.3424 15.5268 29.4561Z" fill="#A81897" />
</svg>
    