<svg width="12" height="12" viewBox="0 0 12 12" xmlns="http://www.w3.org/2000/svg">
    <path fill-rule="evenodd" clip-rule="evenodd" d="M9.99976 4H6.99976V3.5C6.99976 2.62386 6.3759 2 5.49976 2H2.49976C1.62362 2 0.999758 2.62386 0.999758 3.5V6H0.499758C0.174472 6 -0.0642066 6.30569 0.0146868 6.62127L1.01469 10.6213C1.07033 10.8439 1.27032 11 1.49976 11H10.4998C10.7292 11 10.9292 10.8439 10.9848 10.6213L11.9848 6.62127C12.0637 6.30569 11.825 6 11.4998 6H10.9998V5C10.9998 4.42386 10.5759 4 9.99976 4ZM10.8594 7H1.14015L1.89015 10H10.1094L10.8594 7ZM1.99976 6H9.99976V5H5.99976V3.5C5.99976 3.17614 5.82362 3 5.49976 3H2.49976C2.1759 3 1.99976 3.17614 1.99976 3.5V6Z" fill="currentColor" />
</svg>
    