<svg width="16" height="16" viewBox="0 0 16 16" fill="none" xmlns="http://www.w3.org/2000/svg">
    <path fill-rule="evenodd" clip-rule="evenodd" d="M11.659 3.5C10.7411 2.85974 9.65081 2.5 8.5 2.5C5.45228 2.5 3 4.95228 3 8C3 11.0477 5.45228 13.5 8.5 13.5C10.2023 13.5 11.7457 12.7171 12.8191 11.3753C13.1641 10.944 13.7934 10.8741 14.2247 11.2191C14.656 11.5641 14.7259 12.1934 14.3809 12.6247C12.9372 14.4292 10.8263 15.5 8.5 15.5C4.34772 15.5 1 12.1523 1 8C1 3.84772 4.34772 0.5 8.5 0.5C10.1564 0.5 11.7168 1.04496 13 2.00147V1C13 0.447715 13.4477 0 14 0C14.5523 0 15 0.447715 15 1V4C15 4.85228 14.3523 5.5 13.5 5.5H10.5C9.94771 5.5 9.5 5.05228 9.5 4.5C9.5 3.94772 9.94771 3.5 10.5 3.5H11.659Z" fill="currentColor"/>
    <path d="M5.5 7.63073V7.07008H6.67566V11H6.02566V7.63073H5.5Z" fill="currentColor"/>
    <path d="M7.56085 8.98383C7.56085 8.36208 7.67013 7.87691 7.88868 7.5283C8.111 7.1761 8.49158 7 9.03042 7C9.56927 7 9.94797 7.1761 10.1665 7.5283C10.3888 7.87691 10.5 8.36208 10.5 8.98383C10.5 9.61276 10.3888 10.1051 10.1665 10.4609C9.94797 10.8131 9.56927 10.9892 9.03042 10.9892C8.49158 10.9892 8.111 10.8131 7.88868 10.4609C7.67013 10.1051 7.56085 9.61276 7.56085 8.98383ZM9.86695 8.98383C9.86695 8.69272 9.84623 8.44654 9.80478 8.24528C9.7671 8.04403 9.68797 7.8805 9.56738 7.75472C9.4468 7.62534 9.26782 7.56065 9.03042 7.56065C8.79303 7.56065 8.61405 7.62534 8.49346 7.75472C8.37288 7.8805 8.29187 8.04403 8.25042 8.24528C8.21274 8.44654 8.1939 8.69272 8.1939 8.98383C8.1939 9.28571 8.21274 9.53908 8.25042 9.74394C8.2881 9.94879 8.36723 10.1141 8.48781 10.2399C8.61216 10.3657 8.79303 10.4286 9.03042 10.4286C9.26782 10.4286 9.4468 10.3657 9.56738 10.2399C9.69173 10.1141 9.77275 9.94879 9.81043 9.74394C9.84811 9.53908 9.86695 9.28571 9.86695 8.98383Z" fill="currentColor"/>
</svg>
