<svg width="16" height="16" viewBox="0 0 16 16" fill="none" xmlns="http://www.w3.org/2000/svg">
<path fill-rule="evenodd" clip-rule="evenodd" d="M14 8C14 7.58667 13.96 7.17333 13.88 6.77333L15.2933 5.73333C15.48 5.6 15.5466 5.36 15.4666 5.14667C15.16 4.34667 14.7333 3.61333 14.2 2.96C14.057 2.78808 13.8165 2.73342 13.6133 2.82667L12 3.53333C11.3866 2.98667 10.6666 2.56 9.87996 2.30667L9.67996 0.546667C9.66789 0.32368 9.50079 0.139869 9.27996 0.106667C8.85329 0.04 8.43996 0 7.99996 0C7.57329 0 7.14662 0.04 6.73329 0.0933333C6.51996 0.133333 6.35996 0.32 6.33329 0.546667L6.13329 2.29333C5.33329 2.56 4.61329 2.98667 4.01329 3.53333L2.39996 2.81333C2.1969 2.71861 1.95546 2.77348 1.81329 2.94667C1.26662 3.6 0.839956 4.34667 0.533289 5.13333C0.453289 5.34667 0.533289 5.58667 0.706623 5.72L2.13329 6.76C2.03996 7.16 1.99996 7.57333 1.99996 8C1.99996 8.41333 2.03996 8.82667 2.11996 9.22667L0.706623 10.2667C0.519956 10.4 0.453289 10.64 0.533289 10.8533C0.839956 11.6533 1.26662 12.3867 1.79996 13.04C1.94662 13.2133 2.18662 13.2667 2.38662 13.1733L3.99996 12.4667C4.61329 13.0133 5.33329 13.44 6.11996 13.6933L6.30662 15.4533C6.33329 15.68 6.49329 15.8533 6.71996 15.8933C7.14662 15.96 7.55996 16 7.99996 16C8.42662 16 8.85329 15.96 9.26662 15.9067C9.47996 15.8667 9.65329 15.6933 9.67996 15.4667L9.87996 13.7067C10.68 13.44 11.4 13.0267 12 12.48L13.6133 13.1867C13.8133 13.28 14.0666 13.2267 14.2 13.0533C14.7333 12.4 15.16 11.6667 15.4666 10.8667C15.5421 10.6542 15.4721 10.4173 15.2933 10.28L13.8666 9.24C13.96 8.84 14 8.42667 14 8ZM7.99996 10C6.89329 10 5.99996 9.10667 5.99996 8C5.99996 6.89333 6.89329 6 7.99996 6C9.10662 6 9.99996 6.89333 9.99996 8C9.99996 9.10667 9.10662 10 7.99996 10Z" fill="currentColor"/>
</svg>
