<svg width="16" height="16" viewBox="0 0 16 16" fill="none" xmlns="http://www.w3.org/2000/svg">
    <path fill-rule="evenodd" clip-rule="evenodd" d="M11.6922 8.61527C12.0078 8.61527 12.2679 8.85283 12.3034 9.15889L12.3076 9.23066V11.0768H14.1537L14.2255 11.081C14.5316 11.1165 14.7691 11.3766 14.7691 11.6922C14.7691 12.0078 14.5316 12.2679 14.2255 12.3034L14.1537 12.3076H12.3076V14.1537L12.3034 14.2255C12.2679 14.5316 12.0078 14.7691 11.6922 14.7691C11.3766 14.7691 11.1165 14.5316 11.081 14.2255L11.0768 14.1537V12.3076H9.23066L9.15889 12.3034C8.85283 12.2679 8.61527 12.0078 8.61527 11.6922C8.61527 11.3766 8.85283 11.1165 9.15889 11.081L9.23066 11.0768H11.0768V9.23066L11.081 9.15889C11.1165 8.85283 11.3766 8.61527 11.6922 8.61527ZM6.76912 8.61527C7.10899 8.61527 7.3845 8.89079 7.3845 9.23066V12.923C7.3845 13.2628 7.10899 13.5383 6.76912 13.5383H3.07681C2.73694 13.5383 2.46143 13.2628 2.46143 12.923V9.23066C2.46143 8.89079 2.73694 8.61527 3.07681 8.61527H6.76912ZM6.76912 2.46143C7.10899 2.46143 7.3845 2.73694 7.3845 3.07681V6.76912C7.3845 7.10899 7.10899 7.3845 6.76912 7.3845H3.07681C2.73694 7.3845 2.46143 7.10899 2.46143 6.76912V3.07681C2.46143 2.73694 2.73694 2.46143 3.07681 2.46143H6.76912ZM12.923 2.46143C13.2628 2.46143 13.5383 2.73694 13.5383 3.07681V6.76912C13.5383 7.10899 13.2628 7.3845 12.923 7.3845H9.23066C8.89079 7.3845 8.61527 7.10899 8.61527 6.76912V3.07681C8.61527 2.73694 8.89079 2.46143 9.23066 2.46143H12.923Z" fill="#68737D" />
</svg>
    