<svg width="26" height="26" viewBox="0 0 26 26" fill="none" xmlns="http://www.w3.org/2000/svg">
<path fill-rule="evenodd" clip-rule="evenodd" d="M11.027 21H5.973C5.436 21 5 20.523 5 19.935V17.065C5 16.475 5.436 16 5.973 16H11.027C11.564 16 12 16.476 12 17.065V19.935C12 20.523 11.564 21 11.027 21ZM11.024 14H5.977C5.437 14 5 13.577 5 13.055V5.945C5 5.425 5.438 5 5.977 5H11.024C11.564 5 12 5.424 12 5.946V13.056C12 13.577 11.563 14 11.024 14ZM14.979 5H20.021C20.561 5 21 5.478 21 6.069V8.932C21 9.522 20.561 10 20.021 10H14.979C14.439 10 14 9.522 14 8.932V6.07C14 5.48 14.439 5.001 14.979 5.001M14.972 12H20.028C20.565 12 21 12.42 21 12.94V20.06C21 20.579 20.565 21 20.028 21H14.972C14.435 21 14 20.579 14 20.06V12.94C14 12.42 14.435 12 14.972 12Z" fill="#336179"/>
</svg>
