<svg width="227" height="151" viewBox="0 0 227 151" fill="none" xmlns="http://www.w3.org/2000/svg">
<rect width="226" height="150.667" transform="translate(0.165527)" fill="white"/>
<path d="M38.4043 93.1088H201.927C201.927 113.518 185.382 130.063 164.973 130.063H75.3586C54.9493 130.063 38.4043 113.518 38.4043 93.1088Z" fill="#F8F9F9"/>
<path d="M38.4043 93.1088H201.927C201.927 113.518 185.382 130.063 164.973 130.063H75.3586C54.9493 130.063 38.4043 113.518 38.4043 93.1088Z" fill="url(#paint0_linear_4415_34592)"/>
<path fill-rule="evenodd" clip-rule="evenodd" d="M34.4157 103.271H200.542C203.797 96.571 205.622 89.048 205.622 81.0987C205.622 53.0359 182.873 30.2866 154.81 30.2866C145.169 30.2866 136.155 32.9716 128.476 37.6345C107.188 47.6046 85.5208 48.7637 73.5106 49.2257H60.1147C40.7259 49.2257 29.1655 65.4053 29.1655 84.7941C29.1655 91.5737 31.0872 97.9044 34.4157 103.271Z" fill="url(#paint1_linear_4415_34592)"/>
<g style="mix-blend-mode:multiply" opacity="0.5">
<path fill-rule="evenodd" clip-rule="evenodd" d="M109.166 117.502C109.27 117.534 109.365 117.587 109.447 117.658C109.528 117.73 109.593 117.818 109.638 117.916C109.682 118.015 109.705 118.122 109.705 118.23C109.705 118.338 109.682 118.445 109.637 118.544C109.416 119.067 108.899 118.99 108.44 118.902C107.05 118.7 105.638 118.691 104.245 118.874C101.3 119.215 98.5379 120.164 95.6902 120.829C92.8934 121.602 89.9338 121.556 87.162 120.698C84.5192 119.79 81.9962 118.59 79.3467 117.66C77.0204 116.852 74.5811 115.993 72.0734 116.471C69.6791 116.92 67.59 118.326 65.355 119.246C60.7621 121.064 55.791 121.716 50.8846 121.147C48.5847 120.987 46.3156 120.526 44.1358 119.775C42.8868 119.309 41.2012 118.687 40.4511 117.486C40.1079 116.93 40.0813 116.049 40.74 115.705C41.3987 115.361 42.2004 115.84 42.7908 116.041C45.3523 116.884 48.0107 117.398 50.702 117.569C53.3018 117.826 55.9243 117.734 58.5001 117.297C60.857 116.805 63.1351 115.991 65.2703 114.878C67.4869 113.775 69.718 112.618 72.2134 112.364C74.7088 112.109 77.1878 112.878 79.5208 113.83C81.9897 114.808 84.3511 115.977 86.7104 117.159C88.8946 118.351 91.3687 118.907 93.8528 118.766C98.9816 118.453 104.003 116.521 109.166 117.502Z" fill="#E6EBEE"/>
<path fill-rule="evenodd" clip-rule="evenodd" d="M109.166 117.502C109.27 117.534 109.365 117.587 109.447 117.658C109.528 117.73 109.593 117.818 109.638 117.916C109.682 118.015 109.705 118.122 109.705 118.23C109.705 118.338 109.682 118.445 109.637 118.544C109.416 119.067 108.899 118.99 108.44 118.902C107.05 118.7 105.638 118.691 104.245 118.874C101.3 119.215 98.5379 120.164 95.6902 120.829C92.8934 121.602 89.9338 121.556 87.162 120.698C84.5192 119.79 81.9962 118.59 79.3467 117.66C77.0204 116.852 74.5811 115.993 72.0734 116.471C69.6791 116.92 67.59 118.326 65.355 119.246C60.7621 121.064 55.791 121.716 50.8846 121.147C48.5847 120.987 46.3156 120.526 44.1358 119.775C42.8868 119.309 41.2012 118.687 40.4511 117.486C40.1079 116.93 40.0813 116.049 40.74 115.705C41.3987 115.361 42.2004 115.84 42.7908 116.041C45.3523 116.884 48.0107 117.398 50.702 117.569C53.3018 117.826 55.9243 117.734 58.5001 117.297C60.857 116.805 63.1351 115.991 65.2703 114.878C67.4869 113.775 69.718 112.618 72.2134 112.364C74.7088 112.109 77.1878 112.878 79.5208 113.83C81.9897 114.808 84.3511 115.977 86.7104 117.159C88.8946 118.351 91.3687 118.907 93.8528 118.766C98.9816 118.453 104.003 116.521 109.166 117.502Z" fill="url(#paint2_linear_4415_34592)" fill-opacity="0.8" style="mix-blend-mode:color-burn"/>
<path fill-rule="evenodd" clip-rule="evenodd" d="M109.166 117.502C109.27 117.534 109.365 117.587 109.447 117.658C109.528 117.73 109.593 117.818 109.638 117.916C109.682 118.015 109.705 118.122 109.705 118.23C109.705 118.338 109.682 118.445 109.637 118.544C109.416 119.067 108.899 118.99 108.44 118.902C107.05 118.7 105.638 118.691 104.245 118.874C101.3 119.215 98.5379 120.164 95.6902 120.829C92.8934 121.602 89.9338 121.556 87.162 120.698C84.5192 119.79 81.9962 118.59 79.3467 117.66C77.0204 116.852 74.5811 115.993 72.0734 116.471C69.6791 116.92 67.59 118.326 65.355 119.246C60.7621 121.064 55.791 121.716 50.8846 121.147C48.5847 120.987 46.3156 120.526 44.1358 119.775C42.8868 119.309 41.2012 118.687 40.4511 117.486C40.1079 116.93 40.0813 116.049 40.74 115.705C41.3987 115.361 42.2004 115.84 42.7908 116.041C45.3523 116.884 48.0107 117.398 50.702 117.569C53.3018 117.826 55.9243 117.734 58.5001 117.297C60.857 116.805 63.1351 115.991 65.2703 114.878C67.4869 113.775 69.718 112.618 72.2134 112.364C74.7088 112.109 77.1878 112.878 79.5208 113.83C81.9897 114.808 84.3511 115.977 86.7104 117.159C88.8946 118.351 91.3687 118.907 93.8528 118.766C98.9816 118.453 104.003 116.521 109.166 117.502Z" fill="#2F3941" fill-opacity="0.15" style="mix-blend-mode:multiply"/>
</g>
<g style="mix-blend-mode:multiply" opacity="0.5">
<path fill-rule="evenodd" clip-rule="evenodd" d="M160.212 129.282C160.326 129.316 160.431 129.375 160.521 129.453C160.611 129.532 160.683 129.629 160.732 129.738C160.781 129.847 160.806 129.965 160.806 130.084C160.806 130.204 160.78 130.322 160.731 130.43C160.487 131.008 159.917 130.923 159.411 130.826C157.876 130.603 156.319 130.592 154.782 130.795C151.533 131.171 148.485 132.219 145.343 132.952C142.257 133.804 138.992 133.754 135.933 132.808C133.018 131.806 130.234 130.482 127.31 129.456C124.744 128.564 122.052 127.616 119.286 128.143C116.644 128.639 114.339 130.191 111.873 131.206C106.805 133.211 101.32 133.931 95.9071 133.302C93.3694 133.126 90.8659 132.618 88.4608 131.789C87.0828 131.275 85.2229 130.588 84.3953 129.263C84.0167 128.65 83.9873 127.677 84.7141 127.298C85.4409 126.919 86.3254 127.447 86.9768 127.669C89.803 128.599 92.7362 129.166 95.7055 129.355C98.5741 129.638 101.468 129.537 104.31 129.055C106.91 128.512 109.424 127.614 111.779 126.386C114.225 125.168 116.687 123.893 119.44 123.612C122.193 123.331 124.928 124.179 127.503 125.229C130.227 126.309 132.832 127.599 135.435 128.903C137.845 130.217 140.575 130.831 143.316 130.675C148.975 130.33 154.515 128.199 160.212 129.282Z" fill="#E6EBEE"/>
<path fill-rule="evenodd" clip-rule="evenodd" d="M160.212 129.282C160.326 129.316 160.431 129.375 160.521 129.453C160.611 129.532 160.683 129.629 160.732 129.738C160.781 129.847 160.806 129.965 160.806 130.084C160.806 130.204 160.78 130.322 160.731 130.43C160.487 131.008 159.917 130.923 159.411 130.826C157.876 130.603 156.319 130.592 154.782 130.795C151.533 131.171 148.485 132.219 145.343 132.952C142.257 133.804 138.992 133.754 135.933 132.808C133.018 131.806 130.234 130.482 127.31 129.456C124.744 128.564 122.052 127.616 119.286 128.143C116.644 128.639 114.339 130.191 111.873 131.206C106.805 133.211 101.32 133.931 95.9071 133.302C93.3694 133.126 90.8659 132.618 88.4608 131.789C87.0828 131.275 85.2229 130.588 84.3953 129.263C84.0167 128.65 83.9873 127.677 84.7141 127.298C85.4409 126.919 86.3254 127.447 86.9768 127.669C89.803 128.599 92.7362 129.166 95.7055 129.355C98.5741 129.638 101.468 129.537 104.31 129.055C106.91 128.512 109.424 127.614 111.779 126.386C114.225 125.168 116.687 123.893 119.44 123.612C122.193 123.331 124.928 124.179 127.503 125.229C130.227 126.309 132.832 127.599 135.435 128.903C137.845 130.217 140.575 130.831 143.316 130.675C148.975 130.33 154.515 128.199 160.212 129.282Z" fill="url(#paint3_linear_4415_34592)" fill-opacity="0.8" style="mix-blend-mode:color-burn"/>
<path fill-rule="evenodd" clip-rule="evenodd" d="M160.212 129.282C160.326 129.316 160.431 129.375 160.521 129.453C160.611 129.532 160.683 129.629 160.732 129.738C160.781 129.847 160.806 129.965 160.806 130.084C160.806 130.204 160.78 130.322 160.731 130.43C160.487 131.008 159.917 130.923 159.411 130.826C157.876 130.603 156.319 130.592 154.782 130.795C151.533 131.171 148.485 132.219 145.343 132.952C142.257 133.804 138.992 133.754 135.933 132.808C133.018 131.806 130.234 130.482 127.31 129.456C124.744 128.564 122.052 127.616 119.286 128.143C116.644 128.639 114.339 130.191 111.873 131.206C106.805 133.211 101.32 133.931 95.9071 133.302C93.3694 133.126 90.8659 132.618 88.4608 131.789C87.0828 131.275 85.2229 130.588 84.3953 129.263C84.0167 128.65 83.9873 127.677 84.7141 127.298C85.4409 126.919 86.3254 127.447 86.9768 127.669C89.803 128.599 92.7362 129.166 95.7055 129.355C98.5741 129.638 101.468 129.537 104.31 129.055C106.91 128.512 109.424 127.614 111.779 126.386C114.225 125.168 116.687 123.893 119.44 123.612C122.193 123.331 124.928 124.179 127.503 125.229C130.227 126.309 132.832 127.599 135.435 128.903C137.845 130.217 140.575 130.831 143.316 130.675C148.975 130.33 154.515 128.199 160.212 129.282Z" fill="#2F3941" fill-opacity="0.15" style="mix-blend-mode:multiply"/>
</g>
<g style="mix-blend-mode:multiply" opacity="0.5">
<path fill-rule="evenodd" clip-rule="evenodd" d="M160.212 102.888C160.326 102.923 160.431 102.981 160.521 103.06C160.611 103.139 160.683 103.236 160.732 103.345C160.781 103.453 160.806 103.571 160.806 103.691C160.806 103.81 160.78 103.928 160.731 104.037C160.487 104.614 159.917 104.53 159.411 104.433C157.876 104.209 156.319 104.199 154.782 104.401C151.533 104.777 148.485 105.825 145.343 106.559C142.257 107.411 138.992 107.361 135.933 106.414C133.018 105.412 130.234 104.089 127.31 103.062C124.744 102.171 122.052 101.223 119.286 101.75C116.644 102.246 114.339 103.797 111.873 104.812C106.805 106.817 101.32 107.538 95.9071 106.909C93.3694 106.733 90.8659 106.224 88.4608 105.396C87.0828 104.881 85.2229 104.195 84.3953 102.869C84.0167 102.257 83.9873 101.284 84.7141 100.905C85.4409 100.525 86.3254 101.054 86.9768 101.275C89.803 102.206 92.7362 102.772 95.7055 102.962C98.5741 103.245 101.468 103.144 104.31 102.662C106.91 102.119 109.424 101.22 111.779 99.9923C114.225 98.775 116.687 97.4992 119.44 97.2185C122.193 96.9377 124.928 97.7853 127.503 98.8358C130.227 99.9153 132.832 101.205 135.435 102.509C137.845 103.824 140.575 104.438 143.316 104.282C148.975 103.937 154.515 101.805 160.212 102.888Z" fill="#E6EBEE"/>
<path fill-rule="evenodd" clip-rule="evenodd" d="M160.212 102.888C160.326 102.923 160.431 102.981 160.521 103.06C160.611 103.139 160.683 103.236 160.732 103.345C160.781 103.453 160.806 103.571 160.806 103.691C160.806 103.81 160.78 103.928 160.731 104.037C160.487 104.614 159.917 104.53 159.411 104.433C157.876 104.209 156.319 104.199 154.782 104.401C151.533 104.777 148.485 105.825 145.343 106.559C142.257 107.411 138.992 107.361 135.933 106.414C133.018 105.412 130.234 104.089 127.31 103.062C124.744 102.171 122.052 101.223 119.286 101.75C116.644 102.246 114.339 103.797 111.873 104.812C106.805 106.817 101.32 107.538 95.9071 106.909C93.3694 106.733 90.8659 106.224 88.4608 105.396C87.0828 104.881 85.2229 104.195 84.3953 102.869C84.0167 102.257 83.9873 101.284 84.7141 100.905C85.4409 100.525 86.3254 101.054 86.9768 101.275C89.803 102.206 92.7362 102.772 95.7055 102.962C98.5741 103.245 101.468 103.144 104.31 102.662C106.91 102.119 109.424 101.22 111.779 99.9923C114.225 98.775 116.687 97.4992 119.44 97.2185C122.193 96.9377 124.928 97.7853 127.503 98.8358C130.227 99.9153 132.832 101.205 135.435 102.509C137.845 103.824 140.575 104.438 143.316 104.282C148.975 103.937 154.515 101.805 160.212 102.888Z" fill="url(#paint4_linear_4415_34592)" fill-opacity="0.8" style="mix-blend-mode:color-burn"/>
<path fill-rule="evenodd" clip-rule="evenodd" d="M160.212 102.888C160.326 102.923 160.431 102.981 160.521 103.06C160.611 103.139 160.683 103.236 160.732 103.345C160.781 103.453 160.806 103.571 160.806 103.691C160.806 103.81 160.78 103.928 160.731 104.037C160.487 104.614 159.917 104.53 159.411 104.433C157.876 104.209 156.319 104.199 154.782 104.401C151.533 104.777 148.485 105.825 145.343 106.559C142.257 107.411 138.992 107.361 135.933 106.414C133.018 105.412 130.234 104.089 127.31 103.062C124.744 102.171 122.052 101.223 119.286 101.75C116.644 102.246 114.339 103.797 111.873 104.812C106.805 106.817 101.32 107.538 95.9071 106.909C93.3694 106.733 90.8659 106.224 88.4608 105.396C87.0828 104.881 85.2229 104.195 84.3953 102.869C84.0167 102.257 83.9873 101.284 84.7141 100.905C85.4409 100.525 86.3254 101.054 86.9768 101.275C89.803 102.206 92.7362 102.772 95.7055 102.962C98.5741 103.245 101.468 103.144 104.31 102.662C106.91 102.119 109.424 101.22 111.779 99.9923C114.225 98.775 116.687 97.4992 119.44 97.2185C122.193 96.9377 124.928 97.7853 127.503 98.8358C130.227 99.9153 132.832 101.205 135.435 102.509C137.845 103.824 140.575 104.438 143.316 104.282C148.975 103.937 154.515 101.805 160.212 102.888Z" fill="#2F3941" fill-opacity="0.15" style="mix-blend-mode:multiply"/>
</g>
<g style="mix-blend-mode:soft-light">
<path fill-rule="evenodd" clip-rule="evenodd" d="M124.662 89.9802C124.782 90.0166 124.893 90.0781 124.987 90.1607C125.081 90.2434 125.157 90.3452 125.209 90.4593C125.26 90.5735 125.287 90.6974 125.286 90.8227C125.286 90.948 125.259 91.0718 125.207 91.1858C124.951 91.7918 124.353 91.703 123.822 91.6012C122.212 91.367 120.577 91.356 118.964 91.5685C115.554 91.9627 112.356 93.0627 109.058 93.8324C105.82 94.7269 102.393 94.6743 99.1831 93.6808C96.123 92.6295 93.2015 91.2401 90.1336 90.1629C87.4399 89.2274 84.6154 88.2324 81.7116 88.7854C78.9393 89.306 76.5202 90.9344 73.9322 91.9995C68.614 94.1039 62.8578 94.8598 57.1766 94.1999C54.5134 94.0153 51.886 93.4814 49.3619 92.6121C47.9157 92.0719 45.9639 91.3516 45.0953 89.9607C44.6979 89.3178 44.6671 88.2968 45.4298 87.8988C46.1925 87.5008 47.1208 88.0552 47.8045 88.2877C50.7705 89.2641 53.8488 89.8589 56.9651 90.0577C59.9755 90.3546 63.0122 90.2488 65.9947 89.7429C68.7239 89.1727 71.3618 88.23 73.8342 86.9412C76.4008 85.6637 78.9843 84.3248 81.8738 84.0301C84.7633 83.7355 87.6337 84.625 90.3352 85.7275C93.194 86.8604 95.9284 88.214 98.6602 89.5826C101.189 90.9623 104.054 91.6067 106.931 91.443C112.869 91.081 118.684 88.8441 124.662 89.9802Z" fill="#E6EBEE"/>
<path fill-rule="evenodd" clip-rule="evenodd" d="M124.662 89.9802C124.782 90.0166 124.893 90.0781 124.987 90.1607C125.081 90.2434 125.157 90.3452 125.209 90.4593C125.26 90.5735 125.287 90.6974 125.286 90.8227C125.286 90.948 125.259 91.0718 125.207 91.1858C124.951 91.7918 124.353 91.703 123.822 91.6012C122.212 91.367 120.577 91.356 118.964 91.5685C115.554 91.9627 112.356 93.0627 109.058 93.8324C105.82 94.7269 102.393 94.6743 99.1831 93.6808C96.123 92.6295 93.2015 91.2401 90.1336 90.1629C87.4399 89.2274 84.6154 88.2324 81.7116 88.7854C78.9393 89.306 76.5202 90.9344 73.9322 91.9995C68.614 94.1039 62.8578 94.8598 57.1766 94.1999C54.5134 94.0153 51.886 93.4814 49.3619 92.6121C47.9157 92.0719 45.9639 91.3516 45.0953 89.9607C44.6979 89.3178 44.6671 88.2968 45.4298 87.8988C46.1925 87.5008 47.1208 88.0552 47.8045 88.2877C50.7705 89.2641 53.8488 89.8589 56.9651 90.0577C59.9755 90.3546 63.0122 90.2488 65.9947 89.7429C68.7239 89.1727 71.3618 88.23 73.8342 86.9412C76.4008 85.6637 78.9843 84.3248 81.8738 84.0301C84.7633 83.7355 87.6337 84.625 90.3352 85.7275C93.194 86.8604 95.9284 88.214 98.6602 89.5826C101.189 90.9623 104.054 91.6067 106.931 91.443C112.869 91.081 118.684 88.8441 124.662 89.9802Z" fill="url(#paint5_linear_4415_34592)" fill-opacity="0.8" style="mix-blend-mode:color-burn"/>
<path fill-rule="evenodd" clip-rule="evenodd" d="M124.662 89.9802C124.782 90.0166 124.893 90.0781 124.987 90.1607C125.081 90.2434 125.157 90.3452 125.209 90.4593C125.26 90.5735 125.287 90.6974 125.286 90.8227C125.286 90.948 125.259 91.0718 125.207 91.1858C124.951 91.7918 124.353 91.703 123.822 91.6012C122.212 91.367 120.577 91.356 118.964 91.5685C115.554 91.9627 112.356 93.0627 109.058 93.8324C105.82 94.7269 102.393 94.6743 99.1831 93.6808C96.123 92.6295 93.2015 91.2401 90.1336 90.1629C87.4399 89.2274 84.6154 88.2324 81.7116 88.7854C78.9393 89.306 76.5202 90.9344 73.9322 91.9995C68.614 94.1039 62.8578 94.8598 57.1766 94.1999C54.5134 94.0153 51.886 93.4814 49.3619 92.6121C47.9157 92.0719 45.9639 91.3516 45.0953 89.9607C44.6979 89.3178 44.6671 88.2968 45.4298 87.8988C46.1925 87.5008 47.1208 88.0552 47.8045 88.2877C50.7705 89.2641 53.8488 89.8589 56.9651 90.0577C59.9755 90.3546 63.0122 90.2488 65.9947 89.7429C68.7239 89.1727 71.3618 88.23 73.8342 86.9412C76.4008 85.6637 78.9843 84.3248 81.8738 84.0301C84.7633 83.7355 87.6337 84.625 90.3352 85.7275C93.194 86.8604 95.9284 88.214 98.6602 89.5826C101.189 90.9623 104.054 91.6067 106.931 91.443C112.869 91.081 118.684 88.8441 124.662 89.9802Z" fill="#2F3941" fill-opacity="0.15" style="mix-blend-mode:multiply"/>
</g>
<rect x="152.131" y="20.4151" width="38.321" height="22.4009" rx="11.2005" fill="#001825" stroke="#F4AC1A" stroke-width="0.923856"/>
<circle cx="171.293" cy="31.6154" r="5.3684" fill="#E34F32"/>
<path d="M173.698 31.6154L170.088 33.6995L170.088 29.5313L173.698 31.6154Z" fill="white"/>
<path d="M173.934 55.1156C173.941 55.1488 173.971 55.1604 174.045 55.1898C174.178 55.2425 174.312 55.2951 174.443 55.3523C174.464 55.3614 174.484 55.3934 174.487 55.4168C174.502 55.5557 174.509 55.6956 174.525 55.8343C174.53 55.8773 174.526 55.9002 174.487 55.9244C174.333 56.0215 174.18 56.1228 174.029 56.2215C174.067 56.3834 174.257 56.7475 174.36 56.8493C174.52 56.7819 174.686 56.7155 174.848 56.6428C174.899 56.6202 174.924 56.6245 174.967 56.6646C175.064 56.7577 175.171 56.8422 175.279 56.9241C175.322 56.9573 175.345 56.9832 175.331 57.043C175.295 57.1978 175.267 57.3548 175.233 57.5103C175.224 57.5521 175.232 57.5782 175.274 57.591C175.468 57.6511 175.663 57.711 175.858 57.7709C175.906 57.7856 175.913 57.7464 175.925 57.7183C175.986 57.5762 176.047 57.4342 176.103 57.29C176.124 57.2361 176.152 57.2181 176.211 57.2165C176.367 57.2116 176.523 57.1966 176.691 57.1848L177.013 57.6715C177.239 57.5968 177.443 57.4853 177.636 57.3371L177.415 56.8098C177.531 56.6639 177.641 56.5311 177.743 56.3924C177.773 56.3522 177.796 56.3456 177.84 56.3553C177.994 56.389 178.148 56.4178 178.302 56.4504C178.335 56.4575 178.36 56.4588 178.377 56.4225C178.463 56.2394 178.533 56.0516 178.561 55.8497C178.567 55.8047 178.551 55.7869 178.513 55.7716C178.364 55.71 178.215 55.6455 178.065 55.5845C178.029 55.5698 178.014 55.5543 178.01 55.5102C177.999 55.3569 177.981 55.204 177.959 55.0519C177.953 55.0131 177.966 54.998 177.993 54.98C178.146 54.8796 178.298 54.7781 178.455 54.6744C178.375 54.4525 178.274 54.2465 178.129 54.057L177.578 54.2858L177.127 53.9131C177.154 53.7759 177.187 53.6185 177.217 53.4605C177.242 53.3307 177.261 53.3478 177.13 53.2931C177.117 53.2879 177.107 53.2784 177.096 53.2705L176.745 53.1651C176.717 53.162 176.689 53.1631 176.663 53.155C176.596 53.1338 176.558 53.149 176.531 53.2205C176.476 53.3694 176.411 53.515 176.346 53.6604C176.338 53.6794 176.31 53.6993 176.289 53.7019C176.152 53.7192 176.013 53.7247 175.878 53.749C175.811 53.7609 175.784 53.7429 175.751 53.6914C175.658 53.5453 175.559 53.4031 175.453 53.2449L174.831 53.5701C174.848 53.6112 174.857 53.6351 174.866 53.6583C174.927 53.803 174.986 53.9484 175.049 54.092C175.067 54.1327 175.058 54.1557 175.03 54.1888C174.934 54.3028 174.845 54.4229 174.749 54.5376C174.734 54.5554 174.698 54.5679 174.674 54.5639C174.547 54.5419 174.421 54.5129 174.295 54.4883C174.192 54.4685 174.154 54.4615 174.122 54.4948L173.934 55.1156ZM174.853 55.1013C174.936 54.7784 175.128 54.494 175.397 54.2964C175.666 54.0988 175.996 54.0004 176.33 54.0179C176.664 54.0353 176.981 54.1676 177.228 54.3922C177.475 54.6168 177.637 54.9198 177.684 55.2495C177.732 55.5792 177.664 55.9153 177.491 56.2005C177.318 56.4856 177.052 56.7023 176.736 56.8134C176.421 56.9246 176.077 56.9235 175.763 56.8101C175.448 56.6968 175.183 56.4784 175.012 56.1921C174.914 56.0297 174.85 55.8497 174.823 55.6625C174.796 55.4753 174.806 55.2845 174.853 55.1013Z" fill="#F4AC1A"/>
<path d="M113.191 45.5925C113.783 45.1117 118.358 47.1197 118.301 47.818C118.243 48.5162 121.493 55.2904 121.493 55.2904L127.111 50.8125C127.161 50.6509 127.693 48.9093 127.719 48.598C127.746 48.2708 128.696 47.7003 129.136 47.7831C129.576 47.8658 128.76 48.4205 128.706 48.5212C128.559 48.7975 129.125 48.9013 129.125 48.9013C129.125 48.9013 130.728 48.3876 130.763 47.8639C130.798 47.3402 131.895 48.7796 131.761 48.9801C131.627 49.1806 129.013 51.2874 128.636 51.7452C128.636 51.7452 121.37 60.0496 120.854 60.2671C120.4 60.4576 118.781 57.5957 117.252 55.6954C115.722 53.7951 111.342 47.0958 113.191 45.5925Z" fill="#E6EBEE"/>
<path d="M113.191 45.5925C113.783 45.1117 118.358 47.1197 118.301 47.818C118.243 48.5162 121.493 55.2904 121.493 55.2904L127.111 50.8125C127.161 50.6509 127.693 48.9093 127.719 48.598C127.746 48.2708 128.696 47.7003 129.136 47.7831C129.576 47.8658 128.76 48.4205 128.706 48.5212C128.559 48.7975 129.125 48.9013 129.125 48.9013C129.125 48.9013 130.728 48.3876 130.763 47.8639C130.798 47.3402 131.895 48.7796 131.761 48.9801C131.627 49.1806 129.013 51.2874 128.636 51.7452C128.636 51.7452 121.37 60.0496 120.854 60.2671C120.4 60.4576 118.781 57.5957 117.252 55.6954C115.722 53.7951 111.342 47.0958 113.191 45.5925Z" fill="url(#paint6_linear_4415_34592)" fill-opacity="0.8" style="mix-blend-mode:color-burn"/>
<path d="M113.191 45.5925C113.783 45.1117 118.358 47.1197 118.301 47.818C118.243 48.5162 121.493 55.2904 121.493 55.2904L127.111 50.8125C127.161 50.6509 127.693 48.9093 127.719 48.598C127.746 48.2708 128.696 47.7003 129.136 47.7831C129.576 47.8658 128.76 48.4205 128.706 48.5212C128.559 48.7975 129.125 48.9013 129.125 48.9013C129.125 48.9013 130.728 48.3876 130.763 47.8639C130.798 47.3402 131.895 48.7796 131.761 48.9801C131.627 49.1806 129.013 51.2874 128.636 51.7452C128.636 51.7452 121.37 60.0496 120.854 60.2671C120.4 60.4576 118.781 57.5957 117.252 55.6954C115.722 53.7951 111.342 47.0958 113.191 45.5925Z" fill="#2F3941" fill-opacity="0.15" style="mix-blend-mode:multiply"/>
<path d="M98.5305 106.658C98.5305 106.658 97.5327 107.633 97.5088 107.99C97.4848 108.347 97.421 112.18 97.828 112.535C98.2351 112.89 99.4334 113.145 99.0483 113.548C98.7579 113.847 96.519 113.787 95.0354 113.705C94.6023 113.681 94.0596 110.227 93.8879 109.715C93.6395 108.978 93.0339 107.321 93.2604 106.803C93.3701 106.553 93.8979 106.038 94.6422 105.557C95.4245 105.052 96.1728 103.927 96.1728 103.927L98.5305 106.658Z" fill="#E6EBEE"/>
<path d="M98.5305 106.658C98.5305 106.658 97.5327 107.633 97.5088 107.99C97.4848 108.347 97.421 112.18 97.828 112.535C98.2351 112.89 99.4334 113.145 99.0483 113.548C98.7579 113.847 96.519 113.787 95.0354 113.705C94.6023 113.681 94.0596 110.227 93.8879 109.715C93.6395 108.978 93.0339 107.321 93.2604 106.803C93.3701 106.553 93.8979 106.038 94.6422 105.557C95.4245 105.052 96.1728 103.927 96.1728 103.927L98.5305 106.658Z" fill="url(#paint7_linear_4415_34592)" fill-opacity="0.8" style="mix-blend-mode:color-burn"/>
<path d="M98.5305 106.658C98.5305 106.658 97.5327 107.633 97.5088 107.99C97.4848 108.347 97.421 112.18 97.828 112.535C98.2351 112.89 99.4334 113.145 99.0483 113.548C98.7579 113.847 96.519 113.787 95.0354 113.705C94.6023 113.681 94.0596 110.227 93.8879 109.715C93.6395 108.978 93.0339 107.321 93.2604 106.803C93.3701 106.553 93.8979 106.038 94.6422 105.557C95.4245 105.052 96.1728 103.927 96.1728 103.927L98.5305 106.658Z" fill="#2F3941" fill-opacity="0.15" style="mix-blend-mode:multiply"/>
<path d="M108.872 108.926C108.872 108.926 107.974 111.45 107.974 111.457C107.908 111.856 107.646 112.844 107.646 113.207C107.646 114.573 113.805 112.048 112.425 111.443C112.301 111.389 111.909 110.951 111.868 110.486C111.804 109.77 112.387 108.872 112.387 108.872L108.872 108.926Z" fill="#E6EBEE"/>
<path d="M108.872 108.926C108.872 108.926 107.974 111.45 107.974 111.457C107.908 111.856 107.646 112.844 107.646 113.207C107.646 114.573 113.805 112.048 112.425 111.443C112.301 111.389 111.909 110.951 111.868 110.486C111.804 109.77 112.387 108.872 112.387 108.872L108.872 108.926Z" fill="url(#paint8_linear_4415_34592)" fill-opacity="0.8" style="mix-blend-mode:color-burn"/>
<path d="M108.872 108.926C108.872 108.926 107.974 111.45 107.974 111.457C107.908 111.856 107.646 112.844 107.646 113.207C107.646 114.573 113.805 112.048 112.425 111.443C112.301 111.389 111.909 110.951 111.868 110.486C111.804 109.77 112.387 108.872 112.387 108.872L108.872 108.926Z" fill="#2F3941" fill-opacity="0.15" style="mix-blend-mode:multiply"/>
<path d="M118.537 61.9332C118.537 61.9332 118.986 66.457 118.986 66.5218C118.986 73.8407 120.436 88.1352 120.161 89.5118C119.488 92.8675 112.242 109.987 112.242 109.987L108.326 109.519L112.529 88.8345L111.551 80.7745L108.893 64.4669L118.537 61.9332Z" fill="#206E6A"/>
<path d="M105.39 65.9346L104.648 70.224L102.638 87.8712L94.9809 105.119C94.9809 105.119 96.0585 107.629 97.6469 107.981L109.832 90.2713L117.402 67.6125L117.136 62.578L105.39 65.9346Z" fill="#2B8473"/>
<path d="M120.097 51.1618L114.667 51.7154C114.667 51.7154 114.418 47.2645 114.418 45.1417C114.418 42.5661 114.638 39.2483 114.949 39.3202C115.822 39.5197 116.998 40.0025 117.698 40.9641C120.12 44.2918 120.097 51.1618 120.097 51.1618Z" fill="#C72A1C"/>
<path d="M94.6889 105.537C94.6889 105.537 96.9908 112.015 97.8907 112.327C98.1302 112.411 99.2786 112.626 99.4951 113.125C99.56 113.278 99.4951 113.789 99.4951 113.789H94.6979C94.6979 113.789 94.0913 110.934 93.8518 109.68C93.8518 109.68 92.5817 106.615 92.7234 106.337C92.8651 106.059 94.6889 105.537 94.6889 105.537Z" fill="#2F3941"/>
<path d="M107.299 113.659L108.004 111.431C108.004 111.431 109.486 112.058 110.226 111.953C110.967 111.848 112.413 111.431 112.413 111.431C115.37 112.404 117.791 112.876 117.35 113.659H107.299Z" fill="#2F3941"/>
<path fill-rule="evenodd" clip-rule="evenodd" d="M112.799 34.7837C112.843 34.7982 112.887 34.8126 112.93 34.8269C114.006 35.1811 114.776 35.4343 115.252 35.1647C115.757 34.8793 115.814 33.6717 115.876 32.3613C115.893 31.9955 115.911 31.6217 115.939 31.2578C115.955 31.045 116.161 30.9185 116.362 30.7946C116.581 30.6603 116.794 30.529 116.756 30.2942C116.416 28.2071 114.717 26.2375 113.727 25.182C111.718 23.0394 104.545 23.7929 105.526 28.8417C105.867 30.594 106.999 31.936 108.398 32.9034L108.446 33.2978C108.371 33.2966 108.329 33.2967 108.329 33.2967C108.329 33.2967 108.34 41.1943 108.779 41.8771C109.238 42.5883 112.225 41.3409 113.589 40.7229C113.778 40.6372 113.93 40.4844 114.019 40.2915C114.108 40.0987 114.127 39.8783 114.073 39.6695C113.746 38.4061 113.089 35.8692 112.799 34.7837Z" fill="#E6EBEE"/>
<path fill-rule="evenodd" clip-rule="evenodd" d="M112.799 34.7837C112.843 34.7982 112.887 34.8126 112.93 34.8269C114.006 35.1811 114.776 35.4343 115.252 35.1647C115.757 34.8793 115.814 33.6717 115.876 32.3613C115.893 31.9955 115.911 31.6217 115.939 31.2578C115.955 31.045 116.161 30.9185 116.362 30.7946C116.581 30.6603 116.794 30.529 116.756 30.2942C116.416 28.2071 114.717 26.2375 113.727 25.182C111.718 23.0394 104.545 23.7929 105.526 28.8417C105.867 30.594 106.999 31.936 108.398 32.9034L108.446 33.2978C108.371 33.2966 108.329 33.2967 108.329 33.2967C108.329 33.2967 108.34 41.1943 108.779 41.8771C109.238 42.5883 112.225 41.3409 113.589 40.7229C113.778 40.6372 113.93 40.4844 114.019 40.2915C114.108 40.0987 114.127 39.8783 114.073 39.6695C113.746 38.4061 113.089 35.8692 112.799 34.7837Z" fill="url(#paint9_linear_4415_34592)" fill-opacity="0.8" style="mix-blend-mode:color-burn"/>
<path fill-rule="evenodd" clip-rule="evenodd" d="M112.799 34.7837C112.843 34.7982 112.887 34.8126 112.93 34.8269C114.006 35.1811 114.776 35.4343 115.252 35.1647C115.757 34.8793 115.814 33.6717 115.876 32.3613C115.893 31.9955 115.911 31.6217 115.939 31.2578C115.955 31.045 116.161 30.9185 116.362 30.7946C116.581 30.6603 116.794 30.529 116.756 30.2942C116.416 28.2071 114.717 26.2375 113.727 25.182C111.718 23.0394 104.545 23.7929 105.526 28.8417C105.867 30.594 106.999 31.936 108.398 32.9034L108.446 33.2978C108.371 33.2966 108.329 33.2967 108.329 33.2967C108.329 33.2967 108.34 41.1943 108.779 41.8771C109.238 42.5883 112.225 41.3409 113.589 40.7229C113.778 40.6372 113.93 40.4844 114.019 40.2915C114.108 40.0987 114.127 39.8783 114.073 39.6695C113.746 38.4061 113.089 35.8692 112.799 34.7837Z" fill="#2F3941" fill-opacity="0.15" style="mix-blend-mode:multiply"/>
<path d="M111.859 27.4974C112.305 27.5438 112.752 27.4171 113.107 27.1434C112.903 27.587 112.266 27.7648 111.859 27.4974Z" fill="#2F3941"/>
<path d="M110.429 31.0667C110.778 30.7002 111.46 30.9018 111.373 31.4552C111.287 31.2953 111.15 31.1694 110.983 31.0982C110.8 31.0555 110.611 31.044 110.424 31.0644L110.429 31.0667Z" fill="#2F3941"/>
<path d="M110.432 31.0578C110.026 31.0202 109.534 30.2617 109.788 29.9276C109.805 30.123 109.876 30.3393 109.989 30.5408C110.125 30.736 110.276 30.9131 110.436 31.0646L110.432 31.0578Z" fill="#2F3941"/>
<path fill-rule="evenodd" clip-rule="evenodd" d="M113.391 24.0727C113.615 24.8046 111.897 25.9842 109.513 26.7603C109.968 27.5096 110.335 28.3641 110.565 29.2226C110.589 29.3117 110.611 29.4007 110.632 29.4896C110.239 29.072 109.757 28.892 109.411 29.0798C108.946 29.3316 108.902 30.1494 109.311 30.9064C109.682 31.5923 110.298 31.9929 110.756 31.8747C110.545 33.4356 109.733 34.6579 108.519 34.9831C106.669 35.4788 102.519 35.2258 102.195 34.9404C101.512 32.3908 103.822 25.6164 105.64 24.5115C106.313 23.9014 107.195 23.3388 108.214 23.0269C110.74 22.2544 113.159 23.3129 113.391 24.0727Z" fill="#101030"/>
<path fill-rule="evenodd" clip-rule="evenodd" d="M108.009 38.2746L107.93 39.4473C107.658 39.625 107.397 39.8115 107.145 40.0063C106.357 39.8494 105.486 39.8286 104.524 40.0663C104.166 40.1695 104.008 41.7301 103.964 43.6314C96.9024 55.4428 105.294 79.18 106.318 80.4103C107.077 81.5101 118.612 73.9582 122.344 71.2126L122.344 71.2124L122.351 71.2079C122.597 71.0267 122.804 70.8742 122.966 70.7554L123.084 70.6695C125.212 69.1114 124.462 67.8492 122.93 65.27C122.661 64.818 122.369 64.3255 122.063 63.7839L122.024 63.5473C120.948 57.022 118.763 43.7757 116.744 41.0529C116.503 40.7289 116.323 40.4753 116.178 40.2707L116.177 40.2706C115.859 39.8222 115.707 39.6091 115.46 39.4065L115.201 37.7558C112.987 38.7801 111.167 39.2462 110.045 39.0452C109.991 39.0298 109.933 39.0167 109.872 39.0063C109.688 38.9747 109.52 38.9501 109.366 38.9277C108.657 38.8239 108.257 38.7654 108.009 38.2746Z" fill="#E34F32"/>
<g filter="url(#filter0_d_4415_34592)">
<g filter="url(#filter1_d_4415_34592)">
<path d="M127.543 45.0121C127.126 44.5484 126.739 44.071 126.381 43.5857L117.953 51.1528C117.434 51.6173 117.564 52.6072 118.244 53.3614C118.923 54.1156 119.892 54.3528 120.411 53.8873L128.838 46.3202C128.397 45.9134 127.96 45.4768 127.543 45.0121Z" fill="#F8F9F9"/>
</g>
<path opacity="0.8" d="M127.711 44.8595C120.165 36.4631 120.899 23.5035 129.349 15.9135C137.8 8.3234 150.766 8.97711 158.311 17.3735C165.857 25.77 165.123 38.7296 156.673 46.3196C148.222 53.9097 135.256 53.2559 127.711 44.8595Z" fill="white"/>
<g filter="url(#filter2_d_4415_34592)">
<path d="M158.455 48.3152C148.901 56.8945 134.242 56.1531 125.714 46.6593C117.186 37.1656 118.017 22.5159 127.571 13.9366C137.125 5.35732 151.784 6.0978 160.313 15.5916C168.842 25.0853 168.001 39.7356 158.455 48.3152ZM156.673 46.3308C165.124 38.7418 165.859 25.7824 158.316 17.3851C150.773 8.98781 137.805 8.33203 129.354 15.9211C120.903 23.5101 120.167 36.4685 127.711 44.8668C135.255 53.2651 148.217 53.9187 156.669 46.3306L156.673 46.3308Z" fill="white"/>
</g>
<g filter="url(#filter3_d_4415_34592)">
<path d="M157.513 47.2712C148.538 55.3295 134.769 54.6333 126.758 45.7163C118.748 36.7993 119.528 23.0381 128.503 14.9787C137.478 6.91934 151.247 7.61659 159.258 16.5336C167.269 25.4506 166.488 39.2128 157.513 47.2712ZM156.667 46.3303C165.118 38.7413 165.854 25.7819 158.311 17.3846C150.767 8.98731 137.8 8.33153 129.349 15.9206C120.898 23.5096 120.162 36.468 127.706 44.8663C135.25 53.2646 148.215 53.9183 156.667 46.3303Z" fill="white"/>
</g>
<path d="M114.411 49.9023L114.411 49.9023L114.413 49.9006C115.248 49.1606 116.343 48.7825 117.456 48.8495C118.57 48.9164 119.612 49.4229 120.352 50.2575L120.352 50.2576L121.556 51.6158L121.556 51.6159C122.297 52.4507 122.675 53.5452 122.608 54.6589C122.541 55.7721 122.035 56.8131 121.2 57.5531C121.2 57.5534 121.2 57.5537 121.199 57.554L96.8765 79.2353L96.8747 79.2369C96.4612 79.6035 95.9796 79.885 95.4573 80.0655C94.935 80.2459 94.3822 80.3217 93.8306 80.2886C93.279 80.2554 92.7394 80.114 92.2424 79.8723C91.7455 79.6306 91.3011 79.2933 90.9345 78.8799L89.7312 77.5229C89.3645 77.1096 89.0829 76.6281 88.9024 76.106C88.7218 75.5838 88.646 75.0312 88.6791 74.4797C88.7123 73.9282 88.8538 73.3887 89.0955 72.8919C89.3371 72.3955 89.6741 71.9515 90.0872 71.5853C90.0875 71.585 90.0878 71.5847 90.0881 71.5844L114.411 49.9023Z" fill="white" stroke="white" stroke-width="1.84771"/>
</g>
<path d="M94.4946 67.0474C94.4896 67.0016 94.4896 66.9555 94.4946 66.9097C94.6403 65.4314 95.8685 53.0162 96.075 52.4885C96.2616 52.0117 101.768 44.1372 101.768 44.1372L104.475 47.8281L99.179 54.8915C99.0603 55.3404 97.1496 63.7206 97.1496 63.7206C97.1496 63.7206 96.7575 65.2489 96.5829 66.1636C96.6627 66.384 96.7415 66.5925 96.8104 66.7621C96.9702 67.0856 97.1613 67.3926 97.3811 67.6788C97.6175 67.996 98.0097 68.6893 98.0576 68.8759C98.1134 69.0913 98.2152 69.5392 98.2721 69.8095C98.329 70.0799 98.4078 70.3951 98.4207 70.5417C98.4566 70.6829 98.5145 70.8176 98.5924 70.9407C98.6155 70.9822 98.6256 71.0297 98.6214 71.077C98.6172 71.1244 98.5988 71.1693 98.5686 71.206C98.5385 71.2427 98.498 71.2695 98.4524 71.2829C98.4068 71.2962 98.3582 71.2955 98.313 71.2809C98.1204 71.2171 97.9707 70.9687 97.879 70.8131C97.6175 70.3751 97.4799 69.5751 97.414 69.616C97.3482 69.6569 97.1207 71.0126 97.0847 71.1682C97.0488 71.3238 96.7745 72.8969 96.6198 73.1852C96.4652 73.4735 96.2606 73.4246 96.2067 73.245C96.1598 73.0894 96.3773 70.8849 96.3773 70.8849C96.3773 70.8849 96.4043 70.6036 96.2776 70.6914C96.1508 70.7791 95.9533 72.7802 95.8675 73.0734C95.7817 73.3667 95.5861 73.5213 95.4205 73.2859C95.221 72.9996 95.5652 70.8769 95.5652 70.8769C95.5652 70.8769 95.6041 70.6106 95.4903 70.6355C95.3766 70.6604 95.2339 72.3652 95.1451 72.5128C95.0563 72.6605 94.8318 72.7123 94.7251 72.4679C94.5994 72.1777 94.9246 70.2864 94.9246 70.2864C94.9246 70.2864 94.9086 70.1357 94.8368 70.1866C94.765 70.2375 94.5375 71.6829 94.3938 71.8156C94.3792 71.8309 94.3616 71.8431 94.3421 71.8514C94.3227 71.8597 94.3017 71.864 94.2806 71.864C94.2594 71.864 94.2385 71.8597 94.219 71.8514C94.1995 71.8431 94.1819 71.8309 94.1673 71.8156C93.8969 71.631 94.311 70.2564 94.307 69.5731C94.303 68.8898 94.6193 68.1217 94.5255 67.3077C94.5225 67.2519 94.5056 67.1262 94.4946 67.0474Z" fill="#E6EBEE"/>
<path d="M94.4946 67.0474C94.4896 67.0016 94.4896 66.9555 94.4946 66.9097C94.6403 65.4314 95.8685 53.0162 96.075 52.4885C96.2616 52.0117 101.768 44.1372 101.768 44.1372L104.475 47.8281L99.179 54.8915C99.0603 55.3404 97.1496 63.7206 97.1496 63.7206C97.1496 63.7206 96.7575 65.2489 96.5829 66.1636C96.6627 66.384 96.7415 66.5925 96.8104 66.7621C96.9702 67.0856 97.1613 67.3926 97.3811 67.6788C97.6175 67.996 98.0097 68.6893 98.0576 68.8759C98.1134 69.0913 98.2152 69.5392 98.2721 69.8095C98.329 70.0799 98.4078 70.3951 98.4207 70.5417C98.4566 70.6829 98.5145 70.8176 98.5924 70.9407C98.6155 70.9822 98.6256 71.0297 98.6214 71.077C98.6172 71.1244 98.5988 71.1693 98.5686 71.206C98.5385 71.2427 98.498 71.2695 98.4524 71.2829C98.4068 71.2962 98.3582 71.2955 98.313 71.2809C98.1204 71.2171 97.9707 70.9687 97.879 70.8131C97.6175 70.3751 97.4799 69.5751 97.414 69.616C97.3482 69.6569 97.1207 71.0126 97.0847 71.1682C97.0488 71.3238 96.7745 72.8969 96.6198 73.1852C96.4652 73.4735 96.2606 73.4246 96.2067 73.245C96.1598 73.0894 96.3773 70.8849 96.3773 70.8849C96.3773 70.8849 96.4043 70.6036 96.2776 70.6914C96.1508 70.7791 95.9533 72.7802 95.8675 73.0734C95.7817 73.3667 95.5861 73.5213 95.4205 73.2859C95.221 72.9996 95.5652 70.8769 95.5652 70.8769C95.5652 70.8769 95.6041 70.6106 95.4903 70.6355C95.3766 70.6604 95.2339 72.3652 95.1451 72.5128C95.0563 72.6605 94.8318 72.7123 94.7251 72.4679C94.5994 72.1777 94.9246 70.2864 94.9246 70.2864C94.9246 70.2864 94.9086 70.1357 94.8368 70.1866C94.765 70.2375 94.5375 71.6829 94.3938 71.8156C94.3792 71.8309 94.3616 71.8431 94.3421 71.8514C94.3227 71.8597 94.3017 71.864 94.2806 71.864C94.2594 71.864 94.2385 71.8597 94.219 71.8514C94.1995 71.8431 94.1819 71.8309 94.1673 71.8156C93.8969 71.631 94.311 70.2564 94.307 69.5731C94.303 68.8898 94.6193 68.1217 94.5255 67.3077C94.5225 67.2519 94.5056 67.1262 94.4946 67.0474Z" fill="url(#paint10_linear_4415_34592)" fill-opacity="0.8" style="mix-blend-mode:color-burn"/>
<path d="M94.4946 67.0474C94.4896 67.0016 94.4896 66.9555 94.4946 66.9097C94.6403 65.4314 95.8685 53.0162 96.075 52.4885C96.2616 52.0117 101.768 44.1372 101.768 44.1372L104.475 47.8281L99.179 54.8915C99.0603 55.3404 97.1496 63.7206 97.1496 63.7206C97.1496 63.7206 96.7575 65.2489 96.5829 66.1636C96.6627 66.384 96.7415 66.5925 96.8104 66.7621C96.9702 67.0856 97.1613 67.3926 97.3811 67.6788C97.6175 67.996 98.0097 68.6893 98.0576 68.8759C98.1134 69.0913 98.2152 69.5392 98.2721 69.8095C98.329 70.0799 98.4078 70.3951 98.4207 70.5417C98.4566 70.6829 98.5145 70.8176 98.5924 70.9407C98.6155 70.9822 98.6256 71.0297 98.6214 71.077C98.6172 71.1244 98.5988 71.1693 98.5686 71.206C98.5385 71.2427 98.498 71.2695 98.4524 71.2829C98.4068 71.2962 98.3582 71.2955 98.313 71.2809C98.1204 71.2171 97.9707 70.9687 97.879 70.8131C97.6175 70.3751 97.4799 69.5751 97.414 69.616C97.3482 69.6569 97.1207 71.0126 97.0847 71.1682C97.0488 71.3238 96.7745 72.8969 96.6198 73.1852C96.4652 73.4735 96.2606 73.4246 96.2067 73.245C96.1598 73.0894 96.3773 70.8849 96.3773 70.8849C96.3773 70.8849 96.4043 70.6036 96.2776 70.6914C96.1508 70.7791 95.9533 72.7802 95.8675 73.0734C95.7817 73.3667 95.5861 73.5213 95.4205 73.2859C95.221 72.9996 95.5652 70.8769 95.5652 70.8769C95.5652 70.8769 95.6041 70.6106 95.4903 70.6355C95.3766 70.6604 95.2339 72.3652 95.1451 72.5128C95.0563 72.6605 94.8318 72.7123 94.7251 72.4679C94.5994 72.1777 94.9246 70.2864 94.9246 70.2864C94.9246 70.2864 94.9086 70.1357 94.8368 70.1866C94.765 70.2375 94.5375 71.6829 94.3938 71.8156C94.3792 71.8309 94.3616 71.8431 94.3421 71.8514C94.3227 71.8597 94.3017 71.864 94.2806 71.864C94.2594 71.864 94.2385 71.8597 94.219 71.8514C94.1995 71.8431 94.1819 71.8309 94.1673 71.8156C93.8969 71.631 94.311 70.2564 94.307 69.5731C94.303 68.8898 94.6193 68.1217 94.5255 67.3077C94.5225 67.2519 94.5056 67.1262 94.4946 67.0474Z" fill="#2F3941" fill-opacity="0.15" style="mix-blend-mode:multiply"/>
<path d="M97.4634 49.1251L102.168 52.2823C102.168 52.2823 104.821 48.3341 106.244 46.9375C108.027 45.1789 105.594 39.7902 104.448 40.0945C101.876 40.7728 97.4634 49.1251 97.4634 49.1251Z" fill="#C72A1C"/>
<path fill-rule="evenodd" clip-rule="evenodd" d="M199.905 100.001H210.304L207.27 107.953H202.836L199.905 100.001Z" fill="#F4AC1A"/>
<path fill-rule="evenodd" clip-rule="evenodd" d="M201.097 63.7336C201.621 63.6527 202.157 63.709 202.653 63.8971C203.675 64.3314 203.971 65.5422 203.956 66.5283C203.941 67.5884 203.716 68.7456 204.52 69.5937C204.891 69.9845 205.353 70.2859 205.716 70.6844C206.101 71.1111 206.411 71.5989 206.636 72.1277C207.052 73.0908 207.254 74.225 206.876 75.2366C206.541 76.1281 205.701 76.9302 205.882 77.9443C206.071 78.9993 207.136 79.8091 207.803 80.5959C208.569 81.4849 209.251 82.6242 209.364 83.7916C209.474 84.9104 208.988 86.0421 208.24 86.8902C206.745 88.5787 204.5 89.4089 202.237 89.4038C201.274 89.4038 200.193 89.3578 199.355 88.8418C199.128 88.6946 198.941 88.4926 198.811 88.2543C198.673 88.0447 198.494 87.8649 198.285 87.7255C197.836 87.3794 197.49 86.9176 197.284 86.3895C196.464 84.3459 197.12 81.8399 198.27 80.0313C198.54 79.6047 198.765 79.1935 198.632 78.6826C198.457 78.155 198.199 77.659 197.866 77.2137C197.546 76.776 197.257 76.3168 197 75.8394C196.773 75.3352 196.685 74.7797 196.745 74.2301C196.851 73.1793 197.26 72.182 197.922 71.3588C198.543 70.5439 199.271 69.7623 199.274 68.6945C199.274 67.5603 198.507 66.5538 198.839 65.4017C198.96 64.8979 199.256 64.4534 199.675 64.1475C200.113 63.9062 200.598 63.7649 201.097 63.7336Z" fill="white" stroke="#68737D" stroke-width="0.385781" stroke-miterlimit="10"/>
<path fill-rule="evenodd" clip-rule="evenodd" d="M200.76 65.5448C200.766 65.5081 200.779 65.4731 200.8 65.4421C200.82 65.4112 200.847 65.3851 200.879 65.3657C200.91 65.3462 200.946 65.3339 200.983 65.3295C201.02 65.3252 201.057 65.3289 201.092 65.3405C201.279 65.3915 201.276 65.5678 201.271 65.7236C201.262 66.1983 201.319 66.672 201.44 67.1312C201.677 68.0968 202.119 68.9857 202.461 69.913C202.844 70.8188 202.955 71.8168 202.778 72.7843C202.587 73.709 202.283 74.6082 202.083 75.5355C201.91 76.3503 201.723 77.2112 201.989 78.0235C202.254 78.8359 202.811 79.4464 203.218 80.154C204.033 81.6112 204.472 83.2486 204.495 84.9181C204.538 85.6966 204.477 86.4774 204.316 87.2402C204.211 87.677 204.061 88.262 203.698 88.5736C203.657 88.6137 203.608 88.645 203.554 88.6658C203.501 88.6867 203.444 88.6965 203.386 88.6949C203.329 88.6932 203.272 88.68 203.22 88.6561C203.168 88.6322 203.121 88.5981 203.082 88.5557C202.944 88.3616 203.064 88.0602 203.108 87.8533C203.285 86.9589 203.346 86.0453 203.289 85.1353C203.265 84.2534 203.122 83.3787 202.865 82.5348C202.596 81.7662 202.223 81.0382 201.756 80.3711C201.289 79.6763 200.801 78.9789 200.607 78.1564C200.413 77.3338 200.571 76.4653 200.786 75.6453C201.01 74.7768 201.297 73.9338 201.613 73.0908C201.922 72.3085 202.004 71.4552 201.851 70.6283C201.516 68.9142 200.645 67.3176 200.76 65.5448Z" fill="#C72A1C"/>
<path fill-rule="evenodd" clip-rule="evenodd" d="M214.792 68.8566C215.449 69.0346 216.047 69.3806 216.529 69.8605C217.503 70.9079 217.204 72.4917 216.667 73.6488C216.087 74.8954 215.214 76.1471 215.707 77.5777C215.934 78.2342 216.315 78.8294 216.529 79.491C216.755 80.1964 216.862 80.9345 216.846 81.6751C216.823 83.0315 216.463 84.485 215.484 85.4762C214.621 86.3575 213.211 86.8709 212.889 88.1609C212.552 89.5097 213.374 91.0194 213.74 92.2967C214.154 93.7425 214.366 95.4489 213.883 96.8948C213.418 98.2742 212.248 99.3599 210.925 99.9729C208.278 101.194 205.208 100.995 202.554 99.8222C201.427 99.3113 200.173 98.7008 199.473 97.6586C199.283 97.3653 199.17 97.0287 199.146 96.6802C199.093 96.3621 198.979 96.0574 198.809 95.7836C198.464 95.1385 198.302 94.4117 198.339 93.6812C198.451 90.8483 200.551 88.2146 202.855 86.6768C203.399 86.3115 203.877 85.9411 203.994 85.2693C204.112 84.5974 203.969 83.8234 203.859 83.126C203.714 82.442 203.616 81.749 203.565 81.0518C203.562 80.3353 203.747 79.6306 204.102 79.0082C204.781 77.8204 205.786 76.8523 206.998 76.2187C208.156 75.5775 209.423 75.0334 209.99 73.7689C210.59 72.4303 210.245 70.844 211.221 69.6511C211.629 69.1199 212.21 68.7491 212.864 68.6037C213.5 68.4964 214.189 68.6752 214.792 68.8566Z" fill="white" stroke="#68737D" stroke-width="0.385781" stroke-miterlimit="10"/>
<path fill-rule="evenodd" clip-rule="evenodd" d="M213.482 71.0711C213.508 71.0316 213.542 70.9982 213.582 70.973C213.622 70.9479 213.667 70.9316 213.714 70.9254C213.761 70.9191 213.809 70.9229 213.854 70.9366C213.9 70.9502 213.942 70.9734 213.977 71.0046C214.169 71.163 214.072 71.3699 213.977 71.5513C213.718 72.1087 213.536 72.6993 213.438 73.3062C213.211 74.5835 213.262 75.8607 213.183 77.138C213.155 78.4074 212.764 79.6423 212.056 80.6964C211.344 81.6901 210.524 82.5969 209.801 83.5906C209.17 84.4643 208.503 85.3788 208.388 86.49C208.276 87.5501 208.603 88.6026 208.707 89.655C208.892 91.8086 208.541 93.9745 207.686 95.9595C207.33 96.9036 206.851 97.7968 206.263 98.6162C205.91 99.0811 205.438 99.7095 204.84 99.873C204.564 99.9471 204.191 99.8475 204.13 99.5282C204.068 99.2089 204.37 98.933 204.528 98.7107C205.204 97.743 205.753 96.6931 206.163 95.5866C206.597 94.529 206.888 93.4182 207.029 92.2836C207.119 91.2337 207.064 90.1765 206.866 89.1416C206.682 88.0738 206.477 86.9932 206.684 85.9152C206.891 84.8372 207.525 83.8946 208.217 83.0363C208.937 82.1244 209.724 81.2814 210.516 80.441C211.29 79.6751 211.834 78.7079 212.087 77.6489C212.6 75.4597 212.422 73.1121 213.482 71.0711Z" fill="#E34F32"/>
<path fill-rule="evenodd" clip-rule="evenodd" d="M194.951 77.5095C195.467 77.5244 195.974 77.6552 196.433 77.8922C196.892 78.1292 197.292 78.4664 197.603 78.8788C198.369 79.8188 198.512 80.9658 198.819 82.0872C198.951 82.6622 199.258 83.1823 199.697 83.5765C200.116 83.9188 200.648 83.9878 201.151 84.1563C201.647 84.3239 202.097 84.6038 202.466 84.9743C202.836 85.3448 203.115 85.7957 203.281 86.2919C203.672 87.4976 203.258 88.7136 203.33 89.9346C203.396 91.056 204.502 91.756 205.391 92.295C206.28 92.834 207.059 93.3168 207.325 94.3565C207.606 95.4523 207.698 96.6734 207.31 97.7565C206.663 99.56 204.773 100.354 202.944 100.477C201.286 100.587 199.199 100.413 197.953 99.1998C197.606 98.8393 197.339 98.4098 197.17 97.9392C197.001 97.4686 196.934 96.9676 196.972 96.469C197.003 95.8447 197.105 95.2259 197.276 94.6247C197.413 94.2027 197.516 93.7705 197.585 93.3321C197.702 92.157 196.617 91.9322 195.692 91.6104C194.577 91.2207 193.66 90.4089 193.137 89.3496C192.574 88.3695 192.418 87.2071 192.703 86.1131C192.867 85.5488 193.161 85.0309 193.561 84.6008C193.738 84.4092 193.985 84.2509 194.146 84.0491C194.206 83.952 194.243 83.8427 194.254 83.7294C194.265 83.6161 194.25 83.5018 194.21 83.3951C193.973 82.3733 193.234 81.5354 192.971 80.5213C192.734 79.6042 192.874 78.4624 193.712 77.8723C194.08 77.6309 194.511 77.5046 194.951 77.5095Z" fill="white" stroke="#68737D" stroke-width="0.385781" stroke-miterlimit="10"/>
<path fill-rule="evenodd" clip-rule="evenodd" d="M196.405 80.1614C197.536 81.3671 197.843 83.002 197.937 84.5858C197.986 85.4747 197.937 86.4122 198.193 87.2731C198.415 88.0114 198.939 88.5759 199.47 89.1072C200.556 90.1801 201.769 91.2709 202.086 92.824C202.272 93.7334 202.144 94.676 202.402 95.5778C202.651 96.4089 203.04 97.1916 203.552 97.8922C203.956 98.449 204.482 98.8756 204.924 99.3942C205.059 99.5526 205.251 99.7876 205.195 100.01C205.131 100.265 204.796 100.355 204.561 100.314C204.007 100.219 203.539 99.6905 203.182 99.3073C202.656 98.7556 202.205 98.1372 201.841 97.4681C201.421 96.7246 201.127 95.9166 200.972 95.0771C200.826 94.2035 200.898 93.2889 200.568 92.4536C200.014 91.0435 198.668 90.2108 197.692 89.1098C196.481 87.7406 196.67 86.0444 196.785 84.3482C196.854 83.4209 196.921 82.3736 196.453 81.5382C196.274 81.2164 195.876 80.9149 195.799 80.5471C195.722 80.1793 196.124 79.8625 196.405 80.1614Z" fill="#C72A1C"/>
<path d="M59.1721 84.8379C59.2249 84.8269 59.2429 84.7787 59.2885 84.6595C59.3701 84.4466 59.4517 84.2335 59.5407 84.0235C59.5547 83.9905 59.6054 83.9571 59.6426 83.9526C59.8636 83.9262 60.0863 83.9131 60.3069 83.8843C60.3753 83.8758 60.4118 83.8817 60.451 83.9431C60.6082 84.1883 60.7721 84.4291 60.9318 84.6689C61.1891 84.6058 61.7657 84.2957 61.9261 84.1314C61.8161 83.8765 61.7076 83.6144 61.5891 83.3569C61.5522 83.2767 61.5587 83.2356 61.6219 83.1678C61.7685 83.0106 61.9013 82.8394 62.0299 82.6666C62.082 82.5966 62.1229 82.5592 62.2183 82.5806C62.4655 82.6364 62.7161 82.6772 62.9642 82.7286C63.0309 82.7425 63.0724 82.7294 63.0921 82.6632C63.1845 82.3519 63.2767 82.0406 63.3688 81.7292C63.3915 81.6527 63.3289 81.6416 63.284 81.623C63.0567 81.529 62.8294 81.4337 62.5989 81.3475C62.5127 81.3151 62.4835 81.2707 62.48 81.1768C62.4696 80.9282 62.4431 80.6803 62.4214 80.413L63.1912 79.8925C63.0685 79.5335 62.8874 79.2107 62.6483 78.9057L61.8121 79.2653C61.5778 79.0837 61.3645 78.9106 61.142 78.7505C61.0775 78.7042 61.0666 78.6674 61.0813 78.5967C61.1323 78.3514 61.1757 78.1044 61.225 77.8589C61.2357 77.8059 61.2373 77.7669 61.1794 77.7404C60.8863 77.6063 60.586 77.4987 60.264 77.4573C60.1922 77.4481 60.1642 77.474 60.1404 77.5338C60.0447 77.7733 59.9445 78.0111 59.8499 78.2511C59.8271 78.3092 59.8027 78.3336 59.7324 78.3396C59.4886 78.3604 59.2454 78.3917 59.0035 78.4294C58.9417 78.4389 58.9176 78.4194 58.8883 78.3757C58.7259 78.1338 58.5617 77.8935 58.394 77.6459C58.0419 77.7759 57.7155 77.9406 57.4162 78.1745L57.7897 79.0492L57.2037 79.7735C56.9848 79.732 56.7336 79.6822 56.4814 79.6367C56.2743 79.5997 56.3012 79.5694 56.2163 79.7786C56.2081 79.7986 56.1932 79.8156 56.1809 79.8338L56.0188 80.3946C56.0143 80.4382 56.0166 80.4838 56.0041 80.525C55.9715 80.632 55.9963 80.6918 56.1106 80.7331C56.3488 80.8192 56.5816 80.9203 56.8143 81.0208C56.8447 81.034 56.8769 81.078 56.8814 81.1114C56.9112 81.3291 56.9222 81.5501 56.9632 81.7654C56.9833 81.8708 56.955 81.9155 56.8735 81.9685C56.6425 82.1186 56.4176 82.2788 56.1675 82.45L56.6959 83.4348C56.7611 83.4082 56.7988 83.3936 56.8357 83.3775C57.0652 83.2788 57.2956 83.1821 57.5233 83.0793C57.5879 83.0501 57.6246 83.0642 57.6779 83.1083C57.861 83.2598 58.0538 83.3994 58.238 83.5495C58.2666 83.5727 58.2871 83.6309 58.2811 83.668C58.2482 83.8708 58.2041 84.0719 58.1671 84.2741C58.1372 84.4377 58.1267 84.4986 58.1804 84.5498L59.1721 84.8379ZM59.134 83.3742C58.6184 83.2484 58.1622 82.9471 57.843 82.5216C57.5239 82.0961 57.3616 81.5728 57.3839 81.0407C57.4061 80.5086 57.6115 80.0007 57.9651 79.6036C58.3186 79.2065 58.7984 78.9447 59.3227 78.8628C59.847 78.781 60.3834 78.8841 60.8405 79.1546C61.2975 79.4252 61.647 79.8465 61.8293 80.3466C62.0116 80.8468 62.0155 81.3949 61.8403 81.8975C61.6651 82.4002 61.3217 82.8264 60.8685 83.1034C60.6116 83.2614 60.326 83.3667 60.0283 83.4132C59.7306 83.4597 59.4266 83.4464 59.134 83.3742Z" fill="#F4AC1A"/>
<g filter="url(#filter4_d_4415_34592)">
<path d="M174.449 122.151L172.287 121.741C171.707 121.631 171.326 121.072 171.436 120.493C171.546 119.913 172.105 119.532 172.685 119.642L174.108 119.912L173.656 119.248C173.564 119.115 173.481 118.978 173.406 118.839M174.449 122.151L173.685 122.671L173.901 122.987M174.449 122.151L174.277 123.058L173.901 122.987M174.449 122.151L175.032 123.008L174.269 123.528M173.901 122.987L172.114 122.648L172.114 122.648C171.034 122.443 170.324 121.401 170.529 120.321L170.529 120.32C170.734 119.24 171.776 118.53 172.857 118.735L172.857 118.735L173.406 118.839M173.901 122.987L174.269 123.528M173.406 118.839L174.072 118.965L174.656 119.076L175.014 119.144L180.711 115.263L180.796 114.812L180.89 114.321L181.032 113.571M173.406 118.839C172.281 116.762 172.89 114.13 174.884 112.771C176.861 111.425 179.504 111.804 181.032 113.571M175.218 120.123L174.276 119.944L174.836 119.562L175.218 120.123ZM175.218 120.123L181.547 115.811M175.218 120.123L175.39 119.215L175.355 119.208L180.646 115.604L180.64 115.639L181.547 115.811M181.547 115.811L181.726 114.869L181.166 115.25L181.547 115.811ZM181.032 113.571C181.148 113.706 181.258 113.849 181.361 114L181.775 114.608L172.995 126.873C173.643 127.77 174.876 127.934 175.749 127.339L176.522 126.813C176.829 127.203 177.178 127.544 177.559 127.834L177.142 130.029L177.142 130.029C176.937 131.11 177.647 132.152 178.728 132.357L178.728 132.357C179.809 132.562 180.851 131.852 181.056 130.771L181.056 130.771L181.394 128.99C182.385 128.928 183.373 128.606 184.253 128.007L184.813 127.626L185.017 127.487L185.577 127.105C186.457 126.506 187.117 125.704 187.538 124.805L189.319 125.142L189.319 125.142C190.4 125.347 191.442 124.637 191.647 123.556L191.647 123.556C191.852 122.476 191.142 121.433 190.062 121.228L190.062 121.228L187.866 120.812C187.736 120.352 187.546 119.902 187.295 119.474L188.069 118.947C188.942 118.352 189.241 117.145 188.642 116.213C188.035 115.266 186.769 115.013 185.844 115.642L185.063 116.174L184.695 115.634L185.034 113.848L185.034 113.848C185.239 112.767 184.529 111.725 183.448 111.52L183.448 111.52C182.367 111.315 181.325 112.025 181.12 113.106L181.12 113.106L181.032 113.571ZM174.269 123.528L173.488 124.06C172.563 124.689 172.336 125.96 172.995 126.873L174.269 123.528Z" fill="#2B8473" stroke="white" stroke-width="1.84771"/>
</g>
<g style="mix-blend-mode:hard-light" opacity="0.6">
<rect x="152.039" y="73.7638" width="1.38564" height="1.38564" transform="rotate(-45 152.039 73.7638)" fill="#E6EBEE"/>
<rect x="152.039" y="73.7638" width="1.38564" height="1.38564" transform="rotate(-45 152.039 73.7638)" fill="url(#paint11_linear_4415_34592)"/>
</g>
<g style="mix-blend-mode:hard-light" opacity="0.6">
<rect x="50.415" y="64.5252" width="1.38564" height="1.38564" transform="rotate(-45 50.415 64.5252)" fill="#E6EBEE"/>
<rect x="50.415" y="64.5252" width="1.38564" height="1.38564" transform="rotate(-45 50.415 64.5252)" fill="url(#paint12_linear_4415_34592)"/>
</g>
<g style="mix-blend-mode:hard-light" opacity="0.6">
<rect x="68.8916" y="68.2206" width="1.38564" height="1.38564" transform="rotate(-45 68.8916 68.2206)" fill="#E6EBEE"/>
<rect x="68.8916" y="68.2206" width="1.38564" height="1.38564" transform="rotate(-45 68.8916 68.2206)" fill="url(#paint13_linear_4415_34592)"/>
</g>
<g style="mix-blend-mode:hard-light" opacity="0.6">
<rect x="140.953" y="59.9059" width="1.38564" height="1.38564" transform="rotate(-45 140.953 59.9059)" fill="#E6EBEE"/>
<rect x="140.953" y="59.9059" width="1.38564" height="1.38564" transform="rotate(-45 140.953 59.9059)" fill="url(#paint14_linear_4415_34592)"/>
</g>
<g style="mix-blend-mode:hard-light" opacity="0.6">
<rect x="171.44" y="83.0023" width="1.38564" height="1.38564" transform="rotate(-45 171.44 83.0023)" fill="#E6EBEE"/>
<rect x="171.44" y="83.0023" width="1.38564" height="1.38564" transform="rotate(-45 171.44 83.0023)" fill="url(#paint15_linear_4415_34592)"/>
</g>
<g style="mix-blend-mode:hard-light" opacity="0.6">
<rect x="180.678" y="53.439" width="1.38564" height="1.38564" transform="rotate(-45 180.678 53.439)" fill="#E6EBEE"/>
<rect x="180.678" y="53.439" width="1.38564" height="1.38564" transform="rotate(-45 180.678 53.439)" fill="url(#paint16_linear_4415_34592)"/>
</g>
<path d="M51.6178 91.6306L34.6118 96.1874C33.5429 96.4738 32.9085 97.5726 33.1949 98.6416L37.5699 114.969C37.8564 116.038 38.9552 116.673 40.0241 116.386L57.0301 111.83C58.0991 111.543 58.7335 110.444 58.447 109.375L54.072 93.0476C53.7856 91.9786 52.6868 91.3442 51.6178 91.6306Z" fill="white" stroke="#68737D" stroke-width="0.418381" stroke-miterlimit="10"/>
<path d="M39.2453 114.741L42.2341 102.798L48.7366 108.178L50.6647 103.881L56.8823 110.015L39.2453 114.741Z" fill="#E34F32"/>
<path d="M48.4306 98.973C48.5102 99.2702 48.4999 99.5844 48.401 99.8758C48.3021 100.167 48.119 100.423 47.8749 100.61C47.6307 100.797 47.3365 100.908 47.0294 100.928C46.7223 100.948 46.4162 100.877 46.1497 100.723C45.8831 100.569 45.6682 100.34 45.5321 100.064C45.396 99.7879 45.3448 99.4777 45.385 99.1726C45.4251 98.8675 45.5549 98.5811 45.7578 98.3498C45.9607 98.1184 46.2277 97.9524 46.5249 97.8727C46.9235 97.7669 47.3477 97.8233 47.7049 98.0295C48.062 98.2356 48.3229 98.5749 48.4306 98.973Z" fill="#336179"/>
<path d="M27.0365 91.6589L6.93406 102.369C5.95733 102.889 5.58736 104.103 6.10771 105.079L16.4082 124.414C16.9286 125.391 18.1422 125.761 19.1189 125.24L39.2213 114.531C40.1981 114.01 40.568 112.797 40.0477 111.82L29.7472 92.4853C29.2268 91.5085 28.0132 91.1386 27.0365 91.6589Z" fill="#C72A1C"/>
<path d="M18.1481 123.243L18.4156 107.989L27.7707 112.664L28.8965 106.938L38.1188 112.603L18.1481 123.243Z" fill="white"/>
<path d="M24.823 101.638C25.0023 101.975 25.0778 102.357 25.0399 102.737C25.002 103.116 24.8524 103.476 24.6101 103.77C24.3678 104.065 24.0435 104.281 23.6784 104.391C23.3133 104.501 22.9237 104.501 22.5589 104.39C22.1941 104.278 21.8705 104.061 21.6289 103.766C21.3874 103.471 21.2388 103.111 21.2019 102.731C21.1651 102.352 21.2416 101.97 21.4218 101.634C21.6021 101.298 21.8779 101.023 22.2145 100.843C22.6661 100.604 23.1941 100.553 23.6829 100.702C24.1718 100.851 24.5817 101.188 24.823 101.638Z" fill="white"/>
<g filter="url(#filter5_d_4415_34592)">
<circle cx="41.8849" cy="121.793" r="9.60606" fill="white"/>
<path d="M40.2477 136.99L40.0054 136.92L36.2863 135.839L36.0495 135.77L35.871 135.6C35.7307 135.467 35.6037 135.297 35.5193 135.083C35.4379 134.876 35.4162 134.68 35.4149 134.518C35.4127 134.258 35.4679 133.958 35.5146 133.704C35.5177 133.686 35.5209 133.669 35.5239 133.653L35.524 133.652C35.5836 133.326 35.6438 133.021 35.7023 132.725C35.7704 132.38 35.8364 132.046 35.897 131.701C35.6613 131.513 35.4206 131.328 35.1729 131.137C35.1537 131.122 35.1345 131.107 35.1152 131.092C34.8274 130.87 34.5307 130.641 34.2363 130.403C33.6847 130.648 33.1284 130.886 32.5803 131.12C32.3611 131.214 32.1431 131.307 31.9273 131.4C31.8236 131.445 31.7113 131.49 31.5795 131.544C31.5186 131.568 31.4536 131.594 31.3834 131.623L30.5406 131.967L30.1103 131.165L28.1288 127.472L27.6997 126.672L28.4485 126.159C28.7268 125.969 29.0009 125.779 29.2722 125.591C29.8479 125.192 30.4114 124.802 30.9772 124.431C30.9113 124.047 30.8672 123.668 30.8292 123.31C30.8184 123.208 30.8081 123.108 30.7981 123.011C30.7775 122.811 30.7576 122.619 30.7354 122.429C29.9664 122.097 29.2204 121.78 28.4627 121.506L28.4626 121.506C28.154 121.394 27.7248 121.177 27.4922 120.702C27.2663 120.241 27.3487 119.786 27.434 119.499C27.4348 119.492 27.436 119.48 27.4373 119.462C27.4388 119.44 27.4398 119.421 27.4413 119.394C27.4419 119.382 27.4426 119.369 27.4435 119.353C27.4459 119.309 27.4496 119.248 27.4563 119.182L27.4655 119.092L27.4908 119.005L28.0985 116.902L28.1431 116.747L28.2334 116.615C28.245 116.597 28.2559 116.582 28.2652 116.569L28.2893 116.536L28.2904 116.534C28.296 116.52 28.3018 116.506 28.3075 116.491C28.3616 116.356 28.4207 116.209 28.474 116.099C28.5353 115.973 28.7052 115.632 29.0988 115.448C29.4579 115.279 29.8072 115.34 29.9193 115.359C29.9228 115.36 29.926 115.36 29.929 115.361C29.9948 115.372 30.0673 115.387 30.1273 115.399C30.1344 115.401 30.1413 115.402 30.148 115.404C30.2184 115.418 30.2912 115.433 30.3747 115.448L30.3765 115.448C31.0359 115.567 31.6977 115.695 32.3116 115.813C32.3752 115.825 32.4383 115.837 32.5009 115.849L33.9343 114.077L32.7727 111.357L32.4674 110.642L33.0799 110.163C34.305 109.206 35.6279 108.543 37.0192 108.029L37.7623 107.754L38.2067 108.41C38.4145 108.717 38.6217 109.022 38.8281 109.326C39.177 109.84 39.5236 110.35 39.8675 110.861C40.5722 110.756 41.2833 110.666 41.9987 110.599C42.1606 110.194 42.3311 109.777 42.4995 109.365C42.6649 108.961 42.8283 108.561 42.9798 108.182C43.0446 108.02 43.187 107.702 43.517 107.479C43.8739 107.238 44.2528 107.234 44.5107 107.267L44.5111 107.267C45.8588 107.44 47.0888 107.888 48.2358 108.412L48.2365 108.413C48.5374 108.551 48.8498 108.811 48.971 109.245C49.0611 109.567 49.0003 109.865 48.9797 109.965L40.2477 136.99ZM40.2477 136.99L40.4947 136.938M40.2477 136.99L40.4947 136.938M56.094 122.958C56.0028 122.92 55.9112 122.882 55.8194 122.844C55.1252 122.557 54.4144 122.262 53.6943 121.988C53.6629 121.36 53.6069 120.724 53.5509 120.089C53.5442 120.013 53.5374 119.936 53.5308 119.86L55.926 118.24L56.5665 117.807L56.3165 117.076C55.8163 115.612 55.0796 114.302 54.1196 113.078L53.6394 112.466L52.9245 112.773L50.3382 113.885C50.2588 113.823 50.1795 113.761 50.1003 113.699C49.5649 113.279 49.0334 112.861 48.4951 112.466C48.5815 112.039 48.6659 111.594 48.7489 111.158C48.8262 110.751 48.9023 110.351 48.9776 109.976L41.6684 135.641L41.6799 135.611C41.9421 134.927 42.1988 134.258 42.4711 133.599C42.7396 133.57 43.0114 133.545 43.2919 133.52C43.3247 133.517 43.3575 133.514 43.3905 133.511C43.7204 133.481 44.0617 133.449 44.4063 133.408C44.7912 134.002 45.1857 134.591 45.5732 135.169C45.7321 135.407 45.8899 135.642 46.0453 135.875L46.4385 136.466L47.1274 136.297C47.7416 136.146 48.6177 135.744 49.3675 135.339C50.1024 134.943 50.9191 134.436 51.3389 134.006L51.8128 133.521L51.544 132.898C51.4323 132.64 51.3196 132.376 51.2054 132.108C50.9381 131.481 50.6628 130.836 50.3745 130.2C50.8658 129.656 51.3124 129.083 51.731 128.523C52.2094 128.626 52.7135 128.722 53.2012 128.814C53.5854 128.887 53.9595 128.957 54.3028 129.028C54.4959 129.069 54.862 129.121 55.24 128.946C55.6711 128.746 55.8704 128.373 55.9573 128.081L55.9574 128.081C56.3041 126.913 56.6501 125.745 56.9956 124.577L56.9957 124.577C57.0535 124.381 57.0877 124.124 57.0094 123.844C56.9277 123.553 56.755 123.349 56.5914 123.219C56.4438 123.101 56.2959 123.037 56.2239 123.008C56.1845 122.992 56.1468 122.978 56.1273 122.971L56.1021 122.961C56.0961 122.959 56.0939 122.958 56.094 122.958ZM56.094 122.958C56.0941 122.958 56.0942 122.958 56.0943 122.958L55.7078 123.892L56.094 122.958ZM40.4947 136.938C40.95 136.843 41.2249 136.553 41.3857 136.282M40.4947 136.938L41.3857 136.282M41.3857 136.282C41.4939 136.1 41.5823 135.867 41.6502 135.689M41.3857 136.282L41.6502 135.689M41.6502 135.689C41.6563 135.673 41.6623 135.657 41.6681 135.642L41.6502 135.689ZM50.1844 130.41C50.1843 130.41 50.1857 130.408 50.189 130.403C50.1862 130.407 50.1845 130.41 50.1844 130.41ZM50.2567 129.94C50.2568 129.94 50.2577 129.942 50.2591 129.946C50.2573 129.942 50.2566 129.939 50.2567 129.94ZM53.706 122.219C53.706 122.219 53.7058 122.218 53.7055 122.215C53.7059 122.218 53.7061 122.219 53.706 122.219ZM48.4339 112.768C48.4338 112.769 48.434 112.766 48.4349 112.761C48.4344 112.766 48.4339 112.768 48.4339 112.768ZM48.2509 112.288C48.251 112.288 48.2525 112.289 48.2552 112.292C48.2522 112.289 48.2509 112.288 48.2509 112.288ZM41.8815 110.893C41.8814 110.893 41.8826 110.89 41.8851 110.885C41.8828 110.89 41.8815 110.893 41.8815 110.893ZM42.3089 110.571C42.3089 110.571 42.308 110.571 42.306 110.571L42.3089 110.571ZM40.0662 111.156C40.0712 111.162 40.0737 111.166 40.0738 111.166C40.0738 111.166 40.0713 111.163 40.0662 111.156ZM40.3872 129.478L40.3844 129.477C38.6788 129.061 37.1688 128.064 36.1123 126.656C35.0556 125.247 34.5181 123.513 34.5918 121.751C34.6655 119.988 35.3459 118.306 36.5162 116.991C37.6865 115.677 39.2741 114.811 41.0083 114.54C42.7424 114.269 44.5168 114.61 46.0291 115.506C47.5415 116.401 48.6986 117.795 49.3025 119.452C49.9064 121.108 49.9193 122.924 49.339 124.589C48.7587 126.254 47.6215 127.665 46.122 128.581L46.1196 128.583C45.2703 129.105 44.3264 129.453 43.3425 129.607C42.3586 129.76 41.3542 129.716 40.3872 129.478Z" fill="url(#paint17_linear_4415_34592)" stroke="white" stroke-width="2.02233"/>
</g>
<defs>
<filter id="filter0_d_4415_34592" x="79.7476" y="3.95695" width="94.4526" height="89.2631" filterUnits="userSpaceOnUse" color-interpolation-filters="sRGB">
<feFlood flood-opacity="0" result="BackgroundImageFix"/>
<feColorMatrix in="SourceAlpha" type="matrix" values="0 0 0 0 0 0 0 0 0 0 0 0 0 0 0 0 0 0 127 0" result="hardAlpha"/>
<feOffset dy="4"/>
<feGaussianBlur stdDeviation="4"/>
<feColorMatrix type="matrix" values="0 0 0 0 0.184314 0 0 0 0 0.223529 0 0 0 0 0.254902 0 0 0 0.15 0"/>
<feBlend mode="normal" in2="BackgroundImageFix" result="effect1_dropShadow_4415_34592"/>
<feBlend mode="normal" in="SourceGraphic" in2="effect1_dropShadow_4415_34592" result="shape"/>
</filter>
<filter id="filter1_d_4415_34592" x="110.244" y="39.8903" width="25.9843" height="25.3218" filterUnits="userSpaceOnUse" color-interpolation-filters="sRGB">
<feFlood flood-opacity="0" result="BackgroundImageFix"/>
<feColorMatrix in="SourceAlpha" type="matrix" values="0 0 0 0 0 0 0 0 0 0 0 0 0 0 0 0 0 0 127 0" result="hardAlpha"/>
<feOffset dy="3.69543"/>
<feGaussianBlur stdDeviation="3.69543"/>
<feColorMatrix type="matrix" values="0 0 0 0 0.184314 0 0 0 0 0.223529 0 0 0 0 0.254902 0 0 0 0.15 0"/>
<feBlend mode="normal" in2="BackgroundImageFix" result="effect1_dropShadow_4415_34592"/>
<feBlend mode="normal" in="SourceGraphic" in2="effect1_dropShadow_4415_34592" result="shape"/>
</filter>
<filter id="filter2_d_4415_34592" x="112.433" y="4.26152" width="61.1577" height="61.1192" filterUnits="userSpaceOnUse" color-interpolation-filters="sRGB">
<feFlood flood-opacity="0" result="BackgroundImageFix"/>
<feColorMatrix in="SourceAlpha" type="matrix" values="0 0 0 0 0 0 0 0 0 0 0 0 0 0 0 0 0 0 127 0" result="hardAlpha"/>
<feOffset dy="3.69543"/>
<feGaussianBlur stdDeviation="3.69543"/>
<feColorMatrix type="matrix" values="0 0 0 0 0.184314 0 0 0 0 0.223529 0 0 0 0 0.254902 0 0 0 0.15 0"/>
<feBlend mode="normal" in2="BackgroundImageFix" result="effect1_dropShadow_4415_34592"/>
<feBlend mode="normal" in="SourceGraphic" in2="effect1_dropShadow_4415_34592" result="shape"/>
</filter>
<filter id="filter3_d_4415_34592" x="113.835" y="5.6666" width="58.3457" height="58.3071" filterUnits="userSpaceOnUse" color-interpolation-filters="sRGB">
<feFlood flood-opacity="0" result="BackgroundImageFix"/>
<feColorMatrix in="SourceAlpha" type="matrix" values="0 0 0 0 0 0 0 0 0 0 0 0 0 0 0 0 0 0 127 0" result="hardAlpha"/>
<feOffset dy="3.69543"/>
<feGaussianBlur stdDeviation="3.69543"/>
<feColorMatrix type="matrix" values="0 0 0 0 0.184314 0 0 0 0 0.223529 0 0 0 0 0.254902 0 0 0 0.15 0"/>
<feBlend mode="normal" in2="BackgroundImageFix" result="effect1_dropShadow_4415_34592"/>
<feBlend mode="normal" in="SourceGraphic" in2="effect1_dropShadow_4415_34592" result="shape"/>
</filter>
<filter id="filter4_d_4415_34592" x="146.256" y="62.5741" width="53.7421" height="81.8286" filterUnits="userSpaceOnUse" color-interpolation-filters="sRGB">
<feFlood flood-opacity="0" result="BackgroundImageFix"/>
<feColorMatrix in="SourceAlpha" type="matrix" values="0 0 0 0 0 0 0 0 0 0 0 0 0 0 0 0 0 0 127 0" result="hardAlpha"/>
<feOffset dy="3.69543"/>
<feGaussianBlur stdDeviation="3.69543"/>
<feColorMatrix type="matrix" values="0 0 0 0 0.184314 0 0 0 0 0.223529 0 0 0 0 0.254902 0 0 0 0.15 0"/>
<feBlend mode="normal" in2="BackgroundImageFix" result="effect1_dropShadow_4415_34592"/>
<feBlend mode="normal" in="SourceGraphic" in2="effect1_dropShadow_4415_34592" result="shape"/>
</filter>
<filter id="filter5_d_4415_34592" x="18.2456" y="102.197" width="47.9101" height="47.9687" filterUnits="userSpaceOnUse" color-interpolation-filters="sRGB">
<feFlood flood-opacity="0" result="BackgroundImageFix"/>
<feColorMatrix in="SourceAlpha" type="matrix" values="0 0 0 0 0 0 0 0 0 0 0 0 0 0 0 0 0 0 127 0" result="hardAlpha"/>
<feOffset dy="4.04466"/>
<feGaussianBlur stdDeviation="4.04466"/>
<feColorMatrix type="matrix" values="0 0 0 0 0.184314 0 0 0 0 0.223529 0 0 0 0 0.254902 0 0 0 0.15 0"/>
<feBlend mode="normal" in2="BackgroundImageFix" result="effect1_dropShadow_4415_34592"/>
<feBlend mode="normal" in="SourceGraphic" in2="effect1_dropShadow_4415_34592" result="shape"/>
</filter>
<linearGradient id="paint0_linear_4415_34592" x1="159.941" y1="137.304" x2="142.598" y2="70.8532" gradientUnits="userSpaceOnUse">
<stop stop-color="white" stop-opacity="0"/>
<stop offset="1" stop-color="white" stop-opacity="0.8"/>
</linearGradient>
<linearGradient id="paint1_linear_4415_34592" x1="29.1655" y1="30.2866" x2="207.909" y2="36.3997" gradientUnits="userSpaceOnUse">
<stop stop-color="#001825"/>
<stop offset="1" stop-color="#003A57"/>
</linearGradient>
<linearGradient id="paint2_linear_4415_34592" x1="50.0673" y1="115.005" x2="95.7007" y2="130.365" gradientUnits="userSpaceOnUse">
<stop offset="0.213542" stop-color="#323444"/>
<stop offset="0.6875" stop-color="#2F3941" stop-opacity="0.291667"/>
<stop offset="1" stop-color="#2F3941" stop-opacity="0"/>
</linearGradient>
<linearGradient id="paint3_linear_4415_34592" x1="95.0053" y1="126.526" x2="145.355" y2="143.473" gradientUnits="userSpaceOnUse">
<stop offset="0.213542" stop-color="#323444"/>
<stop offset="0.6875" stop-color="#2F3941" stop-opacity="0.291667"/>
<stop offset="1" stop-color="#2F3941" stop-opacity="0"/>
</linearGradient>
<linearGradient id="paint4_linear_4415_34592" x1="95.0053" y1="100.132" x2="145.355" y2="117.079" gradientUnits="userSpaceOnUse">
<stop offset="0.213542" stop-color="#323444"/>
<stop offset="0.6875" stop-color="#2F3941" stop-opacity="0.291667"/>
<stop offset="1" stop-color="#2F3941" stop-opacity="0"/>
</linearGradient>
<linearGradient id="paint5_linear_4415_34592" x1="56.2302" y1="87.0883" x2="109.07" y2="104.874" gradientUnits="userSpaceOnUse">
<stop offset="0.213542" stop-color="#323444"/>
<stop offset="0.6875" stop-color="#2F3941" stop-opacity="0.291667"/>
<stop offset="1" stop-color="#2F3941" stop-opacity="0"/>
</linearGradient>
<linearGradient id="paint6_linear_4415_34592" x1="130.079" y1="58.0524" x2="127.682" y2="45.3571" gradientUnits="userSpaceOnUse">
<stop offset="0.213542" stop-color="#323444"/>
<stop offset="0.6875" stop-color="#2F3941" stop-opacity="0.291667"/>
<stop offset="1" stop-color="#2F3941" stop-opacity="0"/>
</linearGradient>
<linearGradient id="paint7_linear_4415_34592" x1="98.5974" y1="112.288" x2="95.5439" y2="104.755" gradientUnits="userSpaceOnUse">
<stop offset="0.213542" stop-color="#323444"/>
<stop offset="0.6875" stop-color="#2F3941" stop-opacity="0.291667"/>
<stop offset="1" stop-color="#2F3941" stop-opacity="0"/>
</linearGradient>
<linearGradient id="paint8_linear_4415_34592" x1="112.184" y1="112.893" x2="111.257" y2="108.889" gradientUnits="userSpaceOnUse">
<stop offset="0.213542" stop-color="#323444"/>
<stop offset="0.6875" stop-color="#2F3941" stop-opacity="0.291667"/>
<stop offset="1" stop-color="#2F3941" stop-opacity="0"/>
</linearGradient>
<linearGradient id="paint9_linear_4415_34592" x1="117.394" y1="20.5854" x2="104.881" y2="44.1218" gradientUnits="userSpaceOnUse">
<stop offset="0.213542" stop-color="#323444"/>
<stop offset="0.6875" stop-color="#2F3941" stop-opacity="0.291667"/>
<stop offset="1" stop-color="#2F3941" stop-opacity="0"/>
</linearGradient>
<linearGradient id="paint10_linear_4415_34592" x1="95.2212" y1="33.0586" x2="108.29" y2="55.6104" gradientUnits="userSpaceOnUse">
<stop offset="0.213542" stop-color="#323444"/>
<stop offset="0.6875" stop-color="#2F3941" stop-opacity="0.291667"/>
<stop offset="1" stop-color="#2F3941" stop-opacity="0"/>
</linearGradient>
<linearGradient id="paint11_linear_4415_34592" x1="153.068" y1="75.4209" x2="151.751" y2="74.2806" gradientUnits="userSpaceOnUse">
<stop stop-color="white" stop-opacity="0"/>
<stop offset="1" stop-color="white" stop-opacity="0.8"/>
</linearGradient>
<linearGradient id="paint12_linear_4415_34592" x1="51.4449" y1="66.1824" x2="50.1279" y2="65.042" gradientUnits="userSpaceOnUse">
<stop stop-color="white" stop-opacity="0"/>
<stop offset="1" stop-color="white" stop-opacity="0.8"/>
</linearGradient>
<linearGradient id="paint13_linear_4415_34592" x1="69.9215" y1="69.8778" x2="68.6045" y2="68.7374" gradientUnits="userSpaceOnUse">
<stop stop-color="white" stop-opacity="0"/>
<stop offset="1" stop-color="white" stop-opacity="0.8"/>
</linearGradient>
<linearGradient id="paint14_linear_4415_34592" x1="141.983" y1="61.5631" x2="140.666" y2="60.4227" gradientUnits="userSpaceOnUse">
<stop stop-color="white" stop-opacity="0"/>
<stop offset="1" stop-color="white" stop-opacity="0.8"/>
</linearGradient>
<linearGradient id="paint15_linear_4415_34592" x1="172.47" y1="84.6595" x2="171.153" y2="83.5191" gradientUnits="userSpaceOnUse">
<stop stop-color="white" stop-opacity="0"/>
<stop offset="1" stop-color="white" stop-opacity="0.8"/>
</linearGradient>
<linearGradient id="paint16_linear_4415_34592" x1="181.708" y1="55.0961" x2="180.391" y2="53.9557" gradientUnits="userSpaceOnUse">
<stop stop-color="white" stop-opacity="0"/>
<stop offset="1" stop-color="white" stop-opacity="0.8"/>
</linearGradient>
<linearGradient id="paint17_linear_4415_34592" x1="28.2471" y1="109.537" x2="56.1656" y2="135.782" gradientUnits="userSpaceOnUse">
<stop stop-color="#9FD7B1"/>
<stop offset="1" stop-color="#2B8473"/>
</linearGradient>
</defs>
</svg>
