<svg width="16" height="16" viewBox="0 0 16 16" xmlns="http://www.w3.org/2000/svg">
<path fill="currentColor" fill-rule="evenodd" clip-rule="evenodd" d="M10.5268 8.89972L7.51676 8.99972C7.22772 9.00933 6.99083 8.77244 7.00043 8.4834L7.10043 5.4734C7.10465 5.3466 7.1569 5.22615 7.24661 5.13645L12.2366 0.146447C12.4319 -0.0488155 12.7485 -0.0488155 12.9437 0.146447L15.8537 3.05645C16.049 3.25171 16.049 3.56829 15.8537 3.76355L10.8637 8.75355C10.774 8.84326 10.6536 8.89551 10.5268 8.89972ZM14.7931 3.41L12.5902 1.20711L8.09333 5.70394L8.01763 7.98253L10.2962 7.90683L14.7931 3.41ZM7.91016 1.5C7.91016 1.22386 7.6863 1 7.41016 1H2.09016C1.80595 0.994981 1.52354 1.10909 1.3164 1.31624C1.10925 1.52338 0.995139 1.80579 1.00023 2.0987L1.00016 13.91C0.995139 14.1942 1.10925 14.4766 1.3164 14.6838C1.52354 14.8909 1.80595 15.005 2.09886 14.9999L13.9102 15C14.1944 15.005 14.4768 14.8909 14.6839 14.6838C14.8911 14.4766 15.0052 14.1942 15.0001 13.9013L15.0002 8.59C15.0002 8.31386 14.7763 8.09 14.5002 8.09C14.224 8.09 14.0002 8.31386 14.0002 8.59V13.91C14.0006 13.9404 13.9922 13.9613 13.9768 13.9767C13.9615 13.992 13.9406 14.0005 13.9189 14.0001L2.09016 14C2.05977 14.0005 2.03885 13.992 2.0235 13.9767C2.00816 13.9613 1.99971 13.9404 2.00008 13.9187L2.00016 2.09C1.99971 2.05961 2.00816 2.03869 2.0235 2.02334C2.03885 2.008 2.05977 1.99955 2.08146 1.99992L7.41016 2C7.6863 2 7.91016 1.77614 7.91016 1.5Z" />
</svg>
