<svg width="16" height="16" viewBox="0 0 16 16" fill="none" xmlns="http://www.w3.org/2000/svg">
<g opacity="0.3">
<path opacity="0.3" d="M8 16C12.4183 16 16 12.4183 16 8C16 3.58172 12.4183 0 8 0C3.58172 0 0 3.58172 0 8C0 12.4183 3.58172 16 8 16Z" fill="#007D5A"/>
</g>
<path d="M11 6.25H10.5V5.25C10.5 3.87 9.38 2.75 8 2.75C6.62 2.75 5.5 3.87 5.5 5.25V6.25H5C4.45 6.25 4 6.7 4 7.25V12.25C4 12.8 4.45 13.25 5 13.25H11C11.55 13.25 12 12.8 12 12.25V7.25C12 6.7 11.55 6.25 11 6.25ZM8 10.75C7.45 10.75 7 10.3 7 9.75C7 9.2 7.45 8.75 8 8.75C8.55 8.75 9 9.2 9 9.75C9 10.3 8.55 10.75 8 10.75ZM6.5 6.25V5.25C6.5 4.42 7.17 3.75 8 3.75C8.83 3.75 9.5 4.42 9.5 5.25V6.25H6.5Z" fill="url(#paint0_linear_2075_8118)"/>
<defs>
<linearGradient id="paint0_linear_2075_8118" x1="4" y1="2.75" x2="12.1122" y2="2.83743" gradientUnits="userSpaceOnUse">
<stop offset="0.119792" stop-color="#003A57"/>
<stop offset="1" stop-color="#00B280"/>
</linearGradient>
</defs>
</svg>
