<svg width="32" height="32" viewBox="0 0 32 32" fill="none" xmlns="http://www.w3.org/2000/svg">
<circle cx="16" cy="16" r="16" fill="#F8F9F9"/>
<path d="M17.059 20.7647C17.059 20.1799 16.585 19.7059 16.0002 19.7059C15.4154 19.7059 14.9414 20.1799 14.9414 20.7647V23.9412C14.9414 24.5259 15.4154 25 16.0002 25C16.585 25 17.059 24.5259 17.059 23.9412V20.7647Z" fill="#D1820A"/>
<path d="M20.1149 18.6183C19.7014 18.2048 19.031 18.2048 18.6175 18.6183C18.204 19.0318 18.204 19.7022 18.6175 20.1157L20.8649 22.3631C21.2783 22.7766 21.9488 22.7766 22.3623 22.3631C22.7757 21.9496 22.7757 21.2792 22.3623 20.8657L20.1149 18.6183Z" fill="#D1820A"/>
<path d="M20.7649 14.9412C20.1802 14.9412 19.7061 15.4152 19.7061 16C19.7061 16.5848 20.1802 17.0588 20.7649 17.0588H23.9414C24.5262 17.0588 25.0002 16.5848 25.0002 16C25.0002 15.4152 24.5262 14.9412 23.9414 14.9412H20.7649Z" fill="#D1820A"/>
<path d="M13.3811 18.6183C13.7945 19.0318 13.7945 19.7022 13.3811 20.1157L11.1337 22.3631C10.7202 22.7766 10.0498 22.7766 9.63629 22.3631C9.2228 21.9496 9.2228 21.2792 9.63629 20.8657L11.8836 18.6183C12.2971 18.2048 12.9676 18.2048 13.3811 18.6183Z" fill="#D1820A"/>
<path d="M20.1149 18.6183C19.7014 18.2048 19.031 18.2048 18.6175 18.6183C18.204 19.0318 18.204 19.7022 18.6175 20.1157L20.8649 22.3631C21.2783 22.7766 21.9488 22.7766 22.3623 22.3631C22.7757 21.9496 22.7757 21.2792 22.3623 20.8657L20.1149 18.6183Z" fill="#FBE1AC"/>
<path d="M20.7649 14.9412C20.1802 14.9412 19.7061 15.4152 19.7061 16C19.7061 16.5848 20.1802 17.0588 20.7649 17.0588H23.9414C24.5262 17.0588 25.0002 16.5848 25.0002 16C25.0002 15.4152 24.5262 14.9412 23.9414 14.9412H20.7649Z" fill="#FBE1AC"/>
<path d="M16 7C16.5848 7 17.0588 7.47405 17.0588 8.05882V11.2353C17.0588 11.8201 16.5848 12.2941 16 12.2941C15.4152 12.2941 14.9412 11.8201 14.9412 11.2353V8.05882C14.9412 7.47405 15.4152 7 16 7Z" fill="#F7BF50"/>
<path d="M9.63607 9.63685C10.0496 9.22335 10.72 9.22335 11.1335 9.63685L13.3808 11.8842C13.7943 12.2977 13.7943 12.9681 13.3808 13.3816C12.9673 13.7951 12.2969 13.7951 11.8834 13.3816L9.63608 11.1343C9.22258 10.7208 9.22258 10.0503 9.63607 9.63685Z" fill="#F7BF50"/>
<path d="M7 16C7 15.4152 7.47405 14.9412 8.05882 14.9412H11.2353C11.8201 14.9412 12.2941 15.4152 12.2941 16C12.2941 16.5848 11.8201 17.0588 11.2353 17.0588H8.05882C7.47405 17.0588 7 16.5848 7 16Z" fill="#F7BF50"/>
<path d="M22.362 11.1343C22.7755 10.7208 22.7755 10.0503 22.362 9.63685C21.9485 9.22335 21.2781 9.22335 20.8646 9.63685L18.6173 11.8842C18.2038 12.2977 18.2038 12.9681 18.6173 13.3816C19.0308 13.7951 19.7012 13.7951 20.1147 13.3816L22.362 11.1343Z" fill="#F7BF50"/>
</svg>
