<svg width="22" height="22" viewBox="0 0 22 22" fill="none" xmlns="http://www.w3.org/2000/svg">
	<path fill-rule="evenodd" clip-rule="evenodd" d="M18.5 5H12.25V4.375C12.25 3.34232 11.4077 2.5 10.375 2.5H4.125C3.09232 2.5 2.25 3.34232 2.25 4.375V10.005C1.53426 10.0685 1.01354 10.7329 1.1335 11.4527L2.171 17.7027C2.27098 18.3026 2.79293 18.75 3.4 18.75H18.6C19.2071 18.75 19.729 18.3026 19.829 17.7027L20.8666 11.4523C20.9865 10.7329 20.4657 10.0685 19.75 10.005V6.25C19.75 5.55482 19.1952 5 18.5 5ZM19.633 11.25H2.36695L3.404 17.4973C3.40404 17.4974 18.6 17.5 18.6 17.5C18.5929 17.5 19.633 11.25 19.633 11.25ZM3.5 10H18.5V6.25H11V4.375C11 4.03268 10.7173 3.75 10.375 3.75H4.125C3.78268 3.75 3.5 4.03268 3.5 4.375V10Z" fill="#336179" stroke="#336179" />
</svg>
