<svg width="26" height="26" viewBox="0 0 26 26" fill="none" xmlns="http://www.w3.org/2000/svg">
	<path fill-rule="evenodd" clip-rule="evenodd" d="M20.5 8H14.25V7.375C14.25 6.34232 13.4077 5.5 12.375 5.5H6.125C5.09232 5.5 4.25 6.34232 4.25 7.375V13.005C3.53426 13.0685 3.01354 13.7329 3.1335 14.4527L4.171 20.7027C4.27098 21.3026 4.79293 21.75 5.4 21.75H20.6C21.2071 21.75 21.729 21.3026 21.829 20.7027L22.8666 14.4523C22.9865 13.7329 22.4657 13.0685 21.75 13.005V9.25C21.75 8.55482 21.1952 8 20.5 8ZM21.633 14.25H4.36695L5.404 20.4973C5.40404 20.4974 20.6 20.5 20.6 20.5C20.5929 20.5 21.633 14.25 21.633 14.25ZM5.5 13H20.5V9.25H13V7.375C13 7.03268 12.7173 6.75 12.375 6.75H6.125C5.78268 6.75 5.5 7.03268 5.5 7.375V13Z" fill="#336179" stroke="#336179"/>
</svg>
