<svg width="16" height="16" viewBox="0 0 16 16" fill="#68737D" xmlns="http://www.w3.org/2000/svg">
<path fill-rule="evenodd" clip-rule="evenodd" d="M7.99997 11.5C8.55226 11.5 8.99997 11.0523 8.99997 10.5V9.4C8.99997 8.83787 9.33361 8.32072 9.92997 7.948C11.3791 7.15957 12.2479 5.53522 11.9883 3.84794C11.7161 2.21413 10.3858 0.883851 8.76437 0.613605C6.74482 0.234732 4.81137 1.36258 4.24419 3.20591C4.08177 3.73378 4.37802 4.29336 4.90589 4.45578C5.43375 4.6182 5.99333 4.32195 6.15575 3.79409C6.41982 2.93586 7.36323 2.38554 8.41568 2.58287C9.2141 2.71615 9.88382 3.38587 10.0136 4.1644C10.139 4.98036 9.70294 5.79565 8.92112 6.2221C7.72579 6.96712 6.99997 8.09213 6.99997 9.4V10.5C6.99997 11.0523 7.44769 11.5 7.99997 11.5ZM7.99997 15.5C8.8284 15.5 9.49997 14.8284 9.49997 14C9.49997 13.1716 8.8284 12.5 7.99997 12.5C7.17155 12.5 6.49997 13.1716 6.49997 14C6.49997 14.8284 7.17155 15.5 7.99997 15.5Z"/>
</svg>
