<svg width="26" height="26" viewBox="0 0 26 26" fill="none" xmlns="http://www.w3.org/2000/svg">
	<g clip-path="url(#clip0_21_19131)">
		<path d="M26.5525 13C26.5525 20.1796 20.6084 26 13.2762 26C5.94481 26 0 20.1796 0 13C0 5.82111 5.94481 0 13.2762 0C20.6084 0 26.5525 5.82111 26.5525 13Z" fill="#E9979B" />
		<path d="M18.7975 21.5782C18.7643 21.4489 17.9361 18.4155 13.2768 18.4155C8.61687 18.4155 7.78931 21.4489 7.75612 21.5782C7.73674 21.6544 7.74333 21.7347 7.77489 21.807C7.80644 21.8792 7.86124 21.9393 7.93093 21.9783C8.001 22.0168 8.08189 22.0322 8.1616 22.0222C8.24131 22.0121 8.3156 21.9773 8.37347 21.9227C8.38748 21.9089 9.81468 20.5822 13.2768 20.5822C16.739 20.5822 18.1669 21.9089 18.1802 21.9219C18.2373 21.9772 18.3112 22.0128 18.3907 22.0233C18.4703 22.0339 18.5512 22.0188 18.6213 21.9804C18.6916 21.9415 18.7469 21.8811 18.7787 21.8084C18.8106 21.7358 18.8172 21.6549 18.7975 21.5782ZM11.5856 12.4883C9.18479 10.1374 5.32657 10.11 5.16357 10.11C4.97366 10.1182 4.7943 10.1978 4.66285 10.3323C4.5314 10.4668 4.45798 10.6457 4.45789 10.8319C4.45779 11.018 4.53102 11.197 4.66234 11.3316C4.79365 11.4662 4.97293 11.546 5.16283 11.5544C5.18422 11.5544 6.58265 11.5703 8.10057 12.0867C7.66319 12.5489 7.37628 13.2668 7.37628 14.0822C7.37628 15.479 8.20162 16.61 9.2202 16.61C10.2388 16.61 11.0641 15.479 11.0641 14.0822C11.0641 13.9565 11.0501 13.8367 11.0368 13.716C11.0464 13.716 11.0553 13.7211 11.0641 13.7211C11.2101 13.7214 11.3529 13.6792 11.4744 13.5999C11.5959 13.5206 11.6906 13.4078 11.7465 13.2757C11.8024 13.1436 11.8169 12.9982 11.7883 12.858C11.7596 12.7178 11.6891 12.5891 11.5856 12.4883ZM21.3901 10.11C21.2271 10.11 17.3696 10.1374 14.9681 12.4883C14.8646 12.5891 14.794 12.7178 14.7654 12.858C14.7367 12.9982 14.7513 13.1436 14.8072 13.2757C14.863 13.4078 14.9577 13.5206 15.0792 13.5999C15.2007 13.6792 15.3435 13.7214 15.4895 13.7211C15.4991 13.7211 15.5072 13.716 15.5161 13.716C15.5043 13.8367 15.4895 13.9565 15.4895 14.0822C15.4895 15.479 16.3149 16.61 17.3335 16.61C18.352 16.61 19.1774 15.479 19.1774 14.0822C19.1774 13.2668 18.8905 12.5489 18.4531 12.0867C19.4008 11.77 20.3908 11.5907 21.3916 11.5544C21.4884 11.5543 21.5843 11.5356 21.6738 11.4992C21.7632 11.4628 21.8445 11.4095 21.9129 11.3424C21.9813 11.2753 22.0356 11.1956 22.0725 11.1079C22.1095 11.0203 22.1285 10.9263 22.1284 10.8315C22.1283 10.7366 22.1091 10.6427 22.072 10.5552C22.0348 10.4676 21.9804 10.388 21.9118 10.321C21.8433 10.254 21.7619 10.2009 21.6724 10.1647C21.5829 10.1285 21.4869 10.1099 21.3901 10.11Z" fill="#2F3941" />
	</g>
	<defs>
		<clipPath id="clip0_21_19131">
			<rect width="26.5525" height="26" fill="white" />
		</clipPath>
	</defs>
</svg>
