<svg width="26" height="26" viewBox="0 0 26 26" fill="none" xmlns="http://www.w3.org/2000/svg">
	<g clip-path="url(#clip0_21_19125)">
		<path d="M25.2051 13C25.2051 20.1796 19.5626 26 12.6025 26C5.64314 26 0 20.1796 0 13C0 5.82111 5.64314 0 12.6025 0C19.5626 0 25.2051 5.82111 25.2051 13Z" fill="#66D1B3" />
		<path d="M7.36209 16.8093C7.39359 16.9386 8.17985 19.9719 12.6026 19.9719C17.0261 19.9719 17.8117 16.9386 17.8432 16.8093C17.8616 16.7331 17.8553 16.6527 17.8254 16.5805C17.7954 16.5083 17.7434 16.4481 17.6773 16.4092C17.6108 16.3704 17.534 16.3549 17.4583 16.3649C17.3825 16.3749 17.312 16.41 17.2572 16.4648C17.2439 16.4785 15.8891 17.8052 12.6026 17.8052C9.31618 17.8052 7.96071 16.4785 7.94811 16.4655C7.8939 16.4103 7.82375 16.3747 7.74824 16.3641C7.67272 16.3536 7.59592 16.3686 7.52942 16.407C7.46268 16.4459 7.41016 16.5063 7.37993 16.579C7.3497 16.6517 7.34343 16.7326 7.36209 16.8093Z" fill="#2F3941" />
		<path d="M8.4016 12.0267C9.36829 12.0267 10.152 10.895 10.152 9.49897C10.152 8.10292 9.36829 6.97119 8.4016 6.97119C7.4349 6.97119 6.65125 8.10292 6.65125 9.49897C6.65125 10.895 7.4349 12.0267 8.4016 12.0267Z" fill="#2F3941" />
		<path d="M16.8032 12.0267C17.7699 12.0267 18.5536 10.895 18.5536 9.49897C18.5536 8.10292 17.7699 6.97119 16.8032 6.97119C15.8365 6.97119 15.0529 8.10292 15.0529 9.49897C15.0529 10.895 15.8365 12.0267 16.8032 12.0267Z" fill="#2F3941" />
	</g>
	<defs>
		<clipPath id="clip0_21_19125">
			<rect width="25.2051" height="26" fill="white" />
		</clipPath>
	</defs>
</svg>
