<svg width="65" height="64" viewBox="0 0 65 64" fill="none" xmlns="http://www.w3.org/2000/svg">
<path opacity="0.1" d="M32.832 64C50.5051 64 64.832 49.6731 64.832 32C64.832 14.3269 50.5051 0 32.832 0C15.1589 0 0.832031 14.3269 0.832031 32C0.832031 49.6731 15.1589 64 32.832 64Z" fill="#003A57"/>
<path opacity="0.8" d="M24.9658 40.756L35.6769 35.5115C35.8251 35.4523 35.951 35.3708 36.0547 35.2671C36.1584 35.1634 36.2399 35.0375 36.2991 34.8893L41.5436 24.1782C41.6917 23.8819 41.6547 23.6227 41.4325 23.4004C41.2102 23.1782 40.951 23.1412 40.6547 23.2893L29.9436 28.5338C29.7954 28.593 29.6695 28.6745 29.5658 28.7782C29.4621 28.8819 29.3806 29.0078 29.3214 29.156L24.0769 39.8671C23.9288 40.1634 23.9658 40.4227 24.188 40.6449C24.4102 40.8671 24.6695 40.9041 24.9658 40.756ZM32.8325 33.7782C32.3288 33.7782 31.9065 33.6078 31.5658 33.2671C31.2251 32.9264 31.0547 32.5041 31.0547 32.0004C31.0547 31.4967 31.2251 31.0745 31.5658 30.7338C31.9065 30.393 32.3288 30.2227 32.8325 30.2227C33.3362 30.2227 33.7584 30.393 34.0991 30.7338C34.4399 31.0745 34.6102 31.4967 34.6102 32.0004C34.6102 32.5041 34.4399 32.9264 34.0991 33.2671C33.7584 33.6078 33.3362 33.7782 32.8325 33.7782ZM32.8325 49.7782C30.4028 49.7782 28.1065 49.3115 25.9436 48.3782C23.7806 47.4449 21.8917 46.1708 20.2769 44.556C18.6621 42.9412 17.388 41.0523 16.4547 38.8893C15.5214 36.7264 15.0547 34.4301 15.0547 32.0004C15.0547 29.5708 15.5214 27.2745 16.4547 25.1115C17.388 22.9486 18.6621 21.0597 20.2769 19.4449C21.8917 17.8301 23.7806 16.556 25.9436 15.6227C28.1065 14.6893 30.4028 14.2227 32.8325 14.2227C35.2621 14.2227 37.5584 14.6893 39.7214 15.6227C41.8843 16.556 43.7732 17.8301 45.388 19.4449C47.0028 21.0597 48.2769 22.9486 49.2102 25.1115C50.1436 27.2745 50.6102 29.5708 50.6102 32.0004C50.6102 34.4301 50.1436 36.7264 49.2102 38.8893C48.2769 41.0523 47.0028 42.9412 45.388 44.556C43.7732 46.1708 41.8843 47.4449 39.7214 48.3782C37.5584 49.3115 35.2621 49.7782 32.8325 49.7782Z" fill="#336179"/>
</svg>
