<svg width="120" height="120" viewBox="0 0 120 120" fill="none" xmlns="http://www.w3.org/2000/svg">
    <path d="M95.4689 52.5738C93.5857 60.3749 87.1908 66.0818 80.1604 69.9654C73.3686 73.7172 65.5872 74.9376 58.0083 73.2672C50.1569 71.5368 42.7598 67.5645 38.4641 60.7757C34.0615 53.8182 32.7877 45.1116 35.2147 37.2459C37.5415 29.705 43.9283 24.4851 50.8405 20.6645C57.5002 16.9834 65.054 14.8288 72.4387 16.6707C79.8546 18.5204 85.5971 23.9338 89.7207 30.3623C94.0144 37.0559 97.3346 44.8455 95.4689 52.5738Z" fill="#F1F9F3" />
    <path d="M46 39C46 36.7909 47.7909 35 50 35H70C72.2091 35 74 36.7909 74 39V81C74 83.2091 72.2091 85 70 85H50C47.7909 85 46 83.2091 46 81V39Z" fill="#F8F9F9" />
    <path d="M62 79C62 80.1046 61.1046 81 60 81C58.8954 81 58 80.1046 58 79C58 77.8954 58.8954 77 60 77C61.1046 77 62 77.8954 62 79Z" fill="#F8F9F9" />
    <path d="M50 36H70V34H50V36ZM73 39V81H75V39H73ZM70 84H50V86H70V84ZM47 81V39H45V81H47ZM50 84C48.3431 84 47 82.6569 47 81H45C45 83.7614 47.2386 86 50 86V84ZM73 81C73 82.6569 71.6569 84 70 84V86C72.7614 86 75 83.7614 75 81H73ZM70 36C71.6569 36 73 37.3431 73 39H75C75 36.2386 72.7614 34 70 34V36ZM50 34C47.2386 34 45 36.2386 45 39H47C47 37.3431 48.3431 36 50 36V34ZM61 79C61 79.5523 60.5523 80 60 80V82C61.6569 82 63 80.6569 63 79H61ZM60 80C59.4477 80 59 79.5523 59 79H57C57 80.6569 58.3431 82 60 82V80ZM59 79C59 78.4477 59.4477 78 60 78V76C58.3431 76 57 77.3431 57 79H59ZM60 78C60.5523 78 61 78.4477 61 79H63C63 77.3431 61.6569 76 60 76V78Z" fill="#336179" />
    <g filter="url(#filter0_d_811_22374)">
        <rect x="50" y="42" width="20" height="16" rx="2" fill="white" />
        <rect x="51" y="43" width="18" height="14" rx="1" stroke="white" stroke-width="2" stroke-linejoin="round" />
    </g>
    <path d="M57.857 52.4995H53.5395C53.3095 52.4969 53.0886 52.4096 52.9189 52.2543C52.7492 52.0991 52.6426 51.8868 52.6195 51.658V51.658C52.6068 51.5504 52.6173 51.4413 52.6503 51.3381C52.6833 51.2348 52.7381 51.1399 52.8109 51.0596C52.8837 50.9794 52.9729 50.9157 53.0724 50.8728C53.172 50.83 53.2795 50.809 53.3879 50.8112H57.7107C57.9411 50.8152 58.1621 50.9036 58.3316 51.0597C58.5012 51.2158 58.6076 51.4287 58.6306 51.658V51.658C58.6417 51.7655 58.6299 51.8741 58.5959 51.9767C58.5619 52.0793 58.5065 52.1734 58.4334 52.253C58.3602 52.3326 58.271 52.3957 58.1717 52.4382C58.0723 52.4807 57.9651 52.5016 57.857 52.4995V52.4995Z" fill="#70C38A" />
    <path d="M60.857 55.4995H53.5395C53.3095 55.4969 53.0886 55.4096 52.9189 55.2543C52.7492 55.0991 52.6426 54.8868 52.6195 54.658C52.6068 54.5504 52.6173 54.4413 52.6503 54.3381C52.6833 54.2348 52.7381 54.1399 52.8109 54.0596C52.8837 53.9794 52.9729 53.9157 53.0724 53.8728C53.172 53.83 53.2795 53.809 53.3879 53.8112H60.7107C60.9411 53.8152 61.1621 53.9036 61.3316 54.0597C61.5012 54.2158 61.6076 54.4287 61.6306 54.658C61.6417 54.7655 61.6299 54.8741 61.5959 54.9767C61.5619 55.0793 61.5065 55.1734 61.4334 55.253C61.3602 55.3326 61.271 55.3957 61.1717 55.4382C61.0723 55.4807 60.9651 55.5016 60.857 55.4995Z" fill="#2B8473" />
    <path d="M52 63H68C68.5523 63 69 63.4477 69 64V71H51V64C51 63.4477 51.4477 63 52 63Z" fill="white" stroke="white" stroke-width="2" stroke-linejoin="round" />
    <defs>
        <filter id="filter0_d_811_22374" x="42" y="38" width="36" height="32" filterUnits="userSpaceOnUse" color-interpolation-filters="sRGB">
            <feFlood flood-opacity="0" result="BackgroundImageFix" />
            <feColorMatrix in="SourceAlpha" type="matrix" values="0 0 0 0 0 0 0 0 0 0 0 0 0 0 0 0 0 0 127 0" result="hardAlpha" />
            <feOffset dy="4" />
            <feGaussianBlur stdDeviation="4" />
            <feColorMatrix type="matrix" values="0 0 0 0 0.184314 0 0 0 0 0.223529 0 0 0 0 0.254902 0 0 0 0.15 0" />
            <feBlend mode="normal" in2="BackgroundImageFix" result="effect1_dropShadow_811_22374" />
            <feBlend mode="normal" in="SourceGraphic" in2="effect1_dropShadow_811_22374" result="shape" />
        </filter>
    </defs>
</svg>