<svg width="18" height="18" viewBox="0 0 18 18" fill="none" xmlns="http://www.w3.org/2000/svg">
<path d="M16.1025 7.39L17.1625 6.33C17.9425 5.55 17.9425 4.28 17.1625 3.5L15.7525 2.09C14.9725 1.31 13.7025 1.31 12.9225 2.09L11.8625 3.15L16.1025 7.39ZM11.8625 8.81L4.6625 16H3.2525V14.59L10.4425 7.4L11.8625 8.81ZM10.4425 4.56L1.2525 13.76V18H5.4925L14.6825 8.81L10.4425 4.56ZM16.2525 14.5C16.2525 16.69 13.7125 18 11.2525 18C10.7025 18 10.2525 17.55 10.2525 17C10.2525 16.45 10.7025 16 11.2525 16C12.7925 16 14.2525 15.27 14.2525 14.5C14.2525 14.03 13.7725 13.63 13.0225 13.3L14.5025 11.82C15.5725 12.45 16.2525 13.29 16.2525 14.5ZM1.8325 10.35C0.862502 9.79 0.252502 9.06 0.252502 8C0.252502 6.2 2.1425 5.37 3.8125 4.64C4.8425 4.18 6.2525 3.56 6.2525 3C6.2525 2.59 5.4725 2 4.2525 2C2.9925 2 2.4525 2.61 2.4225 2.64C2.0725 3.05 1.4425 3.1 1.0225 2.76C0.612502 2.42 0.532502 1.81 0.872502 1.38C0.982502 1.24 2.0125 0 4.2525 0C6.4925 0 8.2525 1.32 8.2525 3C8.2525 4.87 6.3225 5.72 4.6125 6.47C3.6725 6.88 2.2525 7.5 2.2525 8C2.2525 8.31 2.6825 8.6 3.3225 8.86L1.8325 10.35Z" fill="#E34F32"/>
</svg>
