<svg width="26" height="26" viewBox="0 0 26 26" fill="none" xmlns="http://www.w3.org/2000/svg">
    <path fill-rule="evenodd" clip-rule="evenodd" d="M8 5H3.5C3.2 5 3 5.2 3 5.5V18.5C3 18.8 3.2 19 3.5 19H7C10 19 11 21 11 21H12V7C12 6.9 11 5 8 5ZM9 15H6C5.5 15 5 14.5 5 14C5 13.5 5.5 13 6 13H9C9.5 13 10 13.5 10 14C10 14.5 9.5 15 9 15ZM9 11H6C5.5 11 5 10.5 5 10C5 9.5 5.5 9 6 9H9C9.5 9 10 9.5 10 10C10 10.5 9.5 11 9 11ZM14 7V21H15C15 21 16 19 19 19H22.5C22.8 19 23 18.8 23 18.5V5.5C23 5.2 22.8 5 22.5 5H18C15 5 14 6.9 14 7ZM16 14C16 13.5 16.5 13 17 13H20C20.5 13 21 13.5 21 14C21 14.5 20.5 15 20 15H17C16.5 15 16 14.5 16 14ZM16 10C16 9.5 16.5 9 17 9H20C20.5 9 21 9.5 21 10C21 10.5 20.5 11 20 11H17C16.5 11 16 10.5 16 10Z" fill="url(#paint0_linear_342_21583)" />
    <defs>
        <linearGradient id="paint0_linear_342_21583" x1="3" y1="5" x2="23.2766" y2="5.35853" gradientUnits="userSpaceOnUse">
            <stop stop-color="#001825" />
            <stop offset="1" stop-color="#003A57" />
        </linearGradient>
    </defs>
</svg>
    