<svg width="16" height="16" viewBox="0 0 16 16" fill="none" xmlns="http://www.w3.org/2000/svg">
<path fill-rule="evenodd" clip-rule="evenodd" d="M13.5 15C14.2828 15 14.8192 11.8284 15 7.5C15 7.22386 14.7761 7 14.5 7H9.5C9.22386 7 9 6.77614 9 6.5V2C9 1.44772 8.55229 1 8 1C7.44772 1 7 1.44772 7 2C7 4.97341 6.19918 6.46065 5.02719 6.8454C5.01015 6.85409 4.99957 6.87174 5 6.9L4.99891 15C4.99927 15 13.5 15 13.5 15ZM10 6H14.5C15.3284 6 16 6.67157 15.9996 7.52082C15.7692 13.0486 15.2701 16 13.5 16L5.03301 15.9989C4.75408 16.0174 4.48075 15.9146 4.28308 15.7169C4.08542 15.5193 3.98264 15.2459 4 15L4.00008 6.90914C3.99274 6.50762 4.21507 6.13707 4.64189 5.92566C5.41645 5.66747 6 4.58373 6 2C6 0.89543 6.89543 0 8 0C9.10457 0 10 0.89543 10 2V6ZM1 7V15H2V7H1ZM1 6H2C2.55228 6 3 6.44772 3 7V15C3 15.5523 2.55228 16 2 16H1C0.447715 16 0 15.5523 0 15V7C0 6.44772 0.447715 6 1 6Z" fill="#68737D"/>
</svg>
