<?xml version="1.0" encoding="UTF-8"?>
<svg fill="none" viewBox="0 0 32 32" xmlns="http://www.w3.org/2000/svg">
<g clip-path="url(#a)">
<path d="m32 16c0 8.8363-7.1635 16-16 16-8.8369 0-16-7.1635-16-16 0-8.8367 7.1632-16 16-16 8.8364 0 16 7.1632 16 16z" clip-rule="evenodd" fill="#9FD7B1" fill-rule="evenodd"/>
<rect x="4.129" y="4.129" width="23.742" height="23.742" rx="11.871" fill="#003A57"/>
<path d="m18.662 16.433v1.1544h-0.0144c-0.1011 1.6739-1.0246 2.6263-2.5686 2.6263-1.645 0-2.6263-0.9524-2.7273-2.6263h-0.0144v-1.1544h-2.3377v1.1688c0.1299 2.9149 2.0924 4.7764 5.065 4.7764 2.9437 0 4.8052-1.8182 4.9351-4.7764v-1.1688h-2.3377z" fill="#fff"/>
<path d="m13.367 10.545h-2.3522v2.3521h2.3522v-2.3521z" fill="#54C38A"/>
<path d="m20.986 10.545h-2.381v2.381h2.381v-2.381z" fill="#fff"/>
</g>
<defs>
<clipPath id="a">
<rect width="32" height="32" fill="#fff"/>
</clipPath>
</defs>
</svg>
