<svg width="16" height="16" viewBox="0 0 16 16" fill="#68737D" xmlns="http://www.w3.org/2000/svg">
<path fill-rule="evenodd" clip-rule="evenodd" d="M6 8.31C6.0087 8.47711 5.93254 8.63735 5.79747 8.73613C5.6624 8.83491 5.48662 8.85893 5.33 8.8C5 8.68 4.71 8.5 4.45 8.31C3.9 8.73 3.26 9 2.5 9C2.22 9 2 8.78 2 8.5C2 8.22 2.22 8 2.5 8C2.94 8 3.34 7.86 3.69 7.63C2.9 6.73 2.55 5.72 2.53 5.66C2.44 5.4 2.58 5.11 2.84 5.03C3.1 4.94 3.39 5.08 3.47 5.34C3.47 5.35 3.78 6.21 4.43 6.95C5.19 6.04 5.64 4.75 5.86 4H2.5C2.22 4 2 3.78 2 3.5C2 3.22 2.22 3 2.5 3H4V2.5C4 2.22 4.22 2 4.5 2C4.78 2 5 2.22 5 2.5V3H6.5C6.65 3 6.79 3.07 6.89 3.18C6.98 3.3 7.02 3.45 6.99 3.6C6.98 3.65 6.91 3.98 6.77 4.43C7.11 4.17 7.53 4 8 4H9V1C9 0.45 8.55 0 8 0H1C0.45 0 0 0.45 0 1V10C0 10.55 0.45 11 1 11H6V8.31ZM5.67 7.86C5.86 7.93 5.99 8.1 6 8.29V6.35C5.77 6.79 5.5 7.22 5.18 7.61C5.33 7.71 5.49 7.79 5.67 7.86ZM15 5H8C7.45 5 7 5.45 7 6V15C7 15.55 7.45 16 8 16H15C15.55 16 16 15.55 16 15V6C16 5.45 15.55 5 15 5ZM13.7 12.96C13.4459 13.0656 13.1538 12.9505 13.04 12.7L12.73 12H10.27L9.96 12.7C9.85 12.95 9.55 13.07 9.3 12.95C9.05 12.83 8.93 12.54 9.05 12.29L11.05 7.79C11.21 7.43 11.8 7.43 11.96 7.79L13.96 12.29C14.07 12.55 13.96 12.84 13.7 12.96ZM10.71 11H12.29L11.5 9.23L10.71 11Z" />
</svg>
