<svg width="18" height="18" viewBox="0 0 18 18" fill="none" xmlns="http://www.w3.org/2000/svg">
<path d="M0 8H8V0H0V8ZM2 2H6V6H2V2Z" fill="url(#paint0_linear_2041_2407)"/>
<path d="M10 0V8H18V0H10ZM16 6H12V2H16V6Z" fill="url(#paint1_linear_2041_2407)"/>
<path d="M0 18H8V10H0V18ZM2 12H6V16H2V12Z" fill="url(#paint2_linear_2041_2407)"/>
<path d="M15 10H13V13H10V15H13V18H15V15H18V13H15V10Z" fill="url(#paint3_linear_2041_2407)"/>
<defs>
<linearGradient id="paint0_linear_2041_2407" x1="9" y1="0" x2="9" y2="18" gradientUnits="userSpaceOnUse">
<stop stop-color="#4CA4DE" stop-opacity="0.7"/>
<stop offset="0.985" stop-color="#5847F6"/>
</linearGradient>
<linearGradient id="paint1_linear_2041_2407" x1="9" y1="0" x2="9" y2="18" gradientUnits="userSpaceOnUse">
<stop stop-color="#4CA4DE" stop-opacity="0.7"/>
<stop offset="0.985" stop-color="#5847F6"/>
</linearGradient>
<linearGradient id="paint2_linear_2041_2407" x1="9" y1="0" x2="9" y2="18" gradientUnits="userSpaceOnUse">
<stop stop-color="#4CA4DE" stop-opacity="0.7"/>
<stop offset="0.985" stop-color="#5847F6"/>
</linearGradient>
<linearGradient id="paint3_linear_2041_2407" x1="9" y1="0" x2="9" y2="18" gradientUnits="userSpaceOnUse">
<stop stop-color="#4CA4DE" stop-opacity="0.7"/>
<stop offset="0.985" stop-color="#5847F6"/>
</linearGradient>
</defs>
</svg>
