<svg width="16" height="16" viewBox="0 0 16 16" fill="none" xmlns="http://www.w3.org/2000/svg">
<g opacity="0.3">
<path opacity="0.3" d="M8 16C12.4183 16 16 12.4183 16 8C16 3.58172 12.4183 0 8 0C3.58172 0 0 3.58172 0 8C0 12.4183 3.58172 16 8 16Z" fill="#02908B"/>
</g>
<path fill-rule="evenodd" clip-rule="evenodd" d="M5.25104 6.88253C6.1851 6.88253 6.94231 6.12533 6.94231 5.19127C6.94231 4.25721 6.1851 3.5 5.25104 3.5C4.31698 3.5 3.55978 4.25721 3.55978 5.19127C3.55978 6.12533 4.31698 6.88253 5.25104 6.88253ZM11.6779 6.88253C11.6779 8.0034 10.7692 8.91205 9.64833 8.91205C8.52746 8.91205 7.61881 8.0034 7.61881 6.88253C7.61881 5.76166 8.52746 4.85301 9.64833 4.85301C10.7692 4.85301 11.6779 5.76166 11.6779 6.88253ZM6.62435 12.9711C6.52964 12.9711 6.43493 12.9305 6.37404 12.8561C6.31316 12.7817 6.27933 12.687 6.29286 12.5922C6.46875 10.8807 7.91648 9.58856 9.64157 9.58856C11.3667 9.58856 12.8076 10.8807 12.997 12.599C13.0106 12.6937 12.9767 12.7884 12.9159 12.8628C12.855 12.9373 12.7535 12.9711 12.6588 12.9711H6.62435ZM7.16556 9.58856H3.33653C3.22829 9.58856 3.12681 9.53443 3.05916 9.44649C2.99855 9.3545 2.98358 9.23975 3.01857 9.1353C3.35517 8.19114 4.24868 7.56027 5.25104 7.55904C6.25227 7.55904 7.15203 8.19495 7.48351 9.14206C7.51734 9.24354 7.50381 9.35854 7.44292 9.45325C7.38204 9.53444 7.2738 9.58856 7.16556 9.58856Z" fill="#02908B"/>
</svg>
