<svg width="27" height="26" viewBox="0 0 27 26" fill="none" xmlns="http://www.w3.org/2000/svg">
	<g clip-path="url(#clip0_21_19127)">
		<path d="M26.5525 13C26.5525 20.1796 20.6084 26 13.2762 26C5.94481 26 0 20.1796 0 13C0 5.82111 5.94481 0 13.2762 0C20.6084 0 26.5525 5.82111 26.5525 13Z" fill="#B3E8D9" />
		<path d="M7.75559 16.8093C7.78879 16.9386 8.61708 19.9719 13.2763 19.9719C17.9363 19.9719 18.7638 16.9386 18.797 16.8093C18.8164 16.7331 18.8098 16.6527 18.7782 16.5805C18.7467 16.5083 18.6919 16.4481 18.6222 16.4092C18.5522 16.3704 18.4713 16.3549 18.3915 16.3649C18.3117 16.3749 18.2374 16.41 18.1797 16.4648C18.1656 16.4785 16.7384 17.8052 13.2763 17.8052C9.81415 17.8052 8.38622 16.4785 8.37294 16.4655C8.31584 16.4103 8.24194 16.3747 8.16239 16.3641C8.08283 16.3536 8.00193 16.3686 7.93187 16.407C7.86156 16.4459 7.80623 16.5063 7.77439 16.579C7.74254 16.6517 7.73594 16.7326 7.75559 16.8093Z" fill="#2F3941" />
		<path d="M8.85076 12.0267C9.86913 12.0267 10.6947 10.895 10.6947 9.49897C10.6947 8.10292 9.86913 6.97119 8.85076 6.97119C7.83239 6.97119 7.00684 8.10292 7.00684 9.49897C7.00684 10.895 7.83239 12.0267 8.85076 12.0267Z" fill="#2F3941" />
		<path d="M17.7015 12.0267C18.7198 12.0267 19.5454 10.895 19.5454 9.49897C19.5454 8.10292 18.7198 6.97119 17.7015 6.97119C16.6831 6.97119 15.8575 8.10292 15.8575 9.49897C15.8575 10.895 16.6831 12.0267 17.7015 12.0267Z" fill="#2F3941" />
	</g>
	<defs>
		<clipPath id="clip0_21_19127">
			<rect width="26.5525" height="26" fill="white" />
		</clipPath>
	</defs>
</svg>
