<svg width="12" height="12" viewBox="0 0 12 12" fill="none" xmlns="http://www.w3.org/2000/svg">
<g id="bug-solid" clip-path="url(#clip0_2456_186)">
<path id="Vector" d="M11.9997 6.77109C11.9885 7.17961 11.6431 7.5 11.2344 7.5H9.93748V7.875C9.93748 8.38744 9.82306 8.87306 9.61873 9.30809L11.0303 10.7197C11.3232 11.0126 11.3232 11.4874 11.0303 11.7803C10.7374 12.0732 10.2625 12.0732 9.96964 11.7803L8.68676 10.4975C8.10669 10.9679 7.36759 11.25 6.56248 11.25V5.53125C6.56248 5.37593 6.43655 5.25 6.28123 5.25H5.71873C5.56341 5.25 5.43748 5.37593 5.43748 5.53125V11.25C4.63238 11.25 3.89328 10.9679 3.3132 10.4975L2.03033 11.7803C1.73741 12.0732 1.26254 12.0732 0.969642 11.7803C0.676767 11.4874 0.676767 11.0126 0.969642 10.7197L2.38124 9.30809C2.17691 8.87306 2.06249 8.38744 2.06249 7.875V7.5H0.765595C0.356939 7.5 0.0114937 7.17961 0.00029053 6.77109C-0.0113579 6.34725 0.328767 6 0.749986 6H2.06249V4.62316L0.969642 3.53032C0.676767 3.23742 0.676767 2.76255 0.969642 2.46966C1.26256 2.17676 1.73741 2.17676 2.03033 2.46966L3.31065 3.75H8.6893L9.96962 2.46968C10.2625 2.17678 10.7374 2.17678 11.0303 2.46968C11.3232 2.76258 11.3232 3.23745 11.0303 3.53034L9.93748 4.62316V6H11.25C11.6712 6 12.0113 6.34725 11.9997 6.77109ZM6.02342 0C4.57367 0 3.39842 1.17525 3.39842 2.625H8.64842C8.64842 1.17525 7.47317 0 6.02342 0Z" fill="#68737D"/>
</g>
<defs>
<clipPath id="clip0_2456_186">
<rect width="12" height="12" fill="currentColor"/>
</clipPath>
</defs>
</svg>
