<svg
        width="48"
        height="48"
        viewBox="0 0 48 48"
        fill="none"
        xmlns="http://www.w3.org/2000/svg"
      >
        <g clip-path="url(#clip0_2030_12770)">
          <path
            d="M32.3876 5.65359C27.6076 3.57684 22.1453 4.59411 17.3789 6.6405C12.7743 8.61744 9.09363 12.0776 6.99019 16.5576C4.81111 21.1988 3.97171 26.4806 5.80656 31.2881C7.68703 36.2152 11.6995 40.2395 16.726 42.0664C21.5449 43.8179 26.7516 42.6157 31.4391 40.6046C35.9554 38.667 40.0309 35.6847 41.9694 31.2362C43.916 26.7689 43.3606 21.764 41.645 17.1834C39.8586 12.4138 37.1229 7.71096 32.3876 5.65359Z"
            fill="url(#paint0_linear_2030_12770)"
          />
          <g filter="url(#filter0_d_2030_12770)">
            <path
              fill-rule="evenodd"
              clip-rule="evenodd"
              d="M23.3646 36.3695C23.0957 36.3695 22.8152 36.3064 22.5693 36.1153C21.9819 35.6635 22.1007 34.9268 22.1469 34.6483L22.3218 33.5731C22.3862 33.0857 22.34 32.9286 22.3317 32.9076C22.3447 32.9432 22.2976 32.9289 22.1908 32.8967C22.108 32.8716 21.9893 32.8358 21.8351 32.804C15.4875 31.9781 10.8329 27.5512 10.8329 22.287C10.8329 16.406 16.7547 11.6195 24.0329 11.6195C31.311 11.6195 37.2329 16.406 37.2329 22.287C37.2329 24.6641 36.3039 26.8176 34.3899 28.8725C31.7252 31.8778 25.8132 35.5421 24.3662 36.1331L24.3552 36.1376C24.175 36.211 23.7865 36.3695 23.3646 36.3695Z"
              fill="white"
            />
            <path
              d="M23.183 35.3257L23.179 35.3226C23.1537 35.3032 23.144 35.2883 23.1375 35.2757C23.129 35.2592 23.118 35.2296 23.1112 35.1803C23.0958 35.0684 23.1111 34.9465 23.1335 34.8119L23.134 34.8088L23.3089 33.7337C23.3105 33.7238 23.3119 33.7139 23.3132 33.704C23.3838 33.1696 23.3657 32.8051 23.2628 32.5427C23.114 32.163 22.7585 31.9251 22.3751 31.9083C22.2881 31.8833 22.1732 31.8527 22.0372 31.8246C22.013 31.8196 21.9886 31.8155 21.9641 31.8123C15.9524 31.0302 11.8329 26.9006 11.8329 22.287C11.8329 17.1466 17.0976 12.6195 24.0329 12.6195C30.9682 12.6195 36.2329 17.1466 36.2329 22.287C36.2329 24.3665 35.4328 26.2857 33.6582 28.1909C33.6526 28.1968 33.6471 28.2029 33.6417 28.209C32.393 29.6173 30.3314 31.2291 28.356 32.5833C26.3694 33.9452 24.605 34.9554 23.9881 35.2073L23.9778 35.2115L23.9775 35.2116C23.8901 35.2473 23.7925 35.2865 23.6782 35.3189C23.5621 35.3518 23.455 35.3695 23.3646 35.3695C23.3075 35.3695 23.2677 35.3627 23.2413 35.3549C23.2174 35.3479 23.1999 35.3388 23.183 35.3257Z"
              stroke="white"
              stroke-width="2"
              stroke-linejoin="round"
            />
          </g>
          <path
            d="M22.6927 27.2398C22.6098 27.44 22.5671 27.6546 22.5671 27.8712C22.5671 28.3088 22.741 28.7285 23.0504 29.038C23.3598 29.3474 23.7795 29.5212 24.2171 29.5212C24.6547 29.5212 25.0744 29.3474 25.3839 29.038C25.6933 28.7285 25.8671 28.3088 25.8671 27.8712C25.8671 27.6546 25.8245 27.44 25.7415 27.2398C25.6586 27.0396 25.5371 26.8577 25.3839 26.7045C25.2306 26.5513 25.0488 26.4298 24.8486 26.3468C24.6484 26.2639 24.4338 26.2212 24.2171 26.2212C24.0005 26.2212 23.7859 26.2639 23.5857 26.3468C23.3855 26.4298 23.2036 26.5513 23.0504 26.7045C22.8972 26.8577 22.7757 27.0396 22.6927 27.2398Z"
            fill="#E05B4B"
          />
          <path
            d="M22.7935 17.3453C22.7289 17.5444 22.7069 17.7548 22.7288 17.963L23.3063 23.7495C23.3257 23.9769 23.4298 24.1886 23.5978 24.3429C23.7658 24.4973 23.9857 24.5829 24.2138 24.5829C24.442 24.5829 24.6618 24.4973 24.8299 24.3429C24.9979 24.1886 25.1019 23.9769 25.1213 23.7495L25.6988 17.963C25.7208 17.7548 25.6988 17.5444 25.6342 17.3453C25.5695 17.1462 25.4638 16.9629 25.3238 16.8073C25.1837 16.6517 25.0126 16.5273 24.8214 16.4422C24.6301 16.357 24.4232 16.313 24.2138 16.313C24.0045 16.313 23.7975 16.357 23.6063 16.4422C23.4151 16.5273 23.2439 16.6517 23.1039 16.8073C22.9639 16.9629 22.8581 17.1462 22.7935 17.3453Z"
            fill="#E05B4B"
          />
        </g>
        <defs>
          <filter
            id="filter0_d_2030_12770"
            x="2.83289"
            y="7.61951"
            width="42.4"
            height="40.75"
            filterUnits="userSpaceOnUse"
            color-interpolation-filters="sRGB"
          >
            <feFlood flood-opacity="0" result="BackgroundImageFix" />
            <feColorMatrix
              in="SourceAlpha"
              type="matrix"
              values="0 0 0 0 0 0 0 0 0 0 0 0 0 0 0 0 0 0 127 0"
              result="hardAlpha"
            />
            <feOffset dy="4" />
            <feGaussianBlur stdDeviation="4" />
            <feColorMatrix
              type="matrix"
              values="0 0 0 0 0.184314 0 0 0 0 0.223529 0 0 0 0 0.254902 0 0 0 0.15 0"
            />
            <feBlend
              mode="normal"
              in2="BackgroundImageFix"
              result="effect1_dropShadow_2030_12770"
            />
            <feBlend
              mode="normal"
              in="SourceGraphic"
              in2="effect1_dropShadow_2030_12770"
              result="shape"
            />
          </filter>
          <linearGradient
            id="paint0_linear_2030_12770"
            x1="43.2001"
            y1="4.51294"
            x2="4.26467"
            y2="5.06371"
            gradientUnits="userSpaceOnUse"
          >
            <stop stop-color="#0C4D5E" />
            <stop offset="1" stop-color="#2B8473" />
          </linearGradient>
          <clipPath id="clip0_2030_12770">
            <rect width="48" height="48" fill="white" />
          </clipPath>
        </defs>
      </svg>