<svg width="48" height="51" viewBox="0 0 48 51" fill="none" xmlns="http://www.w3.org/2000/svg">
<path d="M13.5156 1.42582C19.4906 -1.17013 26.3184 0.101462 32.2764 2.65946C38.0322 5.13063 42.6331 9.45578 45.2624 15.0558C47.9862 20.8573 49.0355 27.4596 46.7419 33.469C44.3913 39.6278 39.3757 44.6582 33.0926 46.9419C27.069 49.1312 20.5606 47.6284 14.7012 45.1146C9.05587 42.6925 3.96141 38.9646 1.53835 33.4041C-0.894943 27.8199 -0.200684 21.5638 1.94387 15.838C4.17687 9.8761 7.59641 3.99753 13.5156 1.42582Z" fill="url(#paint0_linear_2030_12863)"/>
<g filter="url(#filter0_d_2030_12863)">
<rect x="10.5" y="10.5" width="27" height="27" rx="13.5" fill="white"/>
<g clip-path="url(#clip0_2030_12863)">
<path d="M33.3868 25.5438C33.37 26.1566 32.8518 26.6372 32.2388 26.6372H30.2934V27.1997C30.2934 27.9684 30.1218 28.6968 29.8153 29.3493L31.9327 31.4667C32.372 31.9061 32.372 32.6184 31.9327 33.0577C31.4933 33.4971 30.781 33.497 30.3417 33.0577L28.4174 31.1334C27.5472 31.8391 26.4386 32.2622 25.2309 32.2622V23.6841C25.2309 23.4511 25.042 23.2622 24.8091 23.2622H23.9653C23.7323 23.2622 23.5434 23.4511 23.5434 23.6841V32.2622C22.3358 32.2622 21.2271 31.8391 20.357 31.1334L18.4327 33.0577C17.9933 33.4971 17.281 33.497 16.8417 33.0577C16.4024 32.6184 16.4024 31.9061 16.8417 31.4667L18.9591 29.3493C18.6526 28.6968 18.4809 27.9684 18.4809 27.1997V26.6372H16.5356C15.9226 26.6372 15.4044 26.1566 15.3876 25.5438C15.3702 24.9081 15.8804 24.3872 16.5122 24.3872H18.4809V22.322L16.8417 20.6827C16.4024 20.2433 16.4024 19.531 16.8417 19.0917C17.2811 18.6523 17.9933 18.6523 18.4327 19.0917L20.3532 21.0122H28.4212L30.3416 19.0917C30.781 18.6524 31.4933 18.6524 31.9327 19.0917C32.372 19.5311 32.372 20.2434 31.9327 20.6827L30.2934 22.322V24.3872H32.2622C32.894 24.3872 33.4042 24.9081 33.3868 25.5438ZM24.4223 15.3872C22.2477 15.3872 20.4848 17.1501 20.4848 19.3247H28.3598C28.3598 17.1501 26.597 15.3872 24.4223 15.3872Z" fill="#C57F12"/>
</g>
</g>
<defs>
<filter id="filter0_d_2030_12863" x="1.5" y="6" width="45" height="45" filterUnits="userSpaceOnUse" color-interpolation-filters="sRGB">
<feFlood flood-opacity="0" result="BackgroundImageFix"/>
<feColorMatrix in="SourceAlpha" type="matrix" values="0 0 0 0 0 0 0 0 0 0 0 0 0 0 0 0 0 0 127 0" result="hardAlpha"/>
<feOffset dy="4.5"/>
<feGaussianBlur stdDeviation="4.5"/>
<feColorMatrix type="matrix" values="0 0 0 0 0.184314 0 0 0 0 0.223529 0 0 0 0 0.254902 0 0 0 0.15 0"/>
<feBlend mode="normal" in2="BackgroundImageFix" result="effect1_dropShadow_2030_12863"/>
<feBlend mode="normal" in="SourceGraphic" in2="effect1_dropShadow_2030_12863" result="shape"/>
</filter>
<linearGradient id="paint0_linear_2030_12863" x1="0" y1="0" x2="48.6693" y2="0.688462" gradientUnits="userSpaceOnUse">
<stop stop-color="#001825"/>
<stop offset="1" stop-color="#003A57"/>
</linearGradient>
<clipPath id="clip0_2030_12863">
<rect width="18" height="18" fill="white" transform="translate(15.3872 15.3872)"/>
</clipPath>
</defs>
</svg>
