<svg width="24" height="24" viewBox="0 0 24 24" fill="none" xmlns="http://www.w3.org/2000/svg">
  <rect width="24" height="24" rx="12" fill="#F6F6F8" />
  <path
    d="M15.4923 4.52344C14.4317 4.02722 13.2482 3.75 12 3.75C7.44365 3.75 3.75 7.44365 3.75 12C3.75 16.5563 7.44365 20.25 12 20.25C16.5563 20.25 20.25 16.5563 20.25 12C20.25 11.2878 20.1598 10.5968 19.9901 9.9375"
    stroke="#1466A9" stroke-width="1.5" stroke-linecap="round" stroke-linejoin="round" />
  <path fill-rule="evenodd" clip-rule="evenodd"
    d="M14.065 12.1848C14.0214 12.229 13.9621 12.2542 13.9 12.2548L11.935 12.3248C11.8652 12.3277 11.7974 12.3012 11.748 12.2518C11.6986 12.2024 11.6721 12.1346 11.675 12.0648L11.745 10.0998C11.7456 10.0377 11.7708 9.97841 11.815 9.93481L13.25 8.49981H8.75C8.61193 8.49981 8.5 8.61174 8.5 8.74981V15.2498C8.5 15.3879 8.61193 15.4998 8.75 15.4998H15.25C15.3881 15.4998 15.5 15.3879 15.5 15.2498V10.7498L14.065 12.1848ZM13.595 11.7148L12.5 11.7498C12.363 11.7472 12.2527 11.6368 12.25 11.4998L12.285 10.4198C12.2893 10.3536 12.3177 10.2913 12.365 10.2448L14.5 8.07481C14.6012 7.97506 14.7638 7.97506 14.865 8.07481L15.905 9.11481C16.0048 9.21603 16.0048 9.37859 15.905 9.47981L13.77 11.6348C13.7235 11.6821 13.6612 11.7105 13.595 11.7148Z"
    fill="#4CA4DE" />
</svg>