<svg width="64" height="64" viewBox="0 0 64 64" fill="none" xmlns="http://www.w3.org/2000/svg">
    <path
        d="M20.817 7.53845C27.1903 4.76944 34.4734 6.1258 40.8286 8.85433C46.9681 11.4902 51.8757 16.1037 54.6802 22.0771C57.5857 28.2654 58.7049 35.3078 56.2584 41.7179C53.7511 48.2873 48.4012 53.653 41.6992 56.0889C35.274 58.4242 28.3317 56.8212 22.0817 54.1398C16.06 51.5563 10.6259 47.5799 8.0413 41.6486C5.44578 35.6922 6.18633 29.019 8.47385 22.9115C10.8557 16.5521 14.5032 10.2816 20.817 7.53845Z"
        fill="#92C9EB" />
    <g filter="url(#filter0_d_5726_50919)">
        <circle cx="31.9998" cy="31.9998" r="19.2" fill="white" />
        <circle cx="31.9998" cy="31.9998" r="18.2" stroke="white" stroke-width="2"
            stroke-linejoin="round" />
    </g>
    <circle cx="31.9996" cy="31.9996" r="13.4" fill="white" stroke="#6AB4E2" stroke-width="2"
        stroke-linejoin="round" />
    <circle cx="31.9996" cy="31.9996" r="6.4" fill="#6AB4E2" />
    <path
        d="M44.1393 23.7562L48.9706 18.9249L44.7509 18.6191L44.4451 14.3994L39.6138 19.2307L39.9196 23.4504L44.1393 23.7562Z"
        fill="#1466A9" />
    <path
        d="M39.9196 23.4504L44.1393 23.7562L48.9706 18.9249L44.7509 18.6191L44.4451 14.3994L39.6138 19.2307L39.9196 23.4504ZM39.9196 23.4504L32 31.37"
        stroke="#1466A9" stroke-width="2" stroke-linecap="round" stroke-linejoin="round" />
    <defs>
        <filter id="filter0_d_5726_50919" x="4.7998" y="8.7998" width="54.4004" height="54.4004"
            filterUnits="userSpaceOnUse" color-interpolation-filters="sRGB">
            <feFlood flood-opacity="0" result="BackgroundImageFix" />
            <feColorMatrix in="SourceAlpha" type="matrix"
                values="0 0 0 0 0 0 0 0 0 0 0 0 0 0 0 0 0 0 127 0" result="hardAlpha" />
            <feOffset dy="4" />
            <feGaussianBlur stdDeviation="4" />
            <feColorMatrix type="matrix"
                values="0 0 0 0 0.184314 0 0 0 0 0.223529 0 0 0 0 0.254902 0 0 0 0.15 0" />
            <feBlend mode="normal" in2="BackgroundImageFix" result="effect1_dropShadow_5726_50919" />
            <feBlend mode="normal" in="SourceGraphic" in2="effect1_dropShadow_5726_50919"
                result="shape" />
        </filter>
    </defs>
</svg>