<svg width="64" height="64" viewBox="0 0 64 64" fill="none" xmlns="http://www.w3.org/2000/svg">
     <g clip-path="url(#clip0_5690_3704)">
        <path
            d="M18.0208 1.90106C25.9875 -1.5602 35.0912 0.135253 43.0352 3.54591C50.7096 6.8408 56.8441 12.6077 60.3498 20.0744C63.9816 27.8097 65.3806 36.6128 62.3225 44.6253C59.1884 52.8371 52.501 59.5443 44.1235 62.5891C36.092 65.5083 27.4141 63.5045 19.6017 60.1527C12.0745 56.9233 5.28188 51.9528 2.05114 44.5387C-1.19326 37.0932 -0.267579 28.7517 2.59182 21.1173C5.56916 13.1681 10.1286 5.33001 18.0208 1.90106Z"
            fill="#1BA37A" fill-opacity="0.08" /> <!-- green[600] background -->
        <g filter="url(#filter0_d_5790_3604)">
            <path fill-rule="evenodd" clip-rule="evenodd"
                d="M20.7999 20.8H22.3999C24.1672 20.8 25.5999 19.3673 25.5999 17.6C25.5999 15.8327 24.1672 14.4 22.3999 14.4H19.1999C16.5489 14.4 14.3999 16.549 14.3999 19.2V44.8C14.3999 47.451 16.5489 49.6 19.1999 49.6H44.7999C47.4509 49.6 49.5999 47.451 49.5999 44.8V40C49.5999 38.2327 48.1672 36.8 46.3999 36.8C44.6326 36.8 43.1999 38.2327 43.1999 40V43.2H20.7999V20.8Z"
                fill="white" />
        </g>
        <g filter="url(#filter1_d_5790_3604)">
            <path
                d="M33.8699 34.2342C34.7063 35.5202 34.9977 36.7901 34.3396 38.0841C33.2219 40.2815 30.3993 40.1212 27.9074 39.9754C27.8817 39.9741 27.8558 39.9728 27.8298 39.9715C26.2947 39.8937 24.2523 39.7902 23.9104 40.4624C23.6558 40.9629 24.2417 42.1675 25.731 42.925C27.2198 43.6822 28.24 43.3231 28.3541 43.2829C28.3578 43.2816 28.3624 43.28 28.3624 43.28C29.0442 42.9968 29.8444 43.3269 30.146 44.0028C30.4354 44.6724 30.1543 45.4668 29.4722 45.7806C29.251 45.8832 27.2237 46.7574 24.4892 45.3665C21.7547 43.9757 20.4257 41.2715 21.4689 39.2206C22.63 36.9378 25.5138 37.0985 28.067 37.2447C28.5993 37.2762 29.2348 37.3138 29.8354 37.3149C29.0044 36.5713 28.9175 35.2959 29.6475 34.446C30.3867 33.5853 31.6837 33.4868 32.5445 34.226C32.664 34.3286 32.7688 34.4421 32.8588 34.5636L33.8699 34.2342Z"
                fill="#1BA37A" /> <!-- green[600] -->
        </g>
        <g filter="url(#filter2_d_5790_3604)">
            <path
                d="M28.9049 20.2028L33.7369 13.4581C34.0053 13.0834 34.3471 12.7916 34.7623 12.5827C35.1774 12.3739 35.6237 12.2784 36.101 12.2964L37.9661 12.3871C36.9698 14.0629 36.2155 15.5577 35.7032 16.8715C35.1909 18.1854 34.7447 19.749 34.3646 21.5625L28.9049 20.2028ZM36.5372 22.2077C36.7866 20.4626 37.2421 18.779 37.9037 17.157C38.5653 15.535 39.433 13.9746 40.5067 12.4758C42.1941 10.1205 44.257 8.23165 46.6955 6.80933C49.1339 5.38702 51.5175 4.68987 53.8463 4.71789C54.6219 6.91387 54.7344 9.39412 54.1836 12.1587C53.6328 14.9232 52.5137 17.4831 50.8264 19.8384C49.7718 21.3105 48.5734 22.634 47.2313 23.8089C45.8891 24.9839 44.432 25.9701 42.8598 26.7676L36.5372 22.2077ZM45.3904 16.5212C46.0113 16.966 46.7084 17.1262 47.4817 17.0018C48.255 16.8775 48.8622 16.5075 49.3032 15.8919C49.7442 15.2763 49.8992 14.5824 49.7683 13.8101C49.6373 13.0379 49.2613 12.4294 48.6405 11.9846C48.0196 11.5398 47.3225 11.3795 46.5491 11.5039C45.7758 11.6283 45.1686 11.9983 44.7276 12.6139C44.2866 13.2295 44.1316 13.9234 44.2626 14.6956C44.3936 15.4679 44.7695 16.0764 45.3904 16.5212ZM47.242 33.3092L44.1637 28.5826C45.7586 27.6394 47.1014 26.713 48.1921 25.8034C49.2828 24.8939 50.4613 23.6979 51.7276 22.2155L52.3789 23.9578C52.5494 24.404 52.6035 24.863 52.5413 25.3348C52.479 25.8066 52.3137 26.2299 52.0452 26.6046L47.242 33.3092ZM32.4056 27.419C33.0767 26.4822 33.9883 25.9152 35.1406 25.718C36.2929 25.5209 37.3414 25.7607 38.2863 26.4376C39.2311 27.1145 39.8012 28.0292 39.9968 29.1818C40.1923 30.3344 39.9545 31.3791 39.2834 32.3159C38.804 32.985 37.9243 33.6356 36.6442 34.2678C35.3642 34.8999 33.5626 35.5685 31.2397 36.2737C31.1601 33.8474 31.2147 31.9323 31.4034 30.5284C31.5921 29.1246 31.9262 28.0881 32.4056 27.419Z"
                fill="#1BA37A" /> <!-- green[600] -->
        </g>
    </g>
    <defs>
        <filter id="filter0_d_5790_3604" x="6.3999" y="10.4" width="51.2" height="51.2"
            filterUnits="userSpaceOnUse" color-interpolation-filters="sRGB">
            <feFlood flood-opacity="0" result="BackgroundImageFix" />
            <feColorMatrix in="SourceAlpha" type="matrix"
                values="0 0 0 0 0 0 0 0 0 0 0 0 0 0 0 0 0 0 127 0" result="hardAlpha" />
            <feOffset dy="4" />
            <feGaussianBlur stdDeviation="4" />
            <feColorMatrix type="matrix"
                values="0 0 0 0 0.184314 0 0 0 0 0.223529 0 0 0 0 0.254902 0 0 0 0.15 0" />
            <feBlend mode="normal" in2="BackgroundImageFix" result="effect1_dropShadow_5790_3604" />
            <feBlend mode="normal" in="SourceGraphic" in2="effect1_dropShadow_5790_3604"
                result="shape" />
        </filter>
        <filter id="filter1_d_5790_3604" x="16.6673" y="31.5068" width="22.4798" height="21.3086"
            filterUnits="userSpaceOnUse" color-interpolation-filters="sRGB">
            <feFlood flood-opacity="0" result="BackgroundImageFix" />
            <feColorMatrix in="SourceAlpha" type="matrix"
                values="0 0 0 0 0 0 0 0 0 0 0 0 0 0 0 0 0 0 127 0" result="hardAlpha" />
            <feOffset dy="2.22322" />
            <feGaussianBlur stdDeviation="2.22322" />
            <feColorMatrix type="matrix"
                values="0 0 0 0 0.184314 0 0 0 0 0.223529 0 0 0 0 0.254902 0 0 0 0.15 0" />
            <feBlend mode="normal" in2="BackgroundImageFix" result="effect1_dropShadow_5790_3604" />
            <feBlend mode="normal" in="SourceGraphic" in2="effect1_dropShadow_5790_3604"
                result="shape" />
        </filter>
        <filter id="filter2_d_5790_3604" x="24.4586" y="2.49385" width="34.5145" height="40.4495"
            filterUnits="userSpaceOnUse" color-interpolation-filters="sRGB">
            <feFlood flood-opacity="0" result="BackgroundImageFix" />
            <feColorMatrix in="SourceAlpha" type="matrix"
                values="0 0 0 0 0 0 0 0 0 0 0 0 0 0 0 0 0 0 127 0" result="hardAlpha" />
            <feOffset dy="2.22322" />
            <feGaussianBlur stdDeviation="2.22322" />
            <feColorMatrix type="matrix"
                values="0 0 0 0 0.184314 0 0 0 0 0.223529 0 0 0 0 0.254902 0 0 0 0.15 0" />
            <feBlend mode="normal" in2="BackgroundImageFix" result="effect1_dropShadow_5790_3604" />
            <feBlend mode="normal" in="SourceGraphic" in2="effect1_dropShadow_5790_3604"
                result="shape" />
        </filter>
        <clipPath id="clip0_5690_3704">
            <rect width="64" height="64" fill="white" />
        </clipPath>
    </defs>
</svg>