<svg width="25" height="24" viewBox="0 0 25 24" fill="none" xmlns="http://www.w3.org/2000/svg">
<rect x="0.666016" width="24" height="24" rx="12" fill="#F6F6F8"/>
<path d="M6.82683 16.9191C6.51023 16.9191 6.23761 16.8048 6.00897 16.5762C5.78033 16.3475 5.66602 16.0749 5.66602 15.7583V8.40496C5.66602 8.08835 5.78033 7.81573 6.00897 7.5871C6.23761 7.35846 6.51023 7.24414 6.82683 7.24414H17.6458C17.9745 7.24414 18.2501 7.35846 18.4727 7.5871C18.6953 7.81573 18.8066 8.08835 18.8066 8.40496V11.5443C18.653 11.4535 18.5021 11.3721 18.3539 11.2999C18.2058 11.2277 18.0438 11.1707 17.868 11.1291V9.77407H6.60463V11.7899H13.7831C13.187 12.1862 12.7062 12.7111 12.3405 13.3646C11.9748 14.0181 11.7919 14.7363 11.7919 15.5195C11.7919 15.7722 11.8116 16.011 11.851 16.2359C11.8903 16.4608 11.9396 16.6885 11.999 16.9191H6.82683Z" fill="#68737D"/>
<path fill-rule="evenodd" clip-rule="evenodd" d="M13.716 18.1875C14.416 18.8875 15.2723 19.2375 16.2848 19.2375C17.2973 19.2375 18.1535 18.8875 18.8535 18.1875C19.5535 17.4875 19.9035 16.6312 19.9035 15.6187C19.9035 14.6062 19.5535 13.75 18.8535 13.05C18.1535 12.35 17.2973 12 16.2848 12C15.2723 12 14.416 12.35 13.716 13.05C13.016 13.75 12.666 14.6062 12.666 15.6187C12.666 16.6312 13.016 17.4875 13.716 18.1875ZM17.6723 17.3813C17.5848 17.3813 17.5035 17.35 17.4285 17.2875L15.9098 15.8813C15.8473 15.7688 15.816 15.7 15.816 15.675V13.65C15.816 13.5375 15.8535 13.4437 15.9285 13.3687C16.0035 13.2937 16.0973 13.2563 16.2098 13.2563C16.3223 13.2563 16.416 13.2937 16.491 13.3687C16.566 13.4437 16.6035 13.5375 16.6035 13.65V15.5813L17.8973 16.7625C17.9723 16.825 18.0129 16.9063 18.0191 17.0063C18.0254 17.1063 17.991 17.1938 17.916 17.2688C17.841 17.3438 17.7598 17.3813 17.6723 17.3813Z" fill="#49545C"/>
</svg>
