<svg width="24" height="24" viewBox="0 0 24 24" fill="none" xmlns="http://www.w3.org/2000/svg">
    <g opacity="0.3">
        <path opacity="0.3"
            d="M12 24C18.6274 24 24 18.6274 24 12C24 5.37258 18.6274 0 12 0C5.37258 0 0 5.37258 0 12C0 18.6274 5.37258 24 12 24Z"
            fill="#2F3941" />
    </g>
    <path fill-rule="evenodd" clip-rule="evenodd"
        d="M6.375 5.25H15.375C15.9937 5.25 16.5 5.75625 16.5 6.375V15.375C16.5 15.9937 15.9937 16.5 15.375 16.5H6.375C5.75625 16.5 5.25 15.9937 5.25 15.375V6.375C5.25 5.75625 5.75625 5.25 6.375 5.25ZM10.245 13.62L14.1825 9.6825C14.4637 9.4125 14.4637 8.9625 14.1825 8.6925C13.9125 8.4225 13.4625 8.4225 13.1925 8.6925L9.75 12.135L8.5575 10.9425C8.2875 10.6725 7.8375 10.6725 7.5675 10.9425C7.2975 11.2125 7.2975 11.6625 7.5675 11.9325L9.255 13.62C9.39 13.755 9.57 13.8225 9.75 13.8225C9.93 13.8225 10.11 13.755 10.245 13.62ZM7.5 18.1875C7.5 18.4982 7.75184 18.75 8.0625 18.75H17.625C18.2507 18.75 18.75 18.2507 18.75 17.625V8.0625C18.75 7.75184 18.4982 7.5 18.1875 7.5C17.8768 7.5 17.625 7.75184 17.625 8.0625V17.625H8.0625C7.75184 17.625 7.5 17.8768 7.5 18.1875Z"
        fill="#2F3941" />
</svg>