<svg width="64" height="64" viewBox="0 0 64 64" fill="none" xmlns="http://www.w3.org/2000/svg">
    <g clip-path="url(#clip0_5730_49536)">
        <path
            d="M7.43229 41.1703C4.71741 35.0706 6.02013 28.0882 8.66237 21.9912C11.2149 16.1011 15.6977 11.3863 21.5112 8.68308C27.5337 5.88259 34.3934 4.79147 40.646 7.11874C47.0541 9.50389 52.2967 14.6161 54.6878 21.0317C56.9802 27.1823 55.4363 33.8389 52.8396 39.8349C50.3378 45.6119 46.4772 50.8296 40.7042 53.3219C34.9068 55.8248 28.4021 55.1329 22.4447 52.9571C16.2416 50.6916 10.1218 47.2131 7.43229 41.1703Z"
            fill="#FFD7A4" />
        <g filter="url(#filter0_d_5730_49536)">
            <path
                d="M49.6395 25.5996H14.4395V49.1996C14.4395 50.3042 15.3349 51.1996 16.4395 51.1996H47.6395C48.744 51.1996 49.6395 50.3042 49.6395 49.1996V25.5996Z"
                fill="white" />
        </g>
        <g filter="url(#filter1_d_5730_49536)">
            <path
                d="M14.4398 25.6L49.6004 25.7443L49.6661 17.7445C49.6696 17.3202 49.5044 16.9119 49.2068 16.6094C48.9092 16.3069 48.5037 16.1349 48.0793 16.1315L16.0804 15.8686C15.6561 15.8651 15.2477 16.0303 14.9452 16.3279C14.6427 16.6255 14.4708 17.0311 14.4673 17.4554L14.4398 25.6Z"
                fill="#FFB65A" />
        </g>
        <path d="M41.6395 12.7998V19.1998M22.4395 12.7998V19.1998" stroke="#C57F12" stroke-width="2"
            stroke-linecap="round" stroke-linejoin="round" />
        <path
            d="M24.8398 32H30.4398L27.2398 36C27.7665 35.9991 28.2852 36.1282 28.75 36.3758C29.2148 36.6234 29.6113 36.982 29.9043 37.4196C30.1973 37.8572 30.3778 38.3603 30.4297 38.8844C30.4817 39.4085 30.4035 39.9372 30.202 40.4238C30.0006 40.9104 29.6822 41.3398 29.2751 41.6739C28.868 42.0079 28.3847 42.2363 27.8681 42.3388C27.3515 42.4413 26.8177 42.4147 26.3138 42.2614C25.81 42.1081 25.3518 41.8328 24.9798 41.46"
            stroke="#C57F12" stroke-linecap="round" stroke-linejoin="round" />
        <path d="M35.2402 34.4L38.4402 32V42.4" stroke="#C57F12" stroke-linecap="round"
            stroke-linejoin="round" />
    </g>
    <defs>
        <filter id="filter0_d_5730_49536" x="6.43945" y="21.5996" width="51.1992" height="41.5996"
            filterUnits="userSpaceOnUse" color-interpolation-filters="sRGB">
            <feFlood flood-opacity="0" result="BackgroundImageFix" />
            <feColorMatrix in="SourceAlpha" type="matrix"
                values="0 0 0 0 0 0 0 0 0 0 0 0 0 0 0 0 0 0 127 0" result="hardAlpha" />
            <feOffset dy="4" />
            <feGaussianBlur stdDeviation="4" />
            <feColorMatrix type="matrix"
                values="0 0 0 0 0.184314 0 0 0 0 0.223529 0 0 0 0 0.254902 0 0 0 0.15 0" />
            <feBlend mode="normal" in2="BackgroundImageFix" result="effect1_dropShadow_5730_49536" />
            <feBlend mode="normal" in="SourceGraphic" in2="effect1_dropShadow_5730_49536"
                result="shape" />
        </filter>
        <filter id="filter1_d_5730_49536" x="2.43945" y="3.86816" width="67.2266" height="41.876"
            filterUnits="userSpaceOnUse" color-interpolation-filters="sRGB">
            <feFlood flood-opacity="0" result="BackgroundImageFix" />
            <feColorMatrix in="SourceAlpha" type="matrix"
                values="0 0 0 0 0 0 0 0 0 0 0 0 0 0 0 0 0 0 127 0" result="hardAlpha" />
            <feOffset dx="4" dy="4" />
            <feGaussianBlur stdDeviation="8" />
            <feComposite in2="hardAlpha" operator="out" />
            <feColorMatrix type="matrix" values="0 0 0 0 0 0 0 0 0 0 0 0 0 0 0 0 0 0 0.15 0" />
            <feBlend mode="normal" in2="BackgroundImageFix" result="effect1_dropShadow_5730_49536" />
            <feBlend mode="normal" in="SourceGraphic" in2="effect1_dropShadow_5730_49536"
                result="shape" />
        </filter>
        <clipPath id="clip0_5730_49536">
            <rect width="64" height="64" fill="white" />
        </clipPath>
    </defs>
</svg>