<svg width="24" height="24" viewBox="0 0 24 24" fill="none" xmlns="http://www.w3.org/2000/svg">
  <rect width="24" height="24" rx="12" fill="#F6F6F8" />
  <path fill-rule="evenodd" clip-rule="evenodd"
    d="M13.55 19.0875C14.25 19.7875 15.1063 20.1375 16.1188 20.1375C17.1313 20.1375 17.9875 19.7875 18.6875 19.0875C19.3875 18.3875 19.7375 17.5312 19.7375 16.5187C19.7375 15.5062 19.3875 14.65 18.6875 13.95C17.9875 13.25 17.1313 12.9 16.1188 12.9C15.1063 12.9 14.25 13.25 13.55 13.95C12.85 14.65 12.5 15.5062 12.5 16.5187C12.5 17.5312 12.85 18.3875 13.55 19.0875ZM17.5062 18.2812C17.4187 18.2812 17.3375 18.25 17.2625 18.1875L15.7438 16.7812C15.6813 16.6687 15.65 16.6 15.65 16.575V14.55C15.65 14.4375 15.6875 14.3437 15.7625 14.2687C15.8375 14.1937 15.9313 14.1562 16.0438 14.1562C16.1563 14.1562 16.25 14.1937 16.325 14.2687C16.4 14.3437 16.4375 14.4375 16.4375 14.55V16.4813L17.7313 17.6625C17.8063 17.725 17.8469 17.8062 17.8531 17.9062C17.8594 18.0063 17.825 18.0938 17.75 18.1688C17.675 18.2438 17.5937 18.2812 17.5062 18.2812Z"
    fill="#955F1D" />
  <path fill-rule="evenodd" clip-rule="evenodd"
    d="M6.125 19.5C5.8125 19.5 5.54688 19.3906 5.32812 19.1719C5.10938 18.9531 5 18.6875 5 18.375V10.2375C5 9.925 5.10938 9.65937 5.32812 9.44062C5.54688 9.22187 5.8125 9.1125 6.125 9.1125H7.4375V7.36875C7.4375 6.36875 7.78437 5.51562 8.47812 4.80937C9.17187 4.10312 10.0125 3.75 11 3.75C11.9875 3.75 12.8281 4.10312 13.5219 4.80937C14.2156 5.51562 14.5625 6.36875 14.5625 7.36875V9.1125H15.875C16.1875 9.1125 16.4531 9.22187 16.6719 9.44062C16.8906 9.65937 17 9.925 17 10.2375V11.8687C16.8125 11.8187 16.625 11.7875 16.4375 11.775C16.25 11.7625 16.0625 11.7625 15.875 11.775C14.6 11.825 13.5313 12.3094 12.6688 13.2281C11.8063 14.1469 11.375 15.2437 11.375 16.5187C11.375 17.0687 11.4688 17.5969 11.6562 18.1031C11.8438 18.6094 12.1063 19.075 12.4438 19.5H6.125ZM13.4375 9.1125H8.5625V7.36875C8.5625 6.68125 8.8 6.09375 9.275 5.60625C9.75 5.11875 10.325 4.875 11 4.875C11.675 4.875 12.25 5.11875 12.725 5.60625C13.2 6.09375 13.4375 6.68125 13.4375 7.36875V9.1125Z"
    fill="#C57F12" />
</svg>