<svg width="64" height="64" viewBox="0 0 64 64" fill="none" xmlns="http://www.w3.org/2000/svg">
    <g clip-path="url(#clip0_5793_3939)">
        <path
            d="M18.0208 1.90106C25.9874 -1.5602 35.0912 0.135252 43.0352 3.54591C50.7096 6.8408 56.8441 12.6077 60.3498 20.0744C63.9816 27.8097 65.3806 36.6128 62.3225 44.6253C59.1884 52.8371 52.501 59.5443 44.1235 62.5891C36.092 65.5083 27.4141 63.5045 19.6017 60.1527C12.0745 56.9233 5.28188 51.9528 2.05114 44.5387C-1.19326 37.0932 -0.267579 28.7517 2.59182 21.1173C5.56916 13.1681 10.1286 5.33001 18.0208 1.90106Z"
            fill="#F6F6F8" />
        <path d="M44 35H40V41H34V45H40V51H44V45H50V41H44V35Z" fill="#E9EBED" />
        <g filter="url(#filter0_d_5793_3939)">
            <path
                d="M46.9383 16.133C47.4417 16.1799 47.8364 16.4893 47.9352 16.95C48.0813 17.6319 48.25 18.8804 48.25 21.0105C48.25 23.1406 48.0813 24.389 47.9352 25.0709C47.8364 25.5317 47.4417 25.841 46.9383 25.8879C46.2535 25.9518 45.0407 26.0209 43 26.0209C40.9593 26.0209 39.7465 25.9518 39.0617 25.8879C38.5583 25.841 38.1636 25.5317 38.0648 25.0709C37.9187 24.389 37.75 23.1406 37.75 21.0105C37.75 18.8804 37.9187 17.6319 38.0648 16.95C38.1636 16.4893 38.5583 16.1799 39.0617 16.133C39.7465 16.0692 40.9593 16.0001 43 16.0001C45.0407 16.0001 46.2535 16.0692 46.9383 16.133Z"
                fill="#E9EBED" />
        </g>
        <path
            d="M29.1262 14.9651C29.8453 15.0336 30.4092 15.4858 30.5503 16.1591C30.759 17.1558 31 18.9805 31 22.0937C31 25.2069 30.759 27.0315 30.5503 28.0282C30.4092 28.7016 29.8453 29.1537 29.1262 29.2223C28.1478 29.3156 26.4153 29.4166 23.5 29.4166C20.5847 29.4166 18.8522 29.3156 17.8738 29.2223C17.1547 29.1537 16.5908 28.7016 16.4497 28.0282C16.241 27.0315 16 25.2069 16 22.0937C16 18.9805 16.241 17.1558 16.4497 16.1591C16.5908 15.4858 17.1547 15.0336 17.8738 14.9651C18.8522 14.8718 20.5847 14.7708 23.5 14.7708C26.4153 14.7708 28.1478 14.8718 29.1262 14.9651Z"
            fill="#E9EBED" />
        <g filter="url(#filter1_d_5793_3939)">
            <path
                d="M26.458 21.0605L34.5802 21.0605C35.0314 21.0605 35.4584 21.1653 35.8613 21.3748C36.2642 21.5843 36.5946 21.8824 36.8524 22.2692L37.8435 23.7921C35.9419 23.9533 34.3223 24.203 32.9847 24.5415C31.6472 24.8799 30.1484 25.4117 28.4886 26.1369L26.458 21.0605ZM29.2137 28.2158C30.7447 27.4261 32.3441 26.8339 34.0121 26.439C35.68 26.0442 37.4165 25.8468 39.2214 25.8468C42.0577 25.8468 44.7369 26.4068 47.2589 27.5268C49.781 28.6468 51.6947 30.1335 53 31.9868C51.6947 33.84 49.785 35.3307 47.271 36.4588C44.757 37.5868 42.0818 38.1509 39.2455 38.1509C37.4729 38.1509 35.7364 37.9535 34.0363 37.5586C32.3361 37.1638 30.7205 36.5716 29.1896 35.7819L29.2137 28.2158ZM38.7863 31.9868C38.7863 32.7281 39.0562 33.3686 39.5961 33.9085C40.1359 34.4484 40.7765 34.7183 41.5178 34.7183C42.2591 34.7183 42.8997 34.4484 43.4396 33.9085C43.9794 33.3686 44.2494 32.7281 44.2494 31.9868C44.2494 31.2454 43.9794 30.6049 43.4396 30.065C42.8997 29.5251 42.2591 29.2552 41.5178 29.2552C40.7765 29.2552 40.1359 29.5251 39.5961 30.065C39.0562 30.6049 38.7863 31.2454 38.7863 31.9868ZM26.4822 42.9371L28.4886 37.8366C30.1484 38.5618 31.6512 39.0977 32.9968 39.4441C34.3425 39.7906 35.9661 40.0444 37.8677 40.2056L36.8524 41.7043C36.5946 42.0911 36.2602 42.3932 35.8492 42.6108C35.4383 42.8284 35.0072 42.9371 34.556 42.9371L26.4822 42.9371ZM22.7112 27.9015C23.8393 27.9015 24.8102 28.3004 25.624 29.0981C26.4379 29.8958 26.8448 30.8587 26.8448 31.9868C26.8448 33.1148 26.4419 34.0818 25.6361 34.8875C24.8304 35.6933 23.8634 36.0962 22.7354 36.0962C21.9296 36.0962 20.9103 35.7698 19.6775 35.1172C18.4447 34.4645 16.8855 33.421 15 31.9868C16.8855 30.5525 18.4406 29.513 19.6654 28.8684C20.8902 28.2238 21.9054 27.9015 22.7112 27.9015Z"
                fill="white" />
        </g>
        <g filter="url(#filter2_d_5793_3939)">
            <path
                d="M26.458 21.0605L34.5802 21.0605C35.0314 21.0605 35.4584 21.1653 35.8613 21.3748C36.2642 21.5843 36.5946 21.8824 36.8524 22.2692L37.8435 23.7921C35.9419 23.9533 34.3223 24.203 32.9847 24.5415C31.6472 24.8799 30.1484 25.4117 28.4886 26.1369L26.458 21.0605ZM29.2137 28.2158C30.7447 27.4261 32.3441 26.8339 34.0121 26.439C35.68 26.0442 37.4165 25.8468 39.2214 25.8468C42.0577 25.8468 44.7369 26.4068 47.2589 27.5268C49.781 28.6468 51.6947 30.1335 53 31.9868C51.6947 33.84 49.785 35.3307 47.271 36.4588C44.757 37.5868 42.0818 38.1509 39.2455 38.1509C37.4729 38.1509 35.7364 37.9535 34.0363 37.5586C32.3361 37.1638 30.7205 36.5716 29.1896 35.7819L29.2137 28.2158ZM38.7863 31.9868C38.7863 32.7281 39.0562 33.3686 39.5961 33.9085C40.1359 34.4484 40.7765 34.7183 41.5178 34.7183C42.2591 34.7183 42.8997 34.4484 43.4396 33.9085C43.9794 33.3686 44.2494 32.7281 44.2494 31.9868C44.2494 31.2454 43.9794 30.6049 43.4396 30.065C42.8997 29.5251 42.2591 29.2552 41.5178 29.2552C40.7765 29.2552 40.1359 29.5251 39.5961 30.065C39.0562 30.6049 38.7863 31.2454 38.7863 31.9868ZM26.4822 42.9371L28.4886 37.8366C30.1484 38.5618 31.6512 39.0977 32.9968 39.4441C34.3425 39.7906 35.9661 40.0444 37.8677 40.2056L36.8524 41.7043C36.5946 42.0911 36.2602 42.3932 35.8492 42.6108C35.4383 42.8284 35.0072 42.9371 34.556 42.9371L26.4822 42.9371ZM22.7112 27.9015C23.8393 27.9015 24.8102 28.3004 25.624 29.0981C26.4379 29.8958 26.8448 30.8587 26.8448 31.9868C26.8448 33.1148 26.4419 34.0818 25.6361 34.8875C24.8304 35.6933 23.8634 36.0962 22.7354 36.0962C21.9296 36.0962 20.9103 35.7698 19.6775 35.1172C18.4447 34.4645 16.8855 33.421 15 31.9868C16.8855 30.5525 18.4406 29.513 19.6654 28.8684C20.8902 28.2238 21.9054 27.9015 22.7112 27.9015Z"
                fill="#49545C" />
        </g>
        <g filter="url(#filter3_d_5793_3939)">
            <path
                d="M29.1262 38.5328C29.8453 38.5796 30.4092 38.8884 30.5503 39.3481C30.759 40.0286 31 41.2745 31 43.4001C31 45.5258 30.759 46.7717 30.5503 47.4522C30.4092 47.9119 29.8453 48.2207 29.1262 48.2675C28.1478 48.3312 26.4153 48.4001 23.5 48.4001C20.5847 48.4001 18.8522 48.3312 17.8738 48.2675C17.1547 48.2207 16.5908 47.9119 16.4497 47.4522C16.241 46.7717 16 45.5258 16 43.4001C16 41.2745 16.241 40.0286 16.4497 39.3481C16.5908 38.8884 17.1547 38.5796 17.8738 38.5328C18.8522 38.4691 20.5847 38.4001 23.5 38.4001C26.4153 38.4001 28.1478 38.4691 29.1262 38.5328Z"
                fill="white" />
            <path
                d="M29.0612 39.5307C29.3034 39.5465 29.4712 39.6043 29.5628 39.6561C29.5837 39.6679 29.598 39.6777 29.6073 39.6848C29.7783 40.2616 30 41.3978 30 43.4001C30 45.4024 29.7783 46.5386 29.6073 47.1155C29.598 47.1226 29.5837 47.1324 29.5628 47.1442C29.4712 47.196 29.3034 47.2538 29.0612 47.2696C28.1107 47.3315 26.401 47.4001 23.5 47.4001C20.599 47.4001 18.8893 47.3315 17.9388 47.2696C17.6966 47.2538 17.5288 47.196 17.4372 47.1442C17.4163 47.1324 17.402 47.1226 17.3927 47.1155C17.2217 46.5386 17 45.4024 17 43.4001C17 41.3979 17.2217 40.2617 17.3927 39.6848C17.402 39.6777 17.4163 39.6679 17.4372 39.6561C17.5288 39.6043 17.6966 39.5465 17.9388 39.5307C18.8893 39.4688 20.599 39.4001 23.5 39.4001C26.401 39.4001 28.1107 39.4688 29.0612 39.5307ZM29.6223 39.6981C29.6223 39.6981 29.6214 39.6973 29.6201 39.6956C29.6217 39.6972 29.6224 39.6981 29.6223 39.6981ZM29.6201 47.1047C29.6214 47.103 29.6223 47.1022 29.6223 47.1022C29.6224 47.1022 29.6217 47.1031 29.6201 47.1047ZM17.3777 47.1022C17.3777 47.1021 17.3786 47.103 17.3799 47.1047C17.3783 47.1031 17.3776 47.1022 17.3777 47.1022ZM17.3799 39.6956C17.3786 39.6973 17.3777 39.6981 17.3777 39.6981C17.3776 39.6981 17.3783 39.6972 17.3799 39.6956Z"
                stroke="white" stroke-width="2" stroke-linejoin="round" />
        </g>
    </g>
    <defs>
        <filter id="filter0_d_5793_3939" x="32.75" y="13.5001" width="20.5" height="20.0208"
            filterUnits="userSpaceOnUse" color-interpolation-filters="sRGB">
            <feFlood flood-opacity="0" result="BackgroundImageFix" />
            <feColorMatrix in="SourceAlpha" type="matrix"
                values="0 0 0 0 0 0 0 0 0 0 0 0 0 0 0 0 0 0 127 0" result="hardAlpha" />
            <feOffset dy="2.5" />
            <feGaussianBlur stdDeviation="2.5" />
            <feColorMatrix type="matrix"
                values="0 0 0 0 0.184314 0 0 0 0 0.223529 0 0 0 0 0.254902 0 0 0 0.15 0" />
            <feBlend mode="normal" in2="BackgroundImageFix" result="effect1_dropShadow_5793_3939" />
            <feBlend mode="normal" in="SourceGraphic" in2="effect1_dropShadow_5793_3939"
                result="shape" />
        </filter>
        <filter id="filter1_d_5793_3939" x="10.5536" y="18.8373" width="46.8929" height="30.7695"
            filterUnits="userSpaceOnUse" color-interpolation-filters="sRGB">
            <feFlood flood-opacity="0" result="BackgroundImageFix" />
            <feColorMatrix in="SourceAlpha" type="matrix"
                values="0 0 0 0 0 0 0 0 0 0 0 0 0 0 0 0 0 0 127 0" result="hardAlpha" />
            <feOffset dy="2.22322" />
            <feGaussianBlur stdDeviation="2.22322" />
            <feColorMatrix type="matrix"
                values="0 0 0 0 0.184314 0 0 0 0 0.223529 0 0 0 0 0.254902 0 0 0 0.15 0" />
            <feBlend mode="normal" in2="BackgroundImageFix" result="effect1_dropShadow_5793_3939" />
            <feBlend mode="normal" in="SourceGraphic" in2="effect1_dropShadow_5793_3939"
                result="shape" />
        </filter>
        <filter id="filter2_d_5793_3939" x="10.5536" y="18.8373" width="46.8929" height="30.7695"
            filterUnits="userSpaceOnUse" color-interpolation-filters="sRGB">
            <feFlood flood-opacity="0" result="BackgroundImageFix" />
            <feColorMatrix in="SourceAlpha" type="matrix"
                values="0 0 0 0 0 0 0 0 0 0 0 0 0 0 0 0 0 0 127 0" result="hardAlpha" />
            <feOffset dy="2.22322" />
            <feGaussianBlur stdDeviation="2.22322" />
            <feColorMatrix type="matrix"
                values="0 0 0 0 0.184314 0 0 0 0 0.223529 0 0 0 0 0.254902 0 0 0 0.15 0" />
            <feBlend mode="normal" in2="BackgroundImageFix" result="effect1_dropShadow_5793_3939" />
            <feBlend mode="normal" in="SourceGraphic" in2="effect1_dropShadow_5793_3939"
                result="shape" />
        </filter>
        <filter id="filter3_d_5793_3939" x="8" y="34.4001" width="31" height="26"
            filterUnits="userSpaceOnUse" color-interpolation-filters="sRGB">
            <feFlood flood-opacity="0" result="BackgroundImageFix" />
            <feColorMatrix in="SourceAlpha" type="matrix"
                values="0 0 0 0 0 0 0 0 0 0 0 0 0 0 0 0 0 0 127 0" result="hardAlpha" />
            <feOffset dy="4" />
            <feGaussianBlur stdDeviation="4" />
            <feColorMatrix type="matrix"
                values="0 0 0 0 0.184314 0 0 0 0 0.223529 0 0 0 0 0.254902 0 0 0 0.15 0" />
            <feBlend mode="normal" in2="BackgroundImageFix" result="effect1_dropShadow_5793_3939" />
            <feBlend mode="normal" in="SourceGraphic" in2="effect1_dropShadow_5793_3939"
                result="shape" />
        </filter>
        <clipPath id="clip0_5793_3939">
            <rect width="64" height="64" fill="white" />
        </clipPath>
    </defs>
</svg>