<svg width="64" height="64" viewBox="0 0 64 64" fill="none" xmlns="http://www.w3.org/2000/svg">
    <g clip-path="url(#clip0_5793_4011)">
        <path
            d="M63.5012 21.5573C66.028 29.8677 63.3018 38.7176 59.0044 46.2191C54.8529 53.466 48.4219 58.9002 40.603 61.5283C32.5029 64.251 23.5975 64.6334 15.9876 60.6784C8.18848 56.6251 2.29069 49.214 0.224552 40.5431C-1.75626 32.2304 1.22745 23.8388 5.45132 16.4612C9.52094 9.3531 15.2362 3.17395 22.9713 0.812941C30.7392 -1.55806 38.9199 0.316173 46.1769 4.03049C53.7332 7.898 60.998 13.3245 63.5012 21.5573Z"
            fill="#C57F12" fill-opacity="0.08" />
        <g filter="url(#filter0_d_5793_4011)">
            <path
                d="M40.6029 16.1698C42.2136 16.2297 43.4768 16.6249 43.7928 17.2134C44.2604 18.0845 44.8002 19.6792 44.8002 22.4C44.8002 25.1208 44.2604 26.7155 43.7928 27.5866C43.4768 28.1751 42.2136 28.5703 40.6029 28.6302C38.4112 28.7117 34.5305 28.8 28.0002 28.8C21.4698 28.8 17.5891 28.7117 15.3975 28.6302C13.7868 28.5703 12.5236 28.1751 12.2076 27.5866C11.74 26.7155 11.2002 25.1208 11.2002 22.4C11.2002 19.6792 11.74 18.0845 12.2076 17.2134C12.5236 16.6249 13.7868 16.2297 15.3975 16.1698C17.5891 16.0883 21.4698 16 28.0002 16C34.5305 16 38.4112 16.0883 40.6029 16.1698Z"
                fill="white" />
            <path
                d="M40.5657 17.1691C41.3078 17.1967 41.9304 17.301 42.3759 17.445C42.8022 17.5827 42.9156 17.7064 42.9197 17.7028C42.92 17.7026 42.9197 17.7015 42.9188 17.6996C43.294 18.4044 43.8002 19.8287 43.8002 22.4C43.8002 24.9711 43.294 26.3955 42.9188 27.1003C42.9197 27.0985 42.92 27.0974 42.9197 27.0972C42.9156 27.0936 42.8022 27.2173 42.3759 27.355C41.9304 27.499 41.3078 27.6033 40.5657 27.6309C38.3901 27.7118 34.5224 27.8 28.0002 27.8C21.478 27.8 17.6103 27.7118 15.4347 27.6309C14.6926 27.6033 14.07 27.499 13.6245 27.355C13.1982 27.2173 13.0848 27.0936 13.0807 27.0972C13.0804 27.0974 13.0807 27.0985 13.0816 27.1003C12.7064 26.3955 12.2002 24.9711 12.2002 22.4C12.2002 19.8289 12.7064 18.4045 13.0816 17.6997C13.0807 17.7015 13.0804 17.7026 13.0807 17.7028C13.0848 17.7064 13.1982 17.5827 13.6245 17.445C14.07 17.301 14.6926 17.1967 15.4347 17.1691C17.6103 17.0882 21.478 17 28.0002 17C34.5224 17 38.3901 17.0882 40.5657 17.1691ZM42.9117 17.6864L42.9117 17.6865L42.9117 17.6864Z"
                stroke="white" stroke-width="2" stroke-linejoin="round" />
        </g>
        <circle cx="19.4213" cy="22.622" r="1.6" transform="rotate(8.63296 19.4213 22.622)"
            fill="#734A15" />
        <circle cx="27.3632" cy="22.622" r="1.6" transform="rotate(8.63296 27.3632 22.622)"
            fill="#734A15" />
        <circle cx="35.3632" cy="22.622" r="1.6" transform="rotate(8.63296 35.3632 22.622)"
            fill="#734A15" />
        <path
            d="M41.1587 57.144L34.6419 50.6052C34.2798 50.242 34.0215 49.8141 33.8669 49.3217C33.7123 48.8292 33.6873 48.3241 33.7918 47.8062L34.2226 45.7864C35.8781 47.188 37.3787 48.2914 38.7243 49.0967C40.07 49.902 41.7006 50.6819 43.6163 51.4363L41.1587 57.144ZM44.708 49.1845C42.8439 48.5856 41.0838 47.7731 39.4277 46.7471C37.7716 45.7211 36.2194 44.4816 34.7712 43.0285C32.4955 40.7451 30.7967 38.1389 29.6748 35.2098C28.5529 32.2808 28.2143 29.5473 28.659 27.0095C31.1983 26.5734 33.9306 26.9147 36.8559 28.0335C39.7812 29.1524 42.3817 30.8535 44.6574 33.1368C46.0797 34.564 47.314 36.1203 48.3603 37.8058C49.4065 39.4914 50.226 41.2672 50.8186 43.1333L44.708 49.1845ZM40.0634 38.4524C40.6602 37.8576 40.9593 37.1263 40.9608 36.2585C40.9622 35.3908 40.6656 34.6585 40.0708 34.0617C39.476 33.4649 38.7447 33.1657 37.8769 33.1643C37.0091 33.1628 36.2769 33.4595 35.6801 34.0543C35.0833 34.6491 34.7841 35.3803 34.7827 36.2481C34.7812 37.1159 35.0779 37.8482 35.6727 38.445C36.2674 39.0418 36.9987 39.3409 37.8665 39.3424C38.7343 39.3438 39.4666 39.0472 40.0634 38.4524ZM58.7513 39.5719L53.0353 42.049C52.2873 40.1309 51.5129 38.4911 50.7122 37.1298C49.9115 35.7685 48.8131 34.2577 47.4171 32.5975L49.4382 32.2124C49.9565 32.1096 50.468 32.1364 50.9729 32.2927C51.4778 32.4489 51.9112 32.7087 52.2733 33.072L58.7513 39.5719ZM49.6724 54.6716C48.7673 53.7634 48.3093 52.6617 48.2985 51.3665C48.2878 50.0713 48.7365 48.9711 49.6446 48.066C50.5528 47.1609 51.6545 46.7094 52.9497 46.7116C54.2449 46.7138 55.3451 47.169 56.2502 48.0771C56.8967 48.7258 57.4518 49.8083 57.9155 51.3244C58.3792 52.8406 58.7902 54.9331 59.1483 57.6018C56.4808 57.2346 54.3962 56.8167 52.8946 56.3478C51.3929 55.879 50.3189 55.3203 49.6724 54.6716Z"
            fill="#955F1D" />
    </g>
    <defs>
        <filter id="filter0_d_5793_4011" x="3.2002" y="12" width="49.6001" height="28.8"
            filterUnits="userSpaceOnUse" color-interpolation-filters="sRGB">
            <feFlood flood-opacity="0" result="BackgroundImageFix" />
            <feColorMatrix in="SourceAlpha" type="matrix"
                values="0 0 0 0 0 0 0 0 0 0 0 0 0 0 0 0 0 0 127 0" result="hardAlpha" />
            <feOffset dy="4" />
            <feGaussianBlur stdDeviation="4" />
            <feColorMatrix type="matrix"
                values="0 0 0 0 0.184314 0 0 0 0 0.223529 0 0 0 0 0.254902 0 0 0 0.15 0" />
            <feBlend mode="normal" in2="BackgroundImageFix" result="effect1_dropShadow_5793_4011" />
            <feBlend mode="normal" in="SourceGraphic" in2="effect1_dropShadow_5793_4011"
                result="shape" />
        </filter>
        <clipPath id="clip0_5793_4011">
            <rect width="64" height="64" fill="white" />
        </clipPath>
    </defs>
</svg>