<svg width="24" height="24" viewBox="0 0 24 24" fill="none" xmlns="http://www.w3.org/2000/svg">
  <rect width="24" height="24" rx="12" fill="#F6F6F8" />
  <path fill-rule="evenodd" clip-rule="evenodd"
    d="M12 7C9.24 7 7 9.24 7 12C7 14.76 9.24 17 12 17C14.76 17 17 14.76 17 12C17 9.24 14.76 7 12 7ZM11.6667 9.33333C11.6667 9.14667 11.8133 9 12 9C12.1867 9 12.3333 9.14667 12.3333 9.33333V12.3333C12.3333 12.52 12.1867 12.6667 12 12.6667C11.8133 12.6667 11.6667 12.52 11.6667 12.3333V9.33333ZM12 15C11.6333 15 11.3333 14.7 11.3333 14.3333C11.3333 13.9667 11.6333 13.6667 12 13.6667C12.3667 13.6667 12.6667 13.9667 12.6667 14.3333C12.6667 14.7 12.3667 15 12 15Z"
    fill="#955F1D" />
  <path
    d="M3 12C3 7.02944 7.02944 3 12 3C13.3602 3 14.6521 3.3023 15.8102 3.84415C16.2195 4.03565 16.396 4.52268 16.2045 4.93196C16.013 5.34125 15.526 5.5178 15.1167 5.3263C14.1712 4.88391 13.1156 4.63636 12 4.63636C7.93318 4.63636 4.63636 7.93318 4.63636 12C4.63636 16.0668 7.93318 19.3636 12 19.3636C16.0668 19.3636 19.3636 16.0668 19.3636 12C19.3636 11.3631 19.283 10.7462 19.1317 10.1585C19.0191 9.72084 19.2826 9.27479 19.7202 9.16218C20.1578 9.04957 20.6038 9.31303 20.7165 9.75064C20.9017 10.4705 21 11.2243 21 12C21 16.9705 16.9705 21 12 21C7.02944 21 3 16.9705 3 12Z"
    fill="#FFB65A" />
</svg>