<svg width="16" height="16" viewBox="0 0 16 16" fill="currentColor" xmlns="http://www.w3.org/2000/svg">
<path d="M2.85714 1.14286C3.3118 1.14286 3.74784 1.32347 4.06933 1.64496C4.39082 1.96645 4.57143 2.40249 4.57143 2.85714V4.57143H2.85714C2.63202 4.57143 2.4091 4.52709 2.20111 4.44094C1.99313 4.35479 1.80415 4.22851 1.64496 4.06933C1.48577 3.91014 1.3595 3.72116 1.27335 3.51317C1.1872 3.30519 1.14286 3.08227 1.14286 2.85714C1.14286 2.63202 1.1872 2.4091 1.27335 2.20111C1.3595 1.99313 1.48577 1.80415 1.64496 1.64496C1.80415 1.48577 1.99313 1.3595 2.20111 1.27335C2.4091 1.1872 2.63202 1.14286 2.85714 1.14286ZM5.71429 4.57143V2.85714C5.71429 2.29205 5.54672 1.73966 5.23277 1.2698C4.91882 0.799946 4.4726 0.433739 3.95052 0.217488C3.42845 0.00123795 2.85397 -0.055343 2.29974 0.0549005C1.74551 0.165144 1.23642 0.43726 0.836839 0.836839C0.43726 1.23642 0.165144 1.74551 0.0549005 2.29974C-0.055343 2.85397 0.00123795 3.42845 0.217488 3.95052C0.433739 4.4726 0.799946 4.91882 1.2698 5.23277C1.73966 5.54672 2.29205 5.71429 2.85714 5.71429H4.57143V10.2857H2.85714C2.29205 10.2857 1.73966 10.4533 1.2698 10.7672C0.799946 11.0812 0.433739 11.5274 0.217488 12.0495C0.00123795 12.5715 -0.055343 13.146 0.0549005 13.7003C0.165144 14.2545 0.43726 14.7636 0.836839 15.1632C1.23642 15.5627 1.74551 15.8349 2.29974 15.9451C2.85397 16.0553 3.42845 15.9988 3.95052 15.7825C4.4726 15.5663 4.91882 15.2001 5.23277 14.7302C5.54672 14.2603 5.71429 13.7079 5.71429 13.1429V11.4286H10.2857V13.1429C10.2857 13.7079 10.4533 14.2603 10.7672 14.7302C11.0812 15.2001 11.5274 15.5663 12.0495 15.7825C12.5715 15.9988 13.146 16.0553 13.7003 15.9451C14.2545 15.8349 14.7636 15.5627 15.1632 15.1632C15.5627 14.7636 15.8349 14.2545 15.9451 13.7003C16.0553 13.146 15.9988 12.5715 15.7825 12.0495C15.5663 11.5274 15.2001 11.0812 14.7302 10.7672C14.2603 10.4533 13.7079 10.2857 13.1429 10.2857H11.4286V5.71429H13.1429C13.7079 5.71429 14.2603 5.54672 14.7302 5.23277C15.2001 4.91882 15.5663 4.4726 15.7825 3.95052C15.9988 3.42845 16.0553 2.85397 15.9451 2.29974C15.8349 1.74551 15.5627 1.23642 15.1632 0.836839C14.7636 0.43726 14.2545 0.165144 13.7003 0.0549005C13.146 -0.055343 12.5715 0.00123795 12.0495 0.217488C11.5274 0.433739 11.0812 0.799946 10.7672 1.2698C10.4533 1.73966 10.2857 2.29205 10.2857 2.85714V4.57143H5.71429ZM10.2857 5.71429V10.2857H5.71429V5.71429H10.2857ZM11.4286 4.57143V2.85714C11.4286 2.51809 11.5291 2.18665 11.7175 1.90474C11.9058 1.62282 12.1736 1.4031 12.4868 1.27335C12.8001 1.1436 13.1448 1.10965 13.4773 1.1758C13.8098 1.24194 14.1153 1.40521 14.355 1.64496C14.5948 1.88471 14.7581 2.19016 14.8242 2.5227C14.8903 2.85524 14.8564 3.19993 14.7266 3.51317C14.5969 3.82642 14.3772 4.09415 14.0953 4.28252C13.8133 4.47089 13.4819 4.57143 13.1429 4.57143H11.4286ZM11.4286 11.4286H13.1429C13.4819 11.4286 13.8133 11.5291 14.0953 11.7175C14.3772 11.9058 14.5969 12.1736 14.7266 12.4868C14.8564 12.8001 14.8903 13.1448 14.8242 13.4773C14.7581 13.8098 14.5948 14.1153 14.355 14.355C14.1153 14.5948 13.8098 14.7581 13.4773 14.8242C13.1448 14.8903 12.8001 14.8564 12.4868 14.7266C12.1736 14.5969 11.9058 14.3772 11.7175 14.0953C11.5291 13.8133 11.4286 13.4819 11.4286 13.1429V11.4286ZM4.57143 11.4286V13.1429C4.57143 13.4819 4.47089 13.8133 4.28252 14.0953C4.09415 14.3772 3.82642 14.5969 3.51317 14.7266C3.19993 14.8564 2.85524 14.8903 2.5227 14.8242C2.19016 14.7581 1.88471 14.5948 1.64496 14.355C1.40521 14.1153 1.24194 13.8098 1.1758 13.4773C1.10965 13.1448 1.1436 12.8001 1.27335 12.4868C1.4031 12.1736 1.62282 11.9058 1.90474 11.7175C2.18665 11.5291 2.51809 11.4286 2.85714 11.4286H4.57143Z" />
</svg>
