<svg width="27" height="26" viewBox="0 0 27 26" fill="none" xmlns="http://www.w3.org/2000/svg">
	<g clip-path="url(#clip0_21_19129)">
		<path d="M26.5525 13C26.5525 20.1796 20.6084 26 13.2762 26C5.94481 26 0 20.1796 0 13C0 5.82111 5.94481 0 13.2762 0C20.6084 0 26.5525 5.82111 26.5525 13Z" fill="#FFD7A4" />
		<path d="M8.16472 13.7641C9.18309 13.7641 10.0086 12.6323 10.0086 11.2363C10.0086 9.84022 9.18309 8.7085 8.16472 8.7085C7.14635 8.7085 6.3208 9.84022 6.3208 11.2363C6.3208 12.6323 7.14635 13.7641 8.16472 13.7641Z" fill="#2F3941" />
		<path d="M17.7531 13.7641C18.7715 13.7641 19.597 12.6323 19.597 11.2363C19.597 9.84022 18.7715 8.7085 17.7531 8.7085C16.7347 8.7085 15.9092 9.84022 15.9092 11.2363C15.9092 12.6323 16.7347 13.7641 17.7531 13.7641Z" fill="#2F3941" />
		<path d="M18.122 18.0978H7.79604C7.60043 18.0978 7.41282 18.0217 7.2745 17.8862C7.13618 17.7508 7.05847 17.5671 7.05847 17.3755C7.05847 17.184 7.13618 17.0003 7.2745 16.8649C7.41282 16.7294 7.60043 16.6533 7.79604 16.6533H18.122C18.3176 16.6533 18.5052 16.7294 18.6435 16.8649C18.7819 17.0003 18.8596 17.184 18.8596 17.3755C18.8596 17.5671 18.7819 17.7508 18.6435 17.8862C18.5052 18.0217 18.3176 18.0978 18.122 18.0978Z" fill="#2F3941" />
	</g>
	<defs>
		<clipPath id="clip0_21_19129">
			<rect width="26.5525" height="26" fill="white" />
		</clipPath>
	</defs>
</svg>
