<?xml version="1.0" encoding="utf-8"?>
<!-- Generator: Adobe Illustrator 26.0.1, SVG Export Plug-In . SVG Version: 6.00 Build 0)  -->
<svg version="1.1" id="Layer_1" xmlns="http://www.w3.org/2000/svg" xmlns:xlink="http://www.w3.org/1999/xlink" x="0px" y="0px"
	 viewBox="0 0 532 311.3" style="enable-background:new 0 0 532 311.3;" xml:space="preserve">
<style type="text/css">
	.st0{fill:#003A57;}
	.st1{fill:#54C38A;}
	.st2{fill:#B2C4CD;}
	.st3{fill:#809CAB;}
	.st4{fill:#CCEDDC;}
	.st5{fill:#CCD8DD;}
	.st6{fill:#E5EBEE;}
	.st7{fill:#A9E1C5;}
</style>
<g>
	<g>
		<path class="st0" d="M89.4,278.2c2.4,0,4.4,1.2,4.4,3.7c0,1.2-0.7,2.2-1.9,2.7c1.6,0.4,2.4,1.9,2.4,3.1c0,2.8-2.3,3.6-4.8,3.6
			h-5.7v-13.1H89.4z M85.3,283.8h4.2c1.6,0,2.7-0.6,2.7-1.9c0-1.5-1.2-2.2-2.8-2.2h-4.1V283.8z M85.3,289.8h4.1
			c1.4,0,3.2-0.4,3.2-2.1c0-1.6-1.7-2.3-3.1-2.3h-4.2V289.8z"/>
		<path class="st0" d="M101.9,278.2h9.2v1.5h-7.6v4.1h7.3v1.5h-7.3v4.4h7.9v1.6h-9.5V278.2z"/>
		<path class="st0" d="M133.5,279.4c-1.7,0-3.4,0.7-3.4,2.2c0,1.4,1.6,1.8,3.6,2.2c2.6,0.4,5.2,0.9,5.2,3.9c0,2.9-2.8,3.9-5.3,3.9
			c-2.3,0-4.5-0.8-5.5-3l1.3-0.8c0.8,1.6,2.6,2.3,4.2,2.3c1.6,0,3.7-0.5,3.7-2.4c0-1.6-1.8-2.1-3.8-2.4c-2.5-0.4-5-1-5-3.6
			c0-2.7,2.8-3.7,5-3.7c1.9,0,3.8,0.4,5,2.4l-1.2,0.8C136.5,279.9,135,279.4,133.5,279.4z"/>
		<path class="st0" d="M153.1,287.2h-0.3l-4.8-6.7v10.8h-1.6v-13.1h1.9l4.6,6.7l4.6-6.7h1.9v13.1h-1.6v-10.7L153.1,287.2z"/>
		<path class="st0" d="M174.3,278.2l5.9,13.1h-1.8l-1.3-2.9h-7.5l-1.3,2.9h-1.8l5.9-13.1H174.3z M173.4,279.8l-3.1,7.1h6.2
			L173.4,279.8z"/>
		<path class="st0" d="M192.1,286.6h-3.2v4.7h-1.6v-13.1h5.9c3,0,4.4,2.1,4.4,4.2c0,2-1.1,3.8-3.8,4.1l4.3,4.8h-2.1L192.1,286.6z
			 M196,282.4c0-1.3-0.9-2.8-2.8-2.8h-4.3v5.5h4.2C195.1,285.1,196,283.9,196,282.4z"/>
		<path class="st0" d="M204,279.7v-1.5h10.6v1.5h-4.5v11.6h-1.6v-11.6H204z"/>
		<path class="st0" d="M240,278.2v1.6h-7.5v4.6h7.1v1.5h-7.1v5.5h-1.6v-13.1H240z"/>
		<path class="st0" d="M252.5,286.6h-3.2v4.7h-1.6v-13.1h5.9c3,0,4.4,2.1,4.4,4.2c0,2-1.1,3.8-3.8,4.1l4.3,4.8h-2.1L252.5,286.6z
			 M256.4,282.4c0-1.3-0.9-2.8-2.8-2.8h-4.3v5.5h4.2C255.5,285.1,256.4,283.9,256.4,282.4z"/>
		<path class="st0" d="M278.5,284.8c0,3.4-2.2,6.8-6.6,6.8c-4.5,0-6.7-3.3-6.7-6.8c0-3.8,2.5-6.8,6.7-6.8
			C276.3,278,278.5,281.3,278.5,284.8z M271.9,279.5c-3.3,0-5.1,2.5-5.1,5.3c0,2.7,1.6,5.2,5.1,5.2c3.4,0,5-2.7,5-5.2
			C276.9,282.1,275.3,279.5,271.9,279.5z"/>
		<path class="st0" d="M292.9,287.2h-0.3l-4.8-6.7v10.8h-1.6v-13.1h1.9l4.6,6.7l4.6-6.7h1.9v13.1h-1.6v-10.7L292.9,287.2z"/>
		<path class="st0" d="M315.6,279.7v-1.5h10.6v1.5h-4.5v11.6h-1.6v-11.6H315.6z"/>
		<path class="st0" d="M342.4,285.4h-7.5v5.9h-1.6v-13.1h1.6v5.7h7.5v-5.7h1.6v13.1h-1.6V285.4z"/>
		<path class="st0" d="M352.6,278.2h9.2v1.5h-7.6v4.1h7.3v1.5h-7.3v4.4h7.9v1.6h-9.5V278.2z"/>
		<path class="st0" d="M384.1,279.4c-1.7,0-3.4,0.7-3.4,2.2c0,1.4,1.6,1.8,3.6,2.2c2.6,0.4,5.2,0.9,5.2,3.9c0,2.9-2.8,3.9-5.3,3.9
			c-2.3,0-4.5-0.8-5.5-3l1.3-0.8c0.8,1.6,2.6,2.3,4.2,2.3c1.6,0,3.7-0.5,3.7-2.4c0-1.6-1.8-2.1-3.8-2.4c-2.5-0.4-5-1-5-3.6
			c0-2.7,2.8-3.7,5-3.7c1.9,0,3.8,0.4,5,2.4l-1.2,0.8C387.1,279.9,385.6,279.4,384.1,279.4z"/>
		<path class="st0" d="M395.7,279.7v-1.5h10.6v1.5h-4.5v11.6h-1.6v-11.6H395.7z"/>
		<path class="st0" d="M418.4,278.2l5.9,13.1h-1.8l-1.3-2.9h-7.5l-1.3,2.9h-1.8l5.9-13.1H418.4z M417.5,279.8l-3.1,7.1h6.2
			L417.5,279.8z"/>
		<path class="st0" d="M436.2,286.6H433v4.7h-1.6v-13.1h5.9c3,0,4.4,2.1,4.4,4.2c0,2-1.1,3.8-3.8,4.1l4.3,4.8h-2.1L436.2,286.6z
			 M440.1,282.4c0-1.3-0.9-2.8-2.8-2.8H433v5.5h4.2C439.2,285.1,440.1,283.9,440.1,282.4z"/>
		<path class="st0" d="M448.1,279.7v-1.5h10.6v1.5h-4.5v11.6h-1.6v-11.6H448.1z"/>
	</g>
</g>
<path class="st0" d="M144.4,246.7v-27.4c0-7.6-4.1-11.9-11.2-11.9c-6.7,0-10.5,4.4-10.5,11.9v27.4h-9.6v-27.4
	c0-12.8,7.7-20.8,20.1-20.8c12.5,0,20.7,8.2,20.7,20.8v27.4H144.4z"/>
<path class="st0" d="M207.9,248c-18.4,0-25-12.5-25-24.1c0-17.7,12.6-25.6,25-25.6c6.6,0,12.8,2.6,17.6,7.2l0.4,0.4l-6.2,6.3
	l-0.4-0.4c-2.8-2.7-7.3-4.5-11.4-4.5c-9.1,0-15.4,6.8-15.4,16.5c0,7.2,4,14.9,15.4,14.9c3.9,0,6.8-1,9.9-3.4v-7.4H206v-8.9h21.5
	v19.5l-0.7,0.9C221.8,245.2,215.6,248,207.9,248z"/>
<path class="st0" d="M277.4,246.7c-12.5,0-20.7-8.2-20.7-20.8v-27.4h9.6V226c0,7.6,4.1,11.9,11.2,11.9c6.7,0,10.5-4.4,10.5-11.9
	v-27.4h9.6V226C297.5,238.8,289.8,246.7,277.4,246.7z"/>
<path class="st0" d="M63.4,246.7c-12.5,0-20.7-8.2-20.7-20.8v-27.4h9.6V226c0,7.6,4.1,11.9,11.2,11.9c6.7,0,10.5-4.4,10.5-11.9
	v-27.4h9.6V226C83.6,238.8,75.8,246.7,63.4,246.7z"/>
<polygon class="st0" points="326.4,246.7 326.4,198.9 364.2,198.9 364.2,208.2 336,208.2 336,218.8 359.6,218.8 359.6,227.8 
	336,227.8 336,237.3 364.2,237.3 364.2,246.7 "/>
<path class="st0" d="M411.2,247.6c-10.5,0-17.1-3.7-20.2-11.5l-0.2-0.5l8.1-4.2l0.2,0.6c1.7,4.3,6.3,6.8,12.2,6.8
	c2.3,0,9.9-0.5,9.9-6.2c0-3.4-3.3-5.4-10-6.1c-16.1-1.9-18.3-8.3-18.3-14.2c0-9.4,9.1-13.7,18.1-13.7c9,0,15.3,3.2,18.3,9.3l0.2,0.5
	l-7.7,4l-0.3-0.4c-1.4-2.3-5.5-4.8-10.3-4.8c-5.4,0-8.8,2.1-8.8,5.5c0,3.3,3.8,4.5,9.6,5.2c9.7,1.2,18.7,3.8,18.7,15
	C430.7,243.7,420.7,247.6,411.2,247.6z"/>
<path class="st0" d="M477.9,247.6c-10.5,0-17.1-3.7-20.2-11.5l-0.2-0.5l8.1-4.2l0.2,0.6c1.7,4.3,6.3,6.8,12.2,6.8
	c2.3,0,9.9-0.5,9.9-6.2c0-3.4-3.3-5.4-10-6.1c-16.1-1.9-18.3-8.3-18.3-14.2c0-9.4,9.1-13.7,18.1-13.7c9,0,15.3,3.2,18.3,9.3l0.2,0.5
	l-7.7,4l-0.3-0.4c-1.4-2.3-5.5-4.8-10.3-4.8c-5.4,0-8.8,2.1-8.8,5.5c0,3.3,3.8,4.5,9.6,5.2c9.7,1.2,18.7,3.8,18.7,15
	C497.4,243.7,487.3,247.6,477.9,247.6z"/>
<g>
	<path class="st0" d="M296.2,105.8v8h-0.1c-0.7,11.6-7.1,18.2-17.8,18.2c-11.4,0-18.2-6.6-18.9-18.2h-0.1v-8h-16.2v8h0c0,0,0,0,0,0
		v0.1h0c0.9,20.2,14.5,33.1,35.1,33.1c20.4,0,33.3-12.6,34.2-33.1h0v-8.1H296.2z"/>
	<rect x="243.2" y="65" class="st1" width="16.3" height="16.3"/>
	<rect x="295.8" y="65" class="st0" width="16.5" height="16.5"/>
	
		<rect x="199.1" y="25.5" transform="matrix(-1.836970e-16 1 -1 -1.836970e-16 240.8896 -173.6676)" class="st2" width="16.3" height="16.3"/>
	
		<rect x="223" y="46.8" transform="matrix(-1.836970e-16 1 -1 -1.836970e-16 286.0495 -176.2692)" class="st3" width="16.3" height="16.3"/>
	
		<rect x="169.3" y="40.2" transform="matrix(-1.836970e-16 1 -1 -1.836970e-16 225.7338 -129.1657)" class="st4" width="16.3" height="16.3"/>
	
		<rect x="144.4" y="7.1" transform="matrix(-1.836970e-16 1 -1 -1.836970e-16 167.8209 -137.3073)" class="st5" width="16.3" height="16.3"/>
	
		<rect x="177.1" y="113.8" transform="matrix(-1.836970e-16 1 -1 -1.836970e-16 307.1887 -63.2329)" class="st6" width="16.3" height="16.3"/>
	
		<rect x="205.6" y="84.9" transform="matrix(-1.836970e-16 1 -1 -1.836970e-16 306.7381 -120.7343)" class="st7" width="16.3" height="16.3"/>
</g>
</svg>
