<svg width="12" height="12" viewBox="0 0 12 12" fill="none" xmlns="http://www.w3.org/2000/svg">
<path fill-rule="evenodd" clip-rule="evenodd" d="M6.5 1C6.19318 1 5.94444 1.24873 5.94444 1.55556V5.44444H2.05556C1.74873 5.44444 1.5 5.69318 1.5 6C1.5 6.30683 1.74873 6.55556 2.05556 6.55556H5.94444V10.4444C5.94444 10.7513 6.19318 11 6.5 11C6.80683 11 7.05556 10.7513 7.05556 10.4444V6.55556H10.9444C11.2513 6.55556 11.5 6.30683 11.5 6C11.5 5.69318 11.2513 5.44444 10.9444 5.44444H7.05556V1.55556C7.05556 1.24873 6.80683 1 6.5 1Z" fill="currentColor" />
</svg>
